<svg xmlns:ev="http://www.w3.org/2001/xml-events" viewBox="0 0 640 708" xmlns="http://www.w3.org/2000/svg" width="640" height="708" xmlns:xlink="http://www.w3.org/1999/xlink"><style type="text/css"><![CDATA[
.st3 {fill:#000000;font-family:Arial;font-size:10pt;font-weight:bold}
.st2 {fill:#404040;font-family:Arial;font-size:10pt;font-weight:bold}
.st1 {fill:#404040;font-family:Arial;font-size:10pt}
.st4 {fill:#ffffff;font-family:Arial;font-size:16pt}
.st5 {font-size:18pt}
]]></style><defs><linearGradient id="lg1" y1="0%" x2="0%" x1="0%" y2="100%"><stop stop-color="#338cca" offset="0"/><stop stop-color="#006fbd" offset="1"/></linearGradient></defs><g id="page1" transform="translate(5,5)"><rect width="630" height="698" x="0" stroke="#808080" y="0" fill="#ffffff"/><path id="shape1" d="M0,0L630,0L630,698L0,698L0,0z" fill="#ffffff"/><g transform="translate(89.88,345.69)"><g><g id="shape2" transform="translate(162.52,0)"><path stroke="#696969" d="M0,0L34.6,0L34.6,66.6L0,66.6L0,0z" fill="#e7f2fc"/><text class="st1"><tspan x="13.3" y="36.8">5</tspan></text></g><path id="shape3" transform="translate(197.1,0)" stroke="#696969" d="M0,0L34.6,0L34.6,66.6L0,66.6L0,0z" fill="#e7f2fc"/><path id="shape4" transform="translate(231.67,0)" stroke="#696969" d="M0,0L34.6,0L34.6,66.6L0,66.6L0,0z" fill="#e7f2fc"/><g id="shape5"><path stroke="#696969" d="M0,0L162.5,0L162.5,66.6L0,66.6L0,0z" fill="#e7f2fc"/><text class="st1"><tspan x="8.3" y="36.8">Cheaper</tspan></text></g></g><g transform="translate(0,66.64)"><g id="shape6" transform="translate(162.52,0)"><path stroke="#696969" d="M0,0L34.6,0L34.6,66.6L0,66.6L0,0z" fill="#e7f2fc"/><text class="st1"><tspan x="13.3" y="36.8">4</tspan></text></g><path id="shape7" transform="translate(197.1,0)" stroke="#696969" d="M0,0L34.6,0L34.6,66.6L0,66.6L0,0z" fill="#e7f2fc"/><path id="shape8" transform="translate(231.67,0)" stroke="#696969" d="M0,0L34.6,0L34.6,66.6L0,66.6L0,0z" fill="#e7f2fc"/><g id="shape9"><path stroke="#696969" d="M0,0L162.5,0L162.5,66.6L0,66.6L0,0z" fill="#e7f2fc"/><text class="st1"><tspan x="8.3" y="36.8">Robust</tspan></text></g></g><g transform="translate(0,133.28)"><g id="shape10" transform="translate(162.52,0)"><path stroke="#696969" d="M0,0L34.6,0L34.6,66.6L0,66.6L0,0z" fill="#e7f2fc"/><text class="st1"><tspan x="13.3" y="36.8">5</tspan></text></g><path id="shape11" transform="translate(197.1,0)" stroke="#696969" d="M0,0L34.6,0L34.6,66.6L0,66.6L0,0z" fill="#e7f2fc"/><path id="shape12" transform="translate(231.67,0)" stroke="#696969" d="M0,0L34.6,0L34.6,66.6L0,66.6L0,0z" fill="#e7f2fc"/><g id="shape13"><path stroke="#696969" d="M0,0L162.5,0L162.5,66.6L0,66.6L0,0z" fill="#e7f2fc"/><text class="st1"><tspan x="8.3" y="36.8">I2C Interface</tspan></text></g></g><g transform="translate(0,199.91)"><g id="shape14" transform="translate(162.52,0)"><path stroke="#696969" d="M0,0L34.6,0L34.6,66.6L0,66.6L0,0z" fill="#e7f2fc"/><text class="st1"><tspan x="13.3" y="36.8">3</tspan></text></g><path id="shape15" transform="translate(197.1,0)" stroke="#696969" d="M0,0L34.6,0L34.6,66.6L0,66.6L0,0z" fill="#e7f2fc"/><path id="shape16" transform="translate(231.67,0)" stroke="#696969" d="M0,0L34.6,0L34.6,66.6L0,66.6L0,0z" fill="#e7f2fc"/><g id="shape17"><path stroke="#696969" d="M0,0L162.5,0L162.5,66.6L0,66.6L0,0z" fill="#e7f2fc"/><text class="st1"><tspan x="8.3" y="36.8">Battery Capacity</tspan></text></g></g><g transform="translate(0,-169.13)"><g id="shape18" transform="translate(162.52,0)"><path stroke="#696969" d="M0,0L34.6,0L34.6,169.1L0,169.1L0,0z" fill="#e7f2fc"/><text class="st1" transform="matrix(0,-1,1,0,-67.3,101.9)"><tspan x="-59.2" y="88.1">Customer Importance</tspan></text></g><g id="shape19" transform="translate(197.1,0)"><path stroke="#696969" d="M0,0L34.6,0L34.6,169.1L0,169.1L0,0z" fill="#e7f2fc"/><text class="st2" transform="matrix(0,-1,1,0,-67.3,101.9)"><tspan x="-59.2" y="88.1">BQ27441-G1</tspan></text></g><g id="shape20" transform="translate(231.67,0)"><path stroke="#696969" d="M0,0L34.6,0L34.6,169.1L0,169.1L0,0z" fill="#e7f2fc"/><text class="st2" transform="matrix(0,-1,1,0,-67.3,101.9)"><tspan x="-59.2" y="88.1">DS2782E+</tspan></text></g></g></g><g id="shape21" transform="matrix(0,-1,1,0,63.7,611)"><path stroke="#5a5a5a" d="M265,26.5L265,0L0,0L0,26.5L265,26.5z" fill="#0099d2"/><text class="st1"><tspan x="62" y="16.7">Customer Requirements</tspan></text></g><g id="shape22" transform="translate(252.04,150.1)"><path stroke="#5a5a5a" d="M102,26.5L102,0L0,0L0,26.5L102,26.5z" fill="#ffffff"/><text class="st1"><tspan x="17.5" y="9.2">Voice of the </tspan><tspan x="23.5" y="24.2">Company</tspan></text></g><g transform="translate(63.65,191)"><g><g id="shape23" transform="translate(41.57,0)"><path stroke="#5a5a5a" d="M0,0L149.9,0L149.9,52L0,52L0,0z" fill="#ffffff"/><text class="st1"><tspan x="18.4" y="29.5">Strong Relationship</tspan></text></g><path id="shape24" stroke="#5a5a5a" d="M0,0L41.6,0L41.6,52L0,52L0,0z" fill="#ffffff"/></g><g transform="translate(0,52)"><g id="shape25" transform="translate(41.57,0)"><path stroke="#5a5a5a" d="M0,0L149.9,0L149.9,52L0,52L0,0z" fill="#ffffff"/><text class="st1"><tspan x="10.4" y="29.5">Moderate Relationship</tspan></text></g><path id="shape26" stroke="#5a5a5a" d="M0,0L41.6,0L41.6,52L0,52L0,0z" fill="#ffffff"/></g><g transform="translate(0,104)"><g id="shape27" transform="translate(41.57,0)"><path stroke="#5a5a5a" d="M0,0L149.9,0L149.9,52L0,52L0,0z" fill="#ffffff"/><text class="st1"><tspan x="21.4" y="29.5">Weak Relationship</tspan></text></g><path id="shape28" stroke="#5a5a5a" d="M0,0L41.6,0L41.6,52L0,52L0,0z" fill="#ffffff"/></g><g id="shape29" transform="translate(0,-40.56)"><path stroke="#5a5a5a" d="M0,0L191.5,0L191.5,40.6L0,40.6L0,0z" fill="#ffffff"/><text class="st3"><tspan x="53.2" y="23.8">Relationships</tspan></text></g></g><path id="shape30" transform="translate(294.81,369.56)" stroke-width="3" stroke="url(#lg1)" d="M0,0M18.9,9.4C18.9,14.7,14.7,18.9,9.4,18.9C4.2,18.9,-0,14.7,-0,9.4C-0,4.2,4.2,-0,9.4,-0C14.7,-0,18.9,4.2,18.9,9.4z" fill="url(#lg1)"/><g id="shape31" transform="translate(74.99,259.55)"><path d="M0,0M15.1,9.4C15.1,12.6,12.6,15.1,9.4,15.1C6.3,15.1,3.8,12.6,3.8,9.4C3.8,6.3,6.3,3.8,9.4,3.8C12.6,3.8,15.1,6.3,15.1,9.4z" fill="url(#lg1)"/><path stroke-width="3" stroke="url(#lg1)" d="M0,0M18.9,9.4C18.9,14.7,14.7,18.9,9.4,18.9C4.2,18.9,-0,14.7,-0,9.4C-0,4.2,4.2,-0,9.4,-0C14.7,-0,18.9,4.2,18.9,9.4z" fill="none"/></g><path id="shape32" transform="translate(74.99,311.55)" stroke-width="3" stroke="url(#lg1)" d="M0,0M18.9,9.4C18.9,14.7,14.7,18.9,9.4,18.9C4.2,18.9,-0,14.7,-0,9.4C-0,4.2,4.2,-0,9.4,-0C14.7,-0,18.9,4.2,18.9,9.4z" fill="none"/><path id="shape33" transform="translate(74.99,207.55)" stroke-width="3" stroke="url(#lg1)" d="M0,0M18.9,9.4C18.9,14.7,14.7,18.9,9.4,18.9C4.2,18.9,-0,14.7,-0,9.4C-0,4.2,4.2,-0,9.4,-0C14.7,-0,18.9,4.2,18.9,9.4z" fill="url(#lg1)"/><path id="shape34" transform="translate(329.39,369.56)" stroke-width="3" stroke="url(#lg1)" d="M0,0M18.9,9.4C18.9,14.7,14.7,18.9,9.4,18.9C4.2,18.9,-0,14.7,-0,9.4C-0,4.2,4.2,-0,9.4,-0C14.7,-0,18.9,4.2,18.9,9.4z" fill="none"/><g transform="translate(63.65,59.35)"><path id="shape35" stroke-width="0.25" stroke="#1d7ba4" d="M0,0L522.4,0L522.4,59.8L0,59.8L0,0z" fill="#2ca9e0"/><path id="shape36" transform="translate(-23.9,-8.37)" stroke-width="0.25" stroke="#1d7ba4" d="M0,0L47.8,0L47.8,47.8L0,47.8L0,0z" fill="#81bee7"/><path id="shape37" transform="translate(0,-19.42)" stroke-width="0.25" stroke="#2594c5" d="M0,0L38.8,0L38.8,38.8L0,38.8L0,0z" fill="#2ca9e0"/><path id="shape38" transform="translate(498.06,44.82)" stroke-width="0.25" stroke="#1d7ba4" d="M0,0L29.9,0L29.9,29.9L0,29.9L0,0z" fill="#acd1ed"/><text class="st4"><tspan class="st5" x="79.9" y="22.9">Battery Power Management System </tspan><tspan class="st5" x="198.9" y="50.9">QFD Analysis</tspan></text></g><path id="shape39" transform="translate(294.81,436.19)" stroke-width="3" stroke="url(#lg1)" d="M0,0M18.9,9.4C18.9,14.7,14.7,18.9,9.4,18.9C4.2,18.9,-0,14.7,-0,9.4C-0,4.2,4.2,-0,9.4,-0C14.7,-0,18.9,4.2,18.9,9.4z" fill="url(#lg1)"/><path id="shape40" transform="translate(329.39,436.19)" stroke-width="3" stroke="url(#lg1)" d="M0,0M18.9,9.4C18.9,14.7,14.7,18.9,9.4,18.9C4.2,18.9,-0,14.7,-0,9.4C-0,4.2,4.2,-0,9.4,-0C14.7,-0,18.9,4.2,18.9,9.4z" fill="url(#lg1)"/><path id="shape41" transform="translate(294.81,502.83)" stroke-width="3" stroke="url(#lg1)" d="M0,0M18.9,9.4C18.9,14.7,14.7,18.9,9.4,18.9C4.2,18.9,-0,14.7,-0,9.4C-0,4.2,4.2,-0,9.4,-0C14.7,-0,18.9,4.2,18.9,9.4z" fill="url(#lg1)"/><path id="shape42" transform="translate(329.39,502.83)" stroke-width="3" stroke="url(#lg1)" d="M0,0M18.9,9.4C18.9,14.7,14.7,18.9,9.4,18.9C4.2,18.9,-0,14.7,-0,9.4C-0,4.2,4.2,-0,9.4,-0C14.7,-0,18.9,4.2,18.9,9.4z" fill="url(#lg1)"/><path id="shape43" transform="translate(294.81,569.47)" stroke-width="3" stroke="url(#lg1)" d="M0,0M18.9,9.4C18.9,14.7,14.7,18.9,9.4,18.9C4.2,18.9,-0,14.7,-0,9.4C-0,4.2,4.2,-0,9.4,-0C14.7,-0,18.9,4.2,18.9,9.4z" fill="url(#lg1)"/><path id="shape44" transform="translate(329.39,569.47)" stroke-width="3" stroke="url(#lg1)" d="M0,0M18.9,9.4C18.9,14.7,14.7,18.9,9.4,18.9C4.2,18.9,-0,14.7,-0,9.4C-0,4.2,4.2,-0,9.4,-0C14.7,-0,18.9,4.2,18.9,9.4z" fill="url(#lg1)"/><g transform="translate(90.75,612)"><g id="shape45"><path stroke="#696969" d="M0,0L162.5,0L162.5,48L0,48L0,0z" fill="#a0d8ef"/><text class="st1"><tspan x="8.3" y="27.5">Summary</tspan></text></g><g><g id="shape46" transform="translate(162.52,0)"><path stroke="#696969" d="M0,0L34.6,0L34.6,48L0,48L0,0z" fill="#a0d8ef"/><text class="st1"><tspan x="13.3" y="27.5">4</tspan></text></g><g id="shape47" transform="translate(197.1,0)"><path stroke="#696969" d="M0,0L34.6,0L34.6,48L0,48L0,0z" fill="#a0d8ef"/><text class="st1"><tspan x="10.3" y="27.5">20</tspan></text></g><g id="shape48" transform="translate(231.67,0)"><path stroke="#696969" d="M0,0L34.6,0L34.6,48L0,48L0,0z" fill="#a0d8ef"/><text class="st1"><tspan x="10.3" y="27.5">16</tspan></text></g></g></g></g></svg>