<?xml version="1.0" encoding="UTF-8"?>
<!DOCTYPE svg PUBLIC "-//W3C//DTD SVG 1.1//EN" "http://www.w3.org/Graphics/SVG/1.1/DTD/svg11.dtd">
<svg version="1.1" xmlns="http://www.w3.org/2000/svg" xmlns:xlink="http://www.w3.org/1999/xlink" x="0" y="0" width="1024" height="768" viewBox="0, 0, 1024, 768">
  <defs>
    <clipPath id="Clip_1">
      <path d="M570,406.75 L966,406.75 L966,646.751 L570,646.751 z M768,414.751 C714.981,414.751 672,432.659 672,454.751 C636.654,454.751 608,472.659 608,494.751 C590.327,494.751 576,509.077 576,526.751 C576,544.424 590.327,558.751 608,558.751 C608,580.842 636.654,598.751 672,598.751 C672,620.842 714.981,638.751 768,638.751 C821.019,638.751 864,620.842 864,598.751 C899.346,598.751 928,580.842 928,558.751 C945.673,558.751 960,544.424 960,526.751 C960,509.077 945.673,494.751 928,494.751 C928,472.659 899.346,454.751 864,454.751 C864,432.659 821.019,414.751 768,414.75 z"/>
    </clipPath>
    <filter id="Shadow_2">
      <feGaussianBlur in="SourceAlpha" stdDeviation="2.5"/>
      <feOffset dx="0" dy="2" result="offsetblur"/>
      <feFlood flood-color="#000000"/>
      <feComposite in2="offsetblur" operator="in"/>
    </filter>
  </defs>
  <g id="Capa_2">
    <g>
      <path d="M0.5,0.5 L1024.5,0.5 L1024.5,768.5 L0.5,768.5 L0.5,0.5 z" fill="#FFFFFF"/>
      <path d="M0.5,0.5 L1024.5,0.5 L1024.5,768.5 L0.5,768.5 L0.5,0.5 z" fill-opacity="0" stroke="#000000" stroke-width="1"/>
    </g>
  </g>
  <g id="Capa_1">
    <g>
      <g>
        <path d="M768,414.75 C821.019,414.751 864,432.659 864,454.751 C899.346,454.751 928,472.659 928,494.751 C945.673,494.751 960,509.077 960,526.751 C960,544.424 945.673,558.751 928,558.751 C928,580.842 899.346,598.751 864,598.751 C864,620.842 821.019,638.751 768,638.751 C714.981,638.751 672,620.842 672,598.751 C636.654,598.751 608,580.842 608,558.751 C590.327,558.751 576,544.424 576,526.751 C576,509.077 590.327,494.751 608,494.751 C608,472.659 636.654,454.751 672,454.751 C672,432.659 714.981,414.751 768,414.751 z" clip-path="url(#Clip_1)" filter="url(#Shadow_2)" fill="rgba(0,0,0,0.75)"/>
        <path d="M576,526.751 C576,509.077 590.327,494.751 608,494.751 C608,472.659 636.654,454.751 672,454.751 C672,432.659 714.981,414.751 768,414.751 C821.019,414.751 864,432.659 864,454.751 C899.346,454.751 928,472.659 928,494.751 C945.673,494.751 960,509.077 960,526.751 C960,544.424 945.673,558.751 928,558.751 C928,580.842 899.346,598.751 864,598.751 C864,620.842 821.019,638.751 768,638.751 C714.981,638.751 672,620.842 672,598.751 C636.654,598.751 608,580.842 608,558.751 C590.327,558.751 576,544.424 576,526.751" fill="#ECECEC"/>
      </g>
      <path d="M682,128 L870,128 C875.523,128 880,132.477 880,138 L880,326 C880,331.523 875.523,336 870,336 L682,336 C676.477,336 672,331.523 672,326 L672,138 C672,132.477 676.477,128 682,128 z" fill="#CFCFCF"/>
      <g>
        <path d="M336.5,320.5 L400.5,160.5" fill-opacity="0" stroke="#000000" stroke-width="10"/>
        <path d="M400.5,160.5 L528.5,224.5" fill-opacity="0" stroke="#000000" stroke-width="10"/>
      </g>
      <path d="M336,352 C318.327,352 304,337.673 304,320 C304,302.327 318.327,288 336,288 C353.673,288 368,302.327 368,320 C368,337.673 353.673,352 336,352 z" fill="#000000"/>
      <g>
        <path d="M336.5,344.5 C323.245,344.5 312.5,333.755 312.5,320.5 C312.5,307.245 323.245,296.5 336.5,296.5 C349.755,296.5 360.5,307.245 360.5,320.5 C360.5,333.755 349.755,344.5 336.5,344.5 z" fill="#FFFFFF"/>
        <path d="M336.5,344.5 C323.245,344.5 312.5,333.755 312.5,320.5 C312.5,307.245 323.245,296.5 336.5,296.5 C349.755,296.5 360.5,307.245 360.5,320.5 C360.5,333.755 349.755,344.5 336.5,344.5 z" fill-opacity="0" stroke="#000000" stroke-width="1"/>
      </g>
      <text transform="matrix(1, 0, 0, 1, 336, 324)">
        <tspan x="-14.402" y="2" font-family="AndaleMono" font-size="24" fill="#000000">n1</tspan>
      </text>
      <path d="M400,192 C382.327,192 368,177.673 368,160 C368,142.327 382.327,128 400,128 C417.673,128 432,142.327 432,160 C432,177.673 417.673,192 400,192 z" fill="#000000"/>
      <g>
        <path d="M400.5,184.5 C387.245,184.5 376.5,173.755 376.5,160.5 C376.5,147.245 387.245,136.5 400.5,136.5 C413.755,136.5 424.5,147.245 424.5,160.5 C424.5,173.755 413.755,184.5 400.5,184.5 z" fill="#FFFFFF"/>
        <path d="M400.5,184.5 C387.245,184.5 376.5,173.755 376.5,160.5 C376.5,147.245 387.245,136.5 400.5,136.5 C413.755,136.5 424.5,147.245 424.5,160.5 C424.5,173.755 413.755,184.5 400.5,184.5 z" fill-opacity="0" stroke="#000000" stroke-width="1"/>
      </g>
      <text transform="matrix(1, 0, 0, 1, 400, 164)">
        <tspan x="-14.402" y="2" font-family="AndaleMono" font-size="24" fill="#000000">n2</tspan>
      </text>
      <g>
        <path d="M504.311,174.5 L579.311,174.5 C586.215,174.5 591.811,180.096 591.811,187 L591.811,262 C591.811,268.904 586.215,274.5 579.311,274.5 L504.311,274.5 C497.408,274.5 491.811,268.904 491.811,262 L491.811,187 C491.811,180.096 497.408,174.5 504.311,174.5 z" fill="#ECECEC"/>
        <path d="M504.311,174.5 L579.311,174.5 C586.215,174.5 591.811,180.096 591.811,187 L591.811,262 C591.811,268.904 586.215,274.5 579.311,274.5 L504.311,274.5 C497.408,274.5 491.811,268.904 491.811,262 L491.811,187 C491.811,180.096 497.408,174.5 504.311,174.5 z" fill-opacity="0" stroke="#000000" stroke-width="10"/>
      </g>
      <text transform="matrix(1, 0, 0, 1, 544, 224)">
        <tspan x="-14.402" y="6" font-family="AndaleMono" font-size="24" fill="#000000">n3</tspan>
      </text>
      <path d="M690.429,256 L862.429,256 C867.952,256 872.429,260.477 872.429,266 L872.429,318 C872.429,323.523 867.952,328 862.429,328 L690.429,328 C684.906,328 680.429,323.523 680.429,318 L680.429,266 C680.429,260.477 684.906,256 690.429,256 z" fill="#FF8000"/>
      <text transform="matrix(1, 0, 0, 1, 776.429, 292.5)">
        <tspan x="-75.612" y="3.5" font-family="AndaleMono" font-size="18" fill="#FFFFFF">Bitcoin-Daemon</tspan>
      </text>
      <path d="M690.429,136 L862.429,136 C867.952,136 872.429,140.477 872.429,146 L872.429,198 C872.429,203.523 867.952,208 862.429,208 L690.429,208 C684.906,208 680.429,203.523 680.429,198 L680.429,146 C680.429,140.477 684.906,136 690.429,136 z" fill="#0094FF"/>
      <text transform="matrix(1, 0, 0, 1, 776.429, 172.5)">
        <tspan x="-81.013" y="3.5" font-family="AndaleMono" font-size="18" fill="#FFFFFF">Electrum-Server</tspan>
      </text>
      <g>
        <path d="M608.487,185.172 L671.529,185.457" fill-opacity="0" stroke="#848484" stroke-width="3"/>
        <path d="M601.304,188.109 C599.671,186.462 599.683,183.802 601.331,182.169 C602.979,180.537 605.638,180.549 607.271,182.196 C608.903,183.844 608.891,186.503 607.244,188.136 C605.596,189.769 602.937,189.757 601.304,188.109" fill="#848484" fill-opacity="1" stroke="#848484" stroke-width="3" stroke-opacity="1"/>
        <path d="M671.529,185.457 L668.71,189.645 L679.929,185.495 L668.748,181.245 z" fill="#848484" fill-opacity="1" stroke="#848484" stroke-width="3" stroke-opacity="1"/>
      </g>
      <g>
        <path d="M768.5,445.1 L768.5,337.9" fill-opacity="0" stroke="#000000" stroke-width="3"/>
        <path d="M768.5,445.1 L764.3,442.3 L768.5,453.5 L772.7,442.3 z" fill="#000000" fill-opacity="1" stroke="#000000" stroke-width="3" stroke-opacity="1"/>
        <path d="M768.5,337.9 L772.7,340.7 L768.5,329.5 L764.3,340.7 z" fill="#000000" fill-opacity="1" stroke="#000000" stroke-width="3" stroke-opacity="1"/>
      </g>
      <g>
        <path d="M768.5,217.9 L768.5,247.1" fill-opacity="0" stroke="#848484" stroke-width="3"/>
        <path d="M768.5,217.9 L772.7,220.7 L768.5,209.5 L764.3,220.7 z" fill="#848484" fill-opacity="1" stroke="#848484" stroke-width="3" stroke-opacity="1"/>
        <path d="M768.5,247.1 L764.3,244.3 L768.5,255.5 L772.7,244.3 z" fill="#848484" fill-opacity="1" stroke="#848484" stroke-width="3" stroke-opacity="1"/>
      </g>
      <g>
        <path d="M596.557,160 C612.329,160 625.115,172.786 625.115,188.558 C625.05,194.915 623.021,201.306 618.944,206.247 L645.431,232.734 L638.165,240 L611.223,213.058 C606.766,215.777 601.738,216.984 596.557,217.115 C580.786,217.115 568,204.329 568,188.558 C568,172.786 580.786,160 596.558,160 z" fill="#EE4C44"/>
        <path d="M596.557,165.138 C609.492,165.138 619.977,175.623 619.977,188.558 C619.977,201.492 609.492,211.977 596.557,211.977 C583.623,211.977 573.138,201.492 573.138,188.558 C573.138,175.623 583.623,165.138 596.557,165.138 z" fill="#FFFFFF"/>
      </g>
      <g>
        <path d="M587.818,177.091 L604.182,177.091 C605.688,177.091 606.909,178.312 606.909,179.818 L606.909,196.182 C606.909,197.688 605.688,198.909 604.182,198.909 L587.818,198.909 C586.312,198.909 585.091,197.688 585.091,196.182 L585.091,179.818 C585.091,178.312 586.312,177.091 587.818,177.091" fill="#ECECEC"/>
        <path d="M604.182,176 C606.291,176 608,177.709 608,179.818 L608,196.182 C608,198.291 606.291,200 604.182,200 L587.818,200 C585.709,200 584,198.291 584,196.182 L584,179.818 C584,177.709 585.709,176 587.818,176 L604.182,176 z M604.182,178.182 L587.818,178.182 L587.488,178.215 C586.684,178.45 586.264,179 586.182,179.818 L586.182,196.182 C586.182,197.086 586.914,197.818 587.818,197.818 L604.182,197.818 C605.086,197.818 605.818,197.086 605.818,196.182 L605.818,179.818 C605.818,178.914 605.086,178.182 604.182,178.182 z" fill="#000000"/>
      </g>
      <text transform="matrix(1, 0, 0, 1, 764, 526.751)">
        <tspan x="-108.018" y="7.249" font-family="AndaleMono" font-size="24" fill="#000000">Bitcoin-Network</tspan>
      </text>
      <text transform="matrix(1, 0, 0, 1, 184, 347)">
        <tspan x="-79.213" y="-19.5" font-family="AndaleMono" font-size="24" fill="#000000">fc00:db8::1</tspan>
        <tspan x="-108.018" y="7.5" font-family="AndaleMono" font-size="24" fill="#000000">Electrum Client</tspan>
      </text>
      <text transform="matrix(1, 0, 0, 1, 541.311, 306.5)">
        <tspan x="-84" y="3.5" font-family="AndaleMono" font-size="24" fill="#000000">fc00:db9::1</tspan>
      </text>
      <text transform="matrix(1, 0, 0, 1, 248, 187)">
        <tspan x="-64.811" y="-19.5" font-family="AndaleMono" font-size="24" fill="#000000">fc00:?::1</tspan>
        <tspan x="-108.018" y="7.5" font-family="AndaleMono" font-size="24" fill="#000000">unknown Turpial</tspan>
      </text>
    </g>
  </g>
</svg>
