<?xml version="1.0" encoding="UTF-8"?>
<!DOCTYPE svg PUBLIC "-//W3C//DTD SVG 1.1//EN" "http://www.w3.org/Graphics/SVG/1.1/DTD/svg11.dtd">
<svg version="1.1" xmlns="http://www.w3.org/2000/svg" xmlns:xlink="http://www.w3.org/1999/xlink" x="0" y="0" width="1024" height="768" viewBox="0, 0, 1024, 768">
  <defs>
    <clipPath id="Clip_1">
      <path d="M322,192 L718,192 L718,432 L322,432 z M520,200 C466.981,200 424,217.909 424,240 C388.654,240 360,257.909 360,280 C342.327,280 328,294.327 328,312 C328,329.673 342.327,344 360,344 C360,366.091 388.654,384 424,384 C424,406.091 466.981,424 520,424 C573.019,424 616,406.091 616,384 C651.346,384 680,366.091 680,344 C697.673,344 712,329.673 712,312 C712,294.327 697.673,280 680,280 C680,257.909 651.346,240 616,240 C616,217.909 573.019,200 520,200 z"/>
    </clipPath>
    <filter id="Shadow_2">
      <feGaussianBlur in="SourceAlpha" stdDeviation="2.5"/>
      <feOffset dx="0" dy="2" result="offsetblur"/>
      <feFlood flood-color="#000000"/>
      <feComposite in2="offsetblur" operator="in"/>
    </filter>
  </defs>
  <g id="Capa_2">
    <g>
      <path d="M0.5,0.5 L1024.5,0.5 L1024.5,768.5 L0.5,768.5 L0.5,0.5 z" fill="#FFFFFF"/>
      <path d="M0.5,0.5 L1024.5,0.5 L1024.5,768.5 L0.5,768.5 L0.5,0.5 z" fill-opacity="0" stroke="#000000" stroke-width="1"/>
    </g>
  </g>
  <g id="Capa_1">
    <g>
      <path d="M744.5,208.5 L896.5,208.5 C918.591,208.5 936.5,226.409 936.5,248.5 L936.5,408.5 C936.5,430.591 918.591,448.5 896.5,448.5 L744.5,448.5 C722.409,448.5 704.5,430.591 704.5,408.5 L704.5,248.5 C704.5,226.409 722.409,208.5 744.5,208.5 z" fill="#FFFFFF"/>
      <path d="M744.5,208.5 L896.5,208.5 C918.591,208.5 936.5,226.409 936.5,248.5 L936.5,408.5 C936.5,430.591 918.591,448.5 896.5,448.5 L744.5,448.5 C722.409,448.5 704.5,430.591 704.5,408.5 L704.5,248.5 C704.5,226.409 722.409,208.5 744.5,208.5 z" fill-opacity="0" stroke="#000000" stroke-width="1" stroke-dasharray="10,7"/>
    </g>
    <path d="M576,576 L920,576 L920,607.36 L576,607.36 L576,576 z" fill="#FFFFFF"/>
    <path d="M576,639.96 L920,639.96 L920,672 L576,672 L576,639.96 z" fill="#FFFFFF"/>
    <path d="M576,671.32 L920,671.32 L920,702.68 L576,702.68 L576,671.32 z" fill="#D3D3D3"/>
    <path d="M576,606.68 L920,606.68 L920,640 L576,640 L576,606.68 z" fill="#D3D3D3"/>
    <g>
      <path d="M136.5,208.5 L288.5,208.5 C310.591,208.5 328.5,226.409 328.5,248.5 L328.5,408.5 C328.5,430.591 310.591,448.5 288.5,448.5 L136.5,448.5 C114.409,448.5 96.5,430.591 96.5,408.5 L96.5,248.5 C96.5,226.409 114.409,208.5 136.5,208.5 z" fill="#FFFFFF"/>
      <path d="M136.5,208.5 L288.5,208.5 C310.591,208.5 328.5,226.409 328.5,248.5 L328.5,408.5 C328.5,430.591 310.591,448.5 288.5,448.5 L136.5,448.5 C114.409,448.5 96.5,430.591 96.5,408.5 L96.5,248.5 C96.5,226.409 114.409,208.5 136.5,208.5 z" fill-opacity="0" stroke="#000000" stroke-width="1" stroke-dasharray="10,7"/>
    </g>
    <g>
      <path d="M520,200 C573.019,200 616,217.909 616,240 C651.346,240 680,257.909 680,280 C697.673,280 712,294.327 712,312 C712,329.673 697.673,344 680,344 C680,366.091 651.346,384 616,384 C616,406.091 573.019,424 520,424 C466.981,424 424,406.091 424,384 C388.654,384 360,366.091 360,344 C342.327,344 328,329.673 328,312 C328,294.327 342.327,280 360,280 C360,257.909 388.654,240 424,240 C424,217.909 466.981,200 520,200 z" clip-path="url(#Clip_1)" filter="url(#Shadow_2)" fill="rgba(0,0,0,0.75)"/>
      <path d="M328,312 C328,294.327 342.327,280 360,280 C360,257.909 388.654,240 424,240 C424,217.909 466.981,200 520,200 C573.019,200 616,217.909 616,240 C651.346,240 680,257.909 680,280 C697.673,280 712,294.327 712,312 C712,329.673 697.673,344 680,344 C680,366.091 651.346,384 616,384 C616,406.091 573.019,424 520,424 C466.981,424 424,406.091 424,384 C388.654,384 360,366.091 360,344 C342.327,344 328,329.673 328,312" fill="#ECECEC"/>
    </g>
    <g>
      <path d="M896.5,408.5 L832.5,248.5" fill-opacity="0" stroke="#000000" stroke-width="10"/>
      <path d="M832.5,248.5 L704.5,312.5" fill-opacity="0" stroke="#000000" stroke-width="10"/>
    </g>
    <g>
      <path d="M136.5,408.5 L200.5,248.5" fill-opacity="0" stroke="#000000" stroke-width="10"/>
      <path d="M200.5,248.5 L328.5,312.5" fill-opacity="0" stroke="#000000" stroke-width="10"/>
    </g>
    <text transform="matrix(1, 0, 0, 1, 212, 163)">
      <tspan x="-97.216" y="5" font-family="AndaleMono" font-size="18" fill="#000000">Colombia - America</tspan>
    </text>
    <text transform="matrix(1, 0, 0, 1, 824, 173)">
      <tspan x="-75.612" y="5" font-family="AndaleMono" font-size="18" fill="#000000">Spain - Europe</tspan>
    </text>
    <g>
      <path d="M136,440 C118.327,440 104,425.673 104,408 C104,390.327 118.327,376 136,376 C153.673,376 168,390.327 168,408 C168,425.673 153.673,440 136,440 z" fill="#000000"/>
      <g>
        <path d="M136.5,432.5 C123.245,432.5 112.5,421.755 112.5,408.5 C112.5,395.245 123.245,384.5 136.5,384.5 C149.755,384.5 160.5,395.245 160.5,408.5 C160.5,421.755 149.755,432.5 136.5,432.5 z" fill="#FFFFFF"/>
        <path d="M136.5,432.5 C123.245,432.5 112.5,421.755 112.5,408.5 C112.5,395.245 123.245,384.5 136.5,384.5 C149.755,384.5 160.5,395.245 160.5,408.5 C160.5,421.755 149.755,432.5 136.5,432.5 z" fill-opacity="0" stroke="#000000" stroke-width="1"/>
      </g>
      <text transform="matrix(1, 0, 0, 1, 136, 408)">
        <tspan x="-7.201" y="6" font-family="AndaleMono" font-size="24" fill="#000000">A</tspan>
      </text>
    </g>
    <g>
      <path d="M328,344 C310.327,344 296,329.673 296,312 C296,294.327 310.327,280 328,280 C345.673,280 360,294.327 360,312 C360,329.673 345.673,344 328,344 z" fill="#000000"/>
      <g>
        <path d="M328.5,336.5 C315.245,336.5 304.5,325.755 304.5,312.5 C304.5,299.245 315.245,288.5 328.5,288.5 C341.755,288.5 352.5,299.245 352.5,312.5 C352.5,325.755 341.755,336.5 328.5,336.5 z" fill="#FFFFFF"/>
        <path d="M328.5,336.5 C315.245,336.5 304.5,325.755 304.5,312.5 C304.5,299.245 315.245,288.5 328.5,288.5 C341.755,288.5 352.5,299.245 352.5,312.5 C352.5,325.755 341.755,336.5 328.5,336.5 z" fill-opacity="0" stroke="#000000" stroke-width="1"/>
      </g>
      <text transform="matrix(1, 0, 0, 1, 328.448, 312)">
        <tspan x="-7.201" y="6" font-family="AndaleMono" font-size="24" fill="#000000">C</tspan>
      </text>
    </g>
    <g>
      <path d="M200,280 C182.327,280 168,265.673 168,248 C168,230.327 182.327,216 200,216 C217.673,216 232,230.327 232,248 C232,265.673 217.673,280 200,280 z" fill="#000000"/>
      <g>
        <path d="M200.5,272.5 C187.245,272.5 176.5,261.755 176.5,248.5 C176.5,235.245 187.245,224.5 200.5,224.5 C213.755,224.5 224.5,235.245 224.5,248.5 C224.5,261.755 213.755,272.5 200.5,272.5 z" fill="#FFFFFF"/>
        <path d="M200.5,272.5 C187.245,272.5 176.5,261.755 176.5,248.5 C176.5,235.245 187.245,224.5 200.5,224.5 C213.755,224.5 224.5,235.245 224.5,248.5 C224.5,261.755 213.755,272.5 200.5,272.5 z" fill-opacity="0" stroke="#000000" stroke-width="1"/>
      </g>
      <text transform="matrix(1, 0, 0, 1, 200.004, 248)">
        <tspan x="-7.201" y="6" font-family="AndaleMono" font-size="24" fill="#000000">B</tspan>
      </text>
    </g>
    <g>
      <path d="M896,440 C913.673,440 928,425.673 928,408 C928,390.327 913.673,376 896,376 C878.327,376 864,390.327 864,408 C864,425.673 878.327,440 896,440 z" fill="#000000"/>
      <g>
        <path d="M896.5,432.5 C909.755,432.5 920.5,421.755 920.5,408.5 C920.5,395.245 909.755,384.5 896.5,384.5 C883.245,384.5 872.5,395.245 872.5,408.5 C872.5,421.755 883.245,432.5 896.5,432.5 z" fill="#FFFFFF"/>
        <path d="M896.5,432.5 C909.755,432.5 920.5,421.755 920.5,408.5 C920.5,395.245 909.755,384.5 896.5,384.5 C883.245,384.5 872.5,395.245 872.5,408.5 C872.5,421.755 883.245,432.5 896.5,432.5 z" fill-opacity="0" stroke="#000000" stroke-width="1"/>
      </g>
      <text transform="matrix(1, 0, 0, 1, 896, 408)">
        <tspan x="-7.201" y="6" font-family="AndaleMono" font-size="24" fill="#000000">A</tspan>
      </text>
    </g>
    <g>
      <path d="M712,344 C729.673,344 744,329.673 744,312 C744,294.327 729.673,280 712,280 C694.327,280 680,294.327 680,312 C680,329.673 694.327,344 712,344 z" fill="#000000"/>
      <g>
        <path d="M712.5,336.5 C725.755,336.5 736.5,325.755 736.5,312.5 C736.5,299.245 725.755,288.5 712.5,288.5 C699.245,288.5 688.5,299.245 688.5,312.5 C688.5,325.755 699.245,336.5 712.5,336.5 z" fill="#FFFFFF"/>
        <path d="M712.5,336.5 C725.755,336.5 736.5,325.755 736.5,312.5 C736.5,299.245 725.755,288.5 712.5,288.5 C699.245,288.5 688.5,299.245 688.5,312.5 C688.5,325.755 699.245,336.5 712.5,336.5 z" fill-opacity="0" stroke="#000000" stroke-width="1"/>
      </g>
      <text transform="matrix(1, 0, 0, 1, 711.552, 312)">
        <tspan x="-7.201" y="6" font-family="AndaleMono" font-size="24" fill="#000000">C</tspan>
      </text>
    </g>
    <g>
      <path d="M840,280 C857.673,280 872,265.673 872,248 C872,230.327 857.673,216 840,216 C822.327,216 808,230.327 808,248 C808,265.673 822.327,280 840,280 z" fill="#000000"/>
      <g>
        <path d="M840.5,272.5 C853.755,272.5 864.5,261.755 864.5,248.5 C864.5,235.245 853.755,224.5 840.5,224.5 C827.245,224.5 816.5,235.245 816.5,248.5 C816.5,261.755 827.245,272.5 840.5,272.5 z" fill="#FFFFFF"/>
        <path d="M840.5,272.5 C853.755,272.5 864.5,261.755 864.5,248.5 C864.5,235.245 853.755,224.5 840.5,224.5 C827.245,224.5 816.5,235.245 816.5,248.5 C816.5,261.755 827.245,272.5 840.5,272.5 z" fill-opacity="0" stroke="#000000" stroke-width="1"/>
      </g>
      <text transform="matrix(1, 0, 0, 1, 839.996, 248)">
        <tspan x="-7.201" y="6" font-family="AndaleMono" font-size="24" fill="#000000">B</tspan>
      </text>
    </g>
    <text transform="matrix(1, 0, 0, 1, 520, 311)">
      <tspan x="-57.609" y="7" font-family="AndaleMono" font-size="24" fill="#000000">internet</tspan>
    </text>
    <text transform="matrix(1, 0, 0, 1, 608, 591.68)">
      <tspan x="-21.604" y="1" font-family="AndaleMono" font-size="18" fill="#000000">Node</tspan>
    </text>
    <text transform="matrix(1, 0, 0, 1, 684, 591.34)">
      <tspan x="-21.604" y="0.66" font-family="AndaleMono" font-size="18" fill="#000000">Type</tspan>
    </text>
    <text transform="matrix(1, 0, 0, 1, 764, 591.34)">
      <tspan x="-21.604" y="0.66" font-family="AndaleMono" font-size="18" fill="#000000">Nets</tspan>
    </text>
    <text transform="matrix(1, 0, 0, 1, 608.387, 631)">
      <tspan x="-5.401" y="1" font-family="AndaleMono" font-size="18" fill="#000000">A</tspan>
    </text>
    <path d="M664.5,600.5 L704.5,600.5" fill-opacity="0" stroke="#000000" stroke-width="1"/>
    <text transform="matrix(1, 0, 0, 1, 608.004, 663)">
      <tspan x="-5.401" y="1" font-family="AndaleMono" font-size="18" fill="#000000">B</tspan>
    </text>
    <text transform="matrix(1, 0, 0, 1, 608.448, 695)">
      <tspan x="-5.401" y="1" font-family="AndaleMono" font-size="18" fill="#000000">C</tspan>
    </text>
    <text transform="matrix(1, 0, 0, 1, 684, 626.36)">
      <tspan x="-29.405" y="1.32" font-family="AndaleMono" font-size="14" fill="#000000">torrent</tspan>
    </text>
    <text transform="matrix(1, 0, 0, 1, 764, 626.36)">
      <tspan x="-28" y="1.32" font-family="AndaleMono" font-size="14" fill="#000000">Locha</tspan>
    </text>
    <text transform="matrix(1, 0, 0, 1, 684, 658.36)">
      <tspan x="-33.605" y="1.32" font-family="AndaleMono" font-size="14" fill="#000000">only hop</tspan>
    </text>
    <text transform="matrix(1, 0, 0, 1, 684, 691)">
      <tspan x="-16.803" y="1.32" font-family="AndaleMono" font-size="14" fill="#000000">exit</tspan>
    </text>
    <text transform="matrix(1, 0, 0, 1, 764, 658.36)">
      <tspan x="-28" y="1.32" font-family="AndaleMono" font-size="14" fill="#000000">Locha</tspan>
    </text>
    <text transform="matrix(1, 0, 0, 1, 828, 691)">
      <tspan x="-92" y="1.32" font-family="AndaleMono" font-size="14" fill="#000000">Locha, Internet</tspan>
    </text>
    <path d="M576.5,576.5 L576.5,703.18" fill-opacity="0" stroke="#000000" stroke-width="1"/>
    <path d="M576.5,576.5 L920.5,576.5" fill-opacity="0" stroke="#000000" stroke-width="1"/>
    <path d="M744.5,600.5 L784.5,600.5" fill-opacity="0" stroke="#000000" stroke-width="1"/>
    <path d="M592.5,600.5 L624.5,600.5" fill-opacity="0" stroke="#000000" stroke-width="1"/>
    <path d="M576.5,703.18 L920.5,703.18" fill-opacity="0" stroke="#000000" stroke-width="1"/>
    <path d="M920.5,703.18 L920.5,576.5" fill-opacity="0" stroke="#000000" stroke-width="1"/>
  </g>
</svg>
