<?xml version="1.0" encoding="UTF-8"?>
<!DOCTYPE svg PUBLIC "-//W3C//DTD SVG 1.1//EN" "http://www.w3.org/Graphics/SVG/1.1/DTD/svg11.dtd">
<svg version="1.1" xmlns="http://www.w3.org/2000/svg" xmlns:xlink="http://www.w3.org/1999/xlink" x="0" y="0" width="1900" height="1080" viewBox="0, 0, 1900, 1080">
  <defs>
    <clipPath id="Clip_1">
      <path d="M1002.175,592.26 L1686.149,592.26 L1686.149,1000.318 L1002.175,1000.318 z M1375.776,601.669 L1376.044,601.688 L1380.144,602.038 L1380.377,602.061 L1375.776,601.669 z M1391.6,603.259 L1392.216,603.332 L1396.161,603.843 L1396.745,603.925 L1391.6,603.259 z M1406.701,605.439 L1407.735,605.608 L1411.502,606.272 L1412.494,606.459 L1406.701,605.439 z M1421.023,608.165 L1422.514,608.483 L1426.084,609.291 L1427.521,609.635 L1421.023,608.165 z M1434.505,611.395 L1436.47,611.92 L1439.821,612.863 L1441.708,613.423 L1434.505,611.395 z M1447.106,615.095 L1449.519,615.885 L1452.63,616.955 L1454.94,617.789 L1447.106,615.095 z M1458.764,619.226 L1461.576,620.343 L1464.425,621.53 L1467.106,622.701 L1458.764,619.226 z M1469.671,623.875 L1469.916,623.988 L1472.556,625.257 L1475.123,626.554 L1477.616,627.875 L1477.836,627.998 L1469.671,623.875 z M1479.544,628.95 L1480.034,629.222 L1482.375,630.594 L1484.639,631.99 L1486.823,633.41 L1487.251,633.703 L1479.544,628.95 z M1197.668,636.234 L1195.503,637.895 L1195.613,637.806 L1197.552,636.318 L1197.668,636.234 z M1488.259,634.395 L1488.927,634.853 L1490.949,636.318 L1492.888,637.805 L1494.743,639.314 L1495.304,639.799 L1488.259,634.395 z M1190.706,642.026 L1188.353,644.346 L1188.714,643.964 L1190.307,642.394 L1190.706,642.026 z M1495.749,640.184 L1496.511,640.843 L1498.191,642.392 L1499.711,643.889 L1500.042,644.238 L1501.119,645.381 L1501.74,646.088 L1495.749,640.184 z M1502.109,646.508 L1502.528,646.985 L1503.848,648.61 L1505.074,650.253 L1505.407,650.742 L1502.109,646.508 z M1506.141,651.818 L1506.206,651.913 L1507.241,653.59 L1507.297,653.69 L1506.141,651.818 z M1522.128,670.688 L1522.234,670.693 L1525.057,670.872 L1525.152,670.879 L1522.128,670.688 z M1532.983,671.621 L1533.396,671.667 L1536.129,672.017 L1536.512,672.072 L1532.983,671.621 z M1543.422,673.177 L1544.177,673.311 L1546.807,673.822 L1547.528,673.975 L1543.422,673.177 z M1553.394,675.309 L1554.523,675.587 L1557.034,676.251 L1558.122,676.559 L1553.394,675.309 z M1562.86,677.977 L1564.376,678.462 L1566.755,679.27 L1568.217,679.795 L1562.86,677.977 z M1571.788,681.141 L1573.68,681.899 L1575.913,682.842 L1577.733,683.651 L1571.788,681.141 z M1580.207,684.799 L1580.264,684.825 L1582.379,685.864 L1584.453,686.934 L1586.484,688.033 L1586.535,688.063 L1580.207,684.799 z M1588.185,689 L1588.472,689.163 L1590.417,690.321 L1592.316,691.509 L1594.17,692.724 L1594.432,692.904 L1588.185,689 z M1595.494,693.634 L1595.977,693.967 L1597.737,695.236 L1599.448,696.532 L1601.11,697.854 L1601.541,698.214 L1595.494,693.634 z M1602.091,698.674 L1602.722,699.201 L1604.282,700.572 L1605.789,701.967 L1607.204,703.346 L1607.455,703.604 L1607.765,703.924 L1602.091,698.674 z M1607.96,704.125 L1608.49,704.672 L1609.825,706.123 L1611.116,707.609 L1612.352,709.117 L1612.775,709.665 L1607.96,704.125 z M1613.248,710.28 L1613.531,710.646 L1614.652,712.196 L1615.714,713.766 L1616.717,715.355 L1616.943,715.741 L1613.248,710.28 z M1069.805,718.729 L1068.949,720.45 L1068.968,720.409 L1069.786,718.765 L1069.805,718.729 z M1617.54,716.761 L1617.659,716.963 L1618.539,718.588 L1619.357,720.232 L1620.111,721.892 L1620.2,722.107 L1617.54,716.761 z M1067.04,725.054 L1066.223,727.551 L1066.339,727.147 L1066.898,725.439 L1067.04,725.054 z M1620.789,723.538 L1620.802,723.569 L1621.427,725.262 L1621.986,726.97 L1622.479,728.693 L1622.488,728.732 L1620.789,723.538 z M1065.223,731.582 L1064.681,734.927 L1064.779,734.123 L1065.065,732.359 L1065.223,731.582 z M1622.96,730.708 L1623.259,732.182 L1623.546,733.946 L1623.73,735.458 L1622.96,730.708 z M1639.924,742.645 L1640.155,742.711 L1641.469,743.12 L1641.685,743.192 L1639.924,742.645 z M1644.729,744.296 L1645.328,744.532 L1646.583,745.063 L1647.159,745.323 L1644.729,744.296 z M1649.294,746.34 L1650.254,746.831 L1651.444,747.478 L1652.373,748.012 L1649.294,746.34 z M1653.687,748.802 L1653.77,748.853 L1654.906,749.581 L1656.023,750.336 L1657.12,751.116 L1657.196,751.173 L1653.687,748.802 z M1657.926,751.719 L1658.198,751.922 L1659.255,752.753 L1660.292,753.609 L1661.307,754.488 L1661.557,754.715 L1657.926,751.719 z M1661.869,754.998 L1662.3,755.391 L1663.267,756.313 L1664.135,757.182 L1664.981,758.072 L1665.369,758.498 L1661.869,754.998 z M1665.652,758.81 L1665.88,759.061 L1666.759,760.075 L1667.614,761.112 L1668.445,762.169 L1668.647,762.439 L1665.652,758.81 z M1669.195,763.172 L1669.251,763.247 L1670.031,764.344 L1670.786,765.461 L1671.514,766.596 L1671.564,766.679 L1669.195,763.172 z M1672.356,767.996 L1672.889,768.923 L1673.536,770.113 L1674.027,771.073 L1672.356,767.996 z M1675.044,773.208 L1675.304,773.784 L1675.835,775.039 L1676.071,775.637 L1675.044,773.208 z M1677.174,778.682 L1677.247,778.897 L1677.656,780.212 L1677.722,780.444 L1677.174,778.682 z M1010.603,812.136 L1011.151,813.899 L1011.077,813.681 L1010.668,812.366 L1010.603,812.136 z M1012.253,816.94 L1013.282,819.373 L1013.021,818.794 L1012.49,817.539 L1012.253,816.94 z M1014.298,821.505 L1015.969,824.582 L1015.435,823.655 L1014.789,822.465 L1014.298,821.505 z M1016.761,825.9 L1019.13,829.407 L1019.074,829.331 L1018.294,828.234 L1017.539,827.117 L1016.811,825.981 L1016.761,825.9 z M1019.677,830.138 L1022.672,833.767 L1022.445,833.517 L1021.566,832.503 L1020.711,831.466 L1019.88,830.409 L1019.677,830.138 z M1022.956,834.08 L1026.456,837.58 L1026.024,837.187 L1025.057,836.265 L1024.189,835.396 L1023.344,834.506 L1022.956,834.08 z M1026.767,837.862 L1030.397,840.858 L1030.127,840.656 L1029.069,839.825 L1028.033,838.969 L1027.017,838.09 L1026.767,837.862 z M1031.13,841.406 L1034.636,843.775 L1034.554,843.725 L1033.419,842.997 L1032.302,842.242 L1031.204,841.462 L1031.13,841.406 z M1035.954,844.567 L1039.032,846.239 L1038.071,845.747 L1036.881,845.1 L1035.954,844.567 z M1041.165,847.254 L1043.595,848.282 L1042.997,848.046 L1041.741,847.515 L1041.165,847.254 z M1046.636,849.384 L1048.403,849.933 L1048.17,849.867 L1046.855,849.458 L1046.636,849.384 z M1623.644,857.651 L1623.546,858.455 L1623.259,860.219 L1623.101,860.997 L1623.644,857.651 z M1064.594,857.119 L1065.365,861.869 L1065.065,860.396 L1064.779,858.631 L1064.594,857.119 z M1622.101,865.027 L1621.986,865.431 L1621.427,867.139 L1621.285,867.524 L1622.101,865.027 z M1065.837,863.846 L1067.536,869.04 L1067.523,869.009 L1066.898,867.316 L1066.339,865.607 L1065.846,863.884 L1065.837,863.846 z M1619.377,872.124 L1619.357,872.169 L1618.539,873.813 L1618.52,873.849 L1619.377,872.124 z M1068.125,870.47 L1070.784,875.817 L1070.666,875.615 L1069.786,873.99 L1068.968,872.346 L1068.213,870.686 L1068.125,870.47 z M1071.381,876.836 L1075.076,882.298 L1074.794,881.931 L1073.672,880.382 L1072.61,878.812 L1071.608,877.223 L1071.381,876.836 z M1075.55,882.912 L1080.365,888.454 L1079.834,887.906 L1078.5,886.455 L1077.209,884.969 L1075.973,883.461 L1075.55,882.912 z M1080.558,888.653 L1086.234,893.904 L1085.603,893.377 L1084.043,892.005 L1082.535,890.611 L1081.123,889.234 L1080.851,888.955 L1080.558,888.653 z M1086.784,894.364 L1092.829,898.943 L1092.348,898.611 L1090.588,897.342 L1088.877,896.046 L1087.215,894.724 L1086.784,894.364 z M1093.895,899.675 L1100.139,903.578 L1099.852,903.415 L1097.908,902.256 L1096.009,901.069 L1094.155,899.854 L1093.895,899.675 z M1101.789,904.515 L1108.118,907.779 L1108.061,907.753 L1105.946,906.714 L1103.872,905.644 L1101.841,904.544 L1101.789,904.515 z M1110.594,908.928 L1116.533,911.435 L1114.645,910.679 L1112.411,909.736 L1110.594,908.928 z M1120.107,912.783 L1125.464,914.601 L1123.949,914.116 L1121.569,913.308 L1120.107,912.783 z M1130.201,916.019 L1134.931,917.269 L1133.802,916.991 L1131.29,916.327 L1130.201,916.019 z M1140.795,918.603 L1144.903,919.401 L1144.147,919.267 L1141.518,918.756 L1140.795,918.603 z M1151.812,920.505 L1155.342,920.956 L1154.929,920.91 L1152.196,920.561 L1151.812,920.505 z M1163.179,921.699 L1166.203,921.891 L1166.091,921.885 L1163.268,921.706 L1163.179,921.699 z M1181.028,938.889 L1182.184,940.761 L1182.119,940.664 L1181.083,938.987 L1181.028,938.889 z M1182.917,941.835 L1186.214,946.069 L1185.797,945.593 L1184.477,943.968 L1183.25,942.325 L1182.917,941.835 z M1499.975,948.23 L1499.611,948.614 L1498.017,950.184 L1497.62,950.55 L1499.975,948.23 z M1186.585,946.49 L1192.575,952.393 L1191.813,951.735 L1190.134,950.186 L1188.613,948.688 L1188.285,948.343 L1187.205,947.196 L1186.585,946.49 z M1492.824,954.681 L1492.712,954.772 L1490.773,956.26 L1490.658,956.343 L1492.824,954.681 z M1193.021,952.779 L1200.066,958.184 L1199.397,957.725 L1197.375,956.26 L1195.436,954.772 L1193.582,953.264 L1193.021,952.779 z M1201.073,958.874 L1208.781,963.628 L1208.291,963.355 L1205.949,961.984 L1203.686,960.587 L1201.501,959.168 L1201.073,958.874 z M1210.489,964.58 L1218.653,968.702 L1218.408,968.59 L1215.769,967.32 L1213.202,966.024 L1210.709,964.703 L1210.489,964.58 z M1221.217,969.875 L1229.562,973.353 L1226.749,972.235 L1223.9,971.048 L1221.217,969.875 z M1233.384,974.789 L1241.219,977.483 L1238.806,976.693 L1235.695,975.623 L1233.384,974.789 z M1246.615,979.155 L1253.819,981.183 L1251.854,980.658 L1248.504,979.714 L1246.615,979.155 z M1260.805,982.943 L1267.308,984.414 L1265.811,984.095 L1262.241,983.287 L1260.805,982.943 z M1275.828,986.118 L1281.63,987.14 L1280.59,986.969 L1276.823,986.305 L1275.828,986.118 z M1291.579,988.652 L1296.733,989.32 L1296.108,989.246 L1292.164,988.735 L1291.579,988.652 z M1307.948,990.517 L1312.549,990.909 L1312.281,990.889 L1308.181,990.54 L1307.948,990.517 z M1344.074,600.26 L1341.903,600.265 L1337.582,600.311 L1333.288,600.402 L1329.023,600.537 L1324.789,600.716 L1320.586,600.938 L1316.416,601.204 L1312.281,601.512 L1308.181,601.861 L1304.118,602.252 L1300.093,602.683 L1296.108,603.155 L1292.164,603.666 L1288.262,604.216 L1284.404,604.805 L1280.59,605.432 L1276.823,606.096 L1273.103,606.796 L1269.432,607.533 L1265.811,608.306 L1262.241,609.114 L1258.724,609.957 L1255.262,610.833 L1251.854,611.743 L1248.504,612.687 L1245.211,613.662 L1241.978,614.669 L1238.806,615.708 L1235.695,616.778 L1232.648,617.878 L1229.666,619.007 L1226.749,620.166 L1223.9,621.353 L1221.119,622.568 L1218.408,623.811 L1215.769,625.081 L1213.202,626.377 L1210.709,627.699 L1208.291,629.046 L1205.949,630.418 L1203.686,631.814 L1201.501,633.233 L1199.397,634.676 L1197.375,636.141 L1195.436,637.629 L1193.582,639.138 L1191.813,640.667 L1190.131,642.217 L1188.537,643.787 L1187.033,645.376 L1185.621,646.984 L1184.3,648.609 L1183.074,650.253 L1181.942,651.913 L1180.906,653.59 L1179.969,655.283 L1179.13,656.991 L1178.391,658.714 L1177.754,660.452 L1177.22,662.203 L1176.79,663.967 L1176.465,665.744 L1176.248,667.533 L1176.138,669.334 L1176.125,670.239 L1174.677,670.244 L1171.797,670.29 L1168.934,670.38 L1166.091,670.516 L1163.268,670.695 L1160.466,670.917 L1157.686,671.183 L1154.929,671.491 L1152.196,671.84 L1149.487,672.231 L1146.804,672.662 L1144.147,673.134 L1141.518,673.645 L1138.917,674.195 L1136.344,674.784 L1133.802,675.411 L1131.29,676.074 L1128.81,676.775 L1126.363,677.512 L1123.949,678.285 L1121.569,679.093 L1119.225,679.935 L1116.916,680.812 L1114.645,681.722 L1112.411,682.665 L1110.216,683.641 L1108.061,684.648 L1105.946,685.687 L1103.872,686.757 L1101.841,687.857 L1099.852,688.986 L1097.908,690.145 L1096.008,691.332 L1094.155,692.547 L1092.347,693.79 L1090.588,695.06 L1088.876,696.356 L1087.214,697.677 L1085.602,699.025 L1084.042,700.396 L1082.532,701.793 L1081.076,703.212 L1079.673,704.655 L1078.325,706.12 L1077.033,707.608 L1075.796,709.116 L1074.617,710.646 L1073.496,712.196 L1072.433,713.766 L1071.431,715.355 L1070.489,716.963 L1069.609,718.588 L1068.791,720.232 L1068.037,721.892 L1067.346,723.569 L1066.721,725.262 L1066.162,726.97 L1065.669,728.693 L1065.245,730.431 L1064.889,732.182 L1064.602,733.946 L1064.385,735.723 L1064.24,737.512 L1064.167,739.313 L1064.158,740.217 L1064.158,740.217 L1063.435,740.222 L1061.994,740.258 L1060.563,740.331 L1059.141,740.439 L1057.73,740.583 L1056.329,740.76 L1054.939,740.973 L1053.561,741.219 L1052.194,741.499 L1050.84,741.811 L1049.498,742.156 L1048.17,742.534 L1046.855,742.943 L1045.554,743.383 L1044.268,743.854 L1042.997,744.355 L1041.741,744.886 L1040.501,745.447 L1039.277,746.036 L1038.071,746.655 L1036.881,747.301 L1035.708,747.975 L1034.554,748.676 L1033.418,749.404 L1032.302,750.159 L1031.204,750.939 L1030.126,751.745 L1029.069,752.576 L1028.032,753.432 L1027.016,754.312 L1026.022,755.216 L1025.05,756.142 L1024.1,757.092 L1023.173,758.064 L1022.27,759.058 L1021.39,760.074 L1020.534,761.111 L1019.703,762.169 L1018.897,763.246 L1018.117,764.344 L1017.362,765.461 L1016.634,766.596 L1015.933,767.751 L1015.259,768.923 L1014.612,770.113 L1013.994,771.32 L1013.405,772.543 L1012.844,773.783 L1012.313,775.039 L1011.812,776.31 L1011.341,777.597 L1010.901,778.897 L1010.492,780.212 L1010.114,781.54 L1009.769,782.882 L1009.457,784.236 L1009.177,785.603 L1008.931,786.981 L1008.718,788.371 L1008.54,789.772 L1008.397,791.184 L1008.289,792.605 L1008.216,794.036 L1008.18,795.477 L1008.175,796.201 L1008.18,796.924 L1008.216,798.365 L1008.289,799.796 L1008.397,801.218 L1008.54,802.629 L1008.718,804.03 L1008.931,805.42 L1009.177,806.798 L1009.457,808.165 L1009.769,809.519 L1010.114,810.861 L1010.492,812.189 L1010.901,813.504 L1011.341,814.805 L1011.812,816.091 L1012.313,817.362 L1012.844,818.618 L1013.405,819.858 L1013.994,821.081 L1014.612,822.288 L1015.259,823.478 L1015.933,824.651 L1016.634,825.805 L1017.362,826.941 L1018.117,828.057 L1018.897,829.155 L1019.703,830.233 L1020.535,831.29 L1021.391,832.328 L1022.271,833.345 L1023.18,834.344 L1024.188,835.398 L1025.219,836.429 L1026.197,837.361 L1027.192,838.265 L1028.208,839.145 L1029.245,840.001 L1030.303,840.832 L1031.381,841.638 L1032.478,842.419 L1033.595,843.173 L1034.731,843.901 L1035.885,844.603 L1037.057,845.277 L1038.247,845.923 L1039.454,846.541 L1040.678,847.131 L1041.918,847.692 L1043.174,848.223 L1044.445,848.724 L1045.731,849.195 L1047.032,849.635 L1048.347,850.044 L1049.675,850.421 L1051.016,850.766 L1052.371,851.079 L1053.737,851.359 L1055.116,851.605 L1056.506,851.817 L1057.907,851.995 L1059.318,852.139 L1060.74,852.247 L1062.171,852.319 L1063.611,852.356 L1064.16,852.359 L1064.167,853.088 L1064.24,854.889 L1064.385,856.678 L1064.602,858.455 L1064.889,860.219 L1065.245,861.97 L1065.669,863.708 L1066.162,865.431 L1066.721,867.139 L1067.346,868.832 L1068.037,870.509 L1068.791,872.169 L1069.609,873.813 L1070.489,875.439 L1071.431,877.046 L1072.433,878.635 L1073.496,880.205 L1074.617,881.755 L1075.797,883.285 L1077.033,884.794 L1078.328,886.283 L1079.689,887.763 L1080.388,888.479 C1080.482,888.588 1080.431,888.535 1080.542,888.637 L1080.851,888.955 L1081.096,889.207 L1081.123,889.234 L1081.234,889.347 L1082.706,890.783 L1084.217,892.18 L1085.779,893.553 L1087.391,894.9 L1089.053,896.222 L1090.764,897.518 L1092.524,898.788 L1094.331,900.031 L1096.185,901.246 L1098.085,902.433 L1100.029,903.592 L1102.017,904.721 L1104.049,905.821 L1106.122,906.891 L1108.237,907.929 L1110.393,908.937 L1112.588,909.912 L1114.822,910.856 L1117.093,911.766 L1119.401,912.642 L1121.746,913.485 L1124.126,914.293 L1126.54,915.066 L1128.987,915.803 L1131.467,916.503 L1133.979,917.167 L1136.521,917.794 L1139.093,918.383 L1141.695,918.933 L1144.324,919.444 L1146.981,919.915 L1149.664,920.347 L1152.373,920.738 L1155.106,921.087 L1157.863,921.395 L1160.643,921.66 L1163.445,921.883 L1166.267,922.062 L1169.111,922.197 L1171.973,922.288 L1174.854,922.334 L1176.127,922.339 L1176.138,923.067 L1176.248,924.868 L1176.465,926.657 L1176.79,928.434 L1177.22,930.198 L1177.754,931.949 L1178.391,933.687 L1179.13,935.41 L1179.969,937.118 L1180.906,938.811 L1181.942,940.488 L1183.074,942.148 L1184.301,943.792 L1185.622,945.419 L1186.383,946.285 C1186.41,946.319 1186.396,946.304 1186.424,946.332 L1187.038,947.031 L1188.285,948.343 L1188.573,948.649 L1188.613,948.688 L1188.678,948.756 L1190.305,950.358 L1191.988,951.91 L1193.758,953.44 L1195.613,954.949 L1197.552,956.436 L1199.574,957.902 L1201.678,959.344 L1203.862,960.764 L1206.126,962.16 L1208.467,963.532 L1210.885,964.879 L1213.378,966.201 L1215.945,967.497 L1218.585,968.767 L1221.296,970.01 L1224.076,971.225 L1226.926,972.412 L1229.842,973.57 L1232.825,974.7 L1235.872,975.8 L1238.982,976.869 L1242.155,977.908 L1245.388,978.916 L1248.681,979.891 L1252.031,980.834 L1255.438,981.745 L1258.901,982.621 L1262.418,983.464 L1265.987,984.272 L1269.608,985.044 L1273.279,985.781 L1276.999,986.482 L1280.767,987.146 L1284.58,987.773 L1288.439,988.361 L1292.341,988.912 L1296.285,989.423 L1300.27,989.894 L1304.295,990.326 L1308.358,990.716 L1312.458,991.066 L1316.593,991.374 L1320.763,991.639 L1324.965,991.862 L1329.2,992.041 L1333.465,992.176 L1337.759,992.267 L1342.08,992.312 L1344.251,992.318 L1346.421,992.312 L1350.743,992.267 L1355.037,992.176 L1359.302,992.041 L1363.536,991.862 L1367.739,991.639 L1371.908,991.374 L1376.044,991.066 L1380.144,990.716 L1384.207,990.326 L1388.231,989.894 L1392.216,989.423 L1396.161,988.912 L1400.063,988.361 L1403.921,987.773 L1407.735,987.146 L1411.502,986.482 L1415.222,985.781 L1418.893,985.044 L1422.514,984.272 L1426.084,983.464 L1429.6,982.621 L1433.063,981.745 L1436.47,980.834 L1439.821,979.891 L1443.113,978.916 L1446.347,977.908 L1449.519,976.869 L1452.63,975.8 L1455.677,974.7 L1458.659,973.57 L1461.576,972.412 L1464.425,971.225 L1467.206,970.01 L1469.916,968.767 L1472.556,967.497 L1475.123,966.201 L1477.616,964.879 L1480.034,963.532 L1482.375,962.16 L1484.639,960.764 L1486.823,959.344 L1488.927,957.902 L1490.949,956.436 L1492.889,954.949 L1494.743,953.44 L1496.512,951.911 L1498.194,950.361 L1499.787,948.791 L1501.291,947.202 L1502.704,945.594 L1504.024,943.968 L1505.251,942.325 L1506.383,940.665 L1507.418,938.988 L1508.356,937.295 L1509.195,935.586 L1509.934,933.863 L1510.571,932.126 L1511.105,930.375 L1511.535,928.61 L1511.859,926.833 L1512.077,925.044 L1512.186,923.244 L1512.2,922.339 L1512.2,922.339 L1513.647,922.334 L1516.528,922.288 L1519.391,922.197 L1522.234,922.062 L1525.057,921.883 L1527.859,921.66 L1530.639,921.395 L1533.396,921.087 L1536.129,920.738 L1538.837,920.347 L1541.521,919.915 L1544.177,919.444 L1546.807,918.933 L1549.408,918.383 L1551.98,917.794 L1554.523,917.167 L1557.034,916.503 L1559.514,915.803 L1561.962,915.066 L1564.376,914.293 L1566.755,913.485 L1569.1,912.642 L1571.408,911.766 L1573.68,910.856 L1575.913,909.912 L1578.109,908.937 L1580.264,907.929 L1582.379,906.891 L1584.453,905.821 L1586.484,904.721 L1588.472,903.592 L1590.417,902.433 L1592.316,901.246 L1594.17,900.031 L1595.977,898.788 L1597.737,897.518 L1599.448,896.222 L1601.11,894.9 L1602.722,893.553 L1604.283,892.181 L1605.792,890.785 L1607.249,889.366 L1608.651,887.923 L1609.999,886.457 L1611.292,884.97 L1612.528,883.461 L1613.708,881.932 L1614.829,880.382 L1615.891,878.812 L1616.894,877.223 L1617.835,875.615 L1618.716,873.99 L1619.534,872.346 L1620.288,870.686 L1620.978,869.009 L1621.604,867.316 L1622.163,865.608 L1622.655,863.885 L1623.08,862.147 L1623.436,860.396 L1623.723,858.632 L1623.939,856.855 L1624.084,855.065 L1624.157,853.265 L1624.166,852.36 L1624.89,852.356 L1626.33,852.319 L1627.762,852.247 L1629.183,852.139 L1630.595,851.995 L1631.996,851.817 L1633.385,851.605 L1634.764,851.359 L1636.131,851.079 L1637.485,850.766 L1638.826,850.421 L1640.155,850.044 L1641.469,849.635 L1642.77,849.195 L1644.056,848.724 L1645.328,848.223 L1646.583,847.692 L1647.823,847.131 L1649.047,846.542 L1650.254,845.923 L1651.444,845.277 L1652.616,844.603 L1653.77,843.901 L1654.906,843.173 L1656.023,842.419 L1657.12,841.638 L1658.198,840.832 L1659.256,840.001 L1660.292,839.146 L1661.308,838.266 L1662.302,837.362 L1663.275,836.435 L1664.224,835.486 L1665.151,834.513 L1666.055,833.519 L1666.935,832.504 L1667.79,831.467 L1668.621,830.409 L1669.427,829.331 L1670.208,828.234 L1670.962,827.117 L1671.691,825.981 L1672.392,824.827 L1673.066,823.655 L1673.712,822.465 L1674.33,821.258 L1674.92,820.034 L1675.481,818.794 L1676.012,817.539 L1676.513,816.267 L1676.984,814.981 L1677.424,813.681 L1677.833,812.366 L1678.21,811.037 L1678.555,809.696 L1678.868,808.342 L1679.148,806.975 L1679.394,805.596 L1679.606,804.207 L1679.784,802.806 L1679.928,801.394 L1680.036,799.973 L1680.108,798.541 L1680.145,797.101 L1680.149,796.377 L1680.145,795.654 L1680.108,794.213 L1680.036,792.782 L1679.928,791.36 L1679.784,789.949 L1679.606,788.548 L1679.394,787.158 L1679.148,785.779 L1678.868,784.413 L1678.555,783.059 L1678.21,781.717 L1677.833,780.389 L1677.424,779.074 L1676.984,777.773 L1676.513,776.487 L1676.012,775.216 L1675.481,773.96 L1674.92,772.72 L1674.33,771.496 L1673.712,770.289 L1673.066,769.1 L1672.392,767.927 L1671.69,766.773 L1670.962,765.637 L1670.208,764.52 L1669.427,763.423 L1668.621,762.345 L1667.79,761.287 L1666.934,760.25 L1666.053,759.233 L1665.145,758.234 L1664.137,757.18 L1663.105,756.149 L1662.128,755.217 L1661.132,754.313 L1660.116,753.432 L1659.079,752.577 L1658.022,751.746 L1656.944,750.939 L1655.846,750.159 L1654.729,749.404 L1653.594,748.676 L1652.439,747.975 L1651.267,747.301 L1650.077,746.655 L1648.87,746.036 L1647.647,745.447 L1646.407,744.886 L1645.151,744.355 L1643.88,743.854 L1642.594,743.383 L1641.293,742.943 L1639.978,742.534 L1638.65,742.156 L1637.308,741.811 L1635.954,741.499 L1634.587,741.219 L1633.209,740.973 L1631.819,740.76 L1630.418,740.583 L1629.006,740.439 L1627.585,740.331 L1626.154,740.258 L1624.713,740.222 L1624.165,740.218 L1624.157,739.49 L1624.084,737.689 L1623.939,735.9 L1623.723,734.123 L1623.436,732.359 L1623.08,730.607 L1622.655,728.87 L1622.163,727.147 L1621.604,725.439 L1620.978,723.746 L1620.288,722.069 L1619.533,720.408 L1618.716,718.765 L1617.835,717.139 L1616.894,715.531 L1615.891,713.942 L1614.829,712.373 L1613.707,710.823 L1612.528,709.293 L1611.291,707.783 L1609.997,706.294 L1608.635,704.815 L1607.938,704.099 C1607.843,703.99 1607.894,704.043 1607.782,703.94 L1607.455,703.604 L1607.229,703.371 L1607.204,703.346 L1607.091,703.231 L1605.618,701.795 L1604.108,700.397 L1602.546,699.025 L1600.934,697.678 L1599.272,696.356 L1597.56,695.06 L1595.801,693.79 L1593.993,692.547 L1592.14,691.332 L1590.24,690.145 L1588.296,688.986 L1586.307,687.857 L1584.276,686.757 L1582.202,685.687 L1580.087,684.648 L1577.932,683.641 L1575.737,682.665 L1573.503,681.722 L1571.232,680.812 L1568.923,679.935 L1566.579,679.093 L1564.199,678.285 L1561.785,677.512 L1559.338,676.775 L1556.858,676.074 L1554.346,675.411 L1551.803,674.784 L1549.231,674.195 L1546.63,673.645 L1544,673.134 L1541.344,672.662 L1538.661,672.231 L1535.952,671.84 L1533.219,671.491 L1530.462,671.183 L1527.682,670.917 L1524.88,670.695 L1522.057,670.516 L1519.214,670.38 L1516.351,670.29 L1513.47,670.244 L1512.197,670.239 L1512.186,669.511 L1512.077,667.71 L1511.859,665.921 L1511.535,664.144 L1511.105,662.38 L1510.571,660.629 L1509.934,658.891 L1509.195,657.168 L1508.356,655.46 L1507.418,653.767 L1506.383,652.09 L1505.251,650.429 L1504.024,648.786 L1502.703,647.159 L1501.942,646.294 C1501.915,646.258 1501.929,646.274 1501.9,646.245 L1501.286,645.547 L1500.042,644.238 L1499.751,643.929 L1499.711,643.889 L1499.647,643.822 L1498.02,642.219 L1496.336,640.668 L1494.567,639.138 L1492.712,637.629 L1490.773,636.142 L1488.751,634.676 L1486.647,633.233 L1484.462,631.814 L1482.199,630.418 L1479.857,629.046 L1477.439,627.699 L1474.946,626.377 L1472.379,625.081 L1469.74,623.811 L1467.029,622.568 L1464.248,621.353 L1461.399,620.166 L1458.482,619.007 L1455.5,617.878 L1452.453,616.778 L1449.342,615.708 L1446.17,614.669 L1442.937,613.662 L1439.644,612.687 L1436.294,611.743 L1432.886,610.833 L1429.424,609.957 L1425.907,609.114 L1422.337,608.306 L1418.716,607.533 L1415.045,606.796 L1411.325,606.096 L1407.558,605.432 L1403.744,604.805 L1399.886,604.216 L1395.984,603.666 L1392.04,603.155 L1388.055,602.683 L1384.03,602.252 L1379.967,601.861 L1375.867,601.512 L1371.732,601.204 L1367.562,600.938 L1363.359,600.716 L1359.125,600.537 L1354.86,600.402 L1350.566,600.311 L1346.245,600.265 L1344.074,600.26 z"/>
    </clipPath>
    <filter id="Shadow_2">
      <feGaussianBlur in="SourceAlpha" stdDeviation="2.5"/>
      <feOffset dx="0" dy="2" result="offsetblur"/>
      <feFlood flood-color="#000000"/>
      <feComposite in2="offsetblur" operator="in"/>
    </filter>
  </defs>
  <g id="Capa_2">
    <g>
      <path d="M0.5,0.5 L1900.5,0.5 L1900.5,1080.5 L0.5,1080.5 L0.5,0.5 z" fill="#FFFFFF"/>
      <path d="M0.5,0.5 L1900.5,0.5 L1900.5,1080.5 L0.5,1080.5 L0.5,0.5 z" fill-opacity="0" stroke="#000000" stroke-width="1"/>
    </g>
  </g>
  <g id="Capa_1">
    <g>
      <path d="M1344.074,600.26 L1346.245,600.265 L1350.566,600.311 L1354.86,600.402 L1359.125,600.537 L1363.359,600.716 L1367.562,600.938 L1371.732,601.204 L1375.867,601.512 L1379.967,601.861 L1384.03,602.252 L1388.055,602.683 L1392.04,603.155 L1395.984,603.666 L1399.886,604.216 L1403.744,604.805 L1407.558,605.432 L1411.325,606.096 L1415.045,606.796 L1418.716,607.533 L1422.337,608.306 L1425.907,609.114 L1429.424,609.957 L1432.886,610.833 L1436.294,611.743 L1439.644,612.687 L1442.937,613.662 L1446.17,614.669 L1449.342,615.708 L1452.453,616.778 L1455.5,617.878 L1458.482,619.007 L1461.399,620.166 L1464.248,621.353 L1467.029,622.568 L1469.74,623.811 L1472.379,625.081 L1474.946,626.377 L1477.439,627.699 L1479.857,629.046 L1482.199,630.418 L1484.462,631.814 L1486.647,633.233 L1488.751,634.676 L1490.773,636.142 L1492.712,637.629 L1494.567,639.138 L1496.336,640.668 L1498.02,642.219 L1499.647,643.822 L1499.711,643.889 L1499.751,643.929 L1500.042,644.238 L1501.286,645.547 L1501.9,646.245 C1501.929,646.274 1501.915,646.258 1501.942,646.294 L1502.703,647.159 L1504.024,648.786 L1505.251,650.429 L1506.383,652.09 L1507.418,653.767 L1508.356,655.46 L1509.195,657.168 L1509.934,658.891 L1510.571,660.629 L1511.105,662.38 L1511.535,664.144 L1511.859,665.921 L1512.077,667.71 L1512.186,669.511 L1512.197,670.239 L1513.47,670.244 L1516.351,670.29 L1519.214,670.38 L1522.057,670.516 L1524.88,670.695 L1527.682,670.917 L1530.462,671.183 L1533.219,671.491 L1535.952,671.84 L1538.661,672.231 L1541.344,672.662 L1544,673.134 L1546.63,673.645 L1549.231,674.195 L1551.803,674.784 L1554.346,675.411 L1556.858,676.074 L1559.338,676.775 L1561.785,677.512 L1564.199,678.285 L1566.579,679.093 L1568.923,679.935 L1571.232,680.812 L1573.503,681.722 L1575.737,682.665 L1577.932,683.641 L1580.087,684.648 L1582.202,685.687 L1584.276,686.757 L1586.307,687.857 L1588.296,688.986 L1590.24,690.145 L1592.14,691.332 L1593.993,692.547 L1595.801,693.79 L1597.56,695.06 L1599.272,696.356 L1600.934,697.678 L1602.546,699.025 L1604.108,700.397 L1605.618,701.795 L1607.091,703.231 L1607.204,703.346 L1607.229,703.371 L1607.455,703.604 L1607.782,703.94 C1607.894,704.043 1607.843,703.99 1607.938,704.099 L1608.635,704.815 L1609.997,706.294 L1611.291,707.783 L1612.528,709.293 L1613.707,710.823 L1614.829,712.373 L1615.891,713.942 L1616.894,715.531 L1617.835,717.139 L1618.716,718.765 L1619.533,720.408 L1620.288,722.069 L1620.978,723.746 L1621.604,725.439 L1622.163,727.147 L1622.655,728.87 L1623.08,730.607 L1623.436,732.359 L1623.723,734.123 L1623.939,735.9 L1624.084,737.689 L1624.157,739.49 L1624.165,740.218 L1624.713,740.222 L1626.154,740.258 L1627.585,740.331 L1629.006,740.439 L1630.418,740.583 L1631.819,740.76 L1633.209,740.973 L1634.587,741.219 L1635.954,741.499 L1637.308,741.811 L1638.65,742.156 L1639.978,742.534 L1641.293,742.943 L1642.594,743.383 L1643.88,743.854 L1645.151,744.355 L1646.407,744.886 L1647.647,745.447 L1648.87,746.036 L1650.077,746.655 L1651.267,747.301 L1652.439,747.975 L1653.594,748.676 L1654.729,749.404 L1655.846,750.159 L1656.944,750.939 L1658.022,751.746 L1659.079,752.577 L1660.116,753.432 L1661.132,754.313 L1662.128,755.217 L1663.105,756.149 L1664.137,757.18 L1665.145,758.234 L1666.053,759.233 L1666.934,760.25 L1667.79,761.287 L1668.621,762.345 L1669.427,763.423 L1670.208,764.52 L1670.962,765.637 L1671.69,766.773 L1672.392,767.927 L1673.066,769.1 L1673.712,770.289 L1674.33,771.496 L1674.92,772.72 L1675.481,773.96 L1676.012,775.216 L1676.513,776.487 L1676.984,777.773 L1677.424,779.074 L1677.833,780.389 L1678.21,781.717 L1678.555,783.059 L1678.868,784.413 L1679.148,785.779 L1679.394,787.158 L1679.606,788.548 L1679.784,789.949 L1679.928,791.36 L1680.036,792.782 L1680.108,794.213 L1680.145,795.654 L1680.149,796.377 L1680.145,797.101 L1680.108,798.541 L1680.036,799.973 L1679.928,801.394 L1679.784,802.806 L1679.606,804.207 L1679.394,805.596 L1679.148,806.975 L1678.868,808.342 L1678.555,809.696 L1678.21,811.037 L1677.833,812.366 L1677.424,813.681 L1676.984,814.981 L1676.513,816.267 L1676.012,817.539 L1675.481,818.794 L1674.92,820.034 L1674.33,821.258 L1673.712,822.465 L1673.066,823.655 L1672.392,824.827 L1671.691,825.981 L1670.962,827.117 L1670.208,828.234 L1669.427,829.331 L1668.621,830.409 L1667.79,831.467 L1666.935,832.504 L1666.055,833.519 L1665.151,834.513 L1664.224,835.486 L1663.275,836.435 L1662.302,837.362 L1661.308,838.266 L1660.292,839.146 L1659.256,840.001 L1658.198,840.832 L1657.12,841.638 L1656.023,842.419 L1654.906,843.173 L1653.77,843.901 L1652.616,844.603 L1651.444,845.277 L1650.254,845.923 L1649.047,846.542 L1647.823,847.131 L1646.583,847.692 L1645.328,848.223 L1644.056,848.724 L1642.77,849.195 L1641.469,849.635 L1640.155,850.044 L1638.826,850.421 L1637.485,850.766 L1636.131,851.079 L1634.764,851.359 L1633.385,851.605 L1631.996,851.817 L1630.595,851.995 L1629.183,852.139 L1627.762,852.247 L1626.33,852.319 L1624.89,852.356 L1624.166,852.36 L1624.157,853.265 L1624.084,855.065 L1623.939,856.855 L1623.723,858.632 L1623.436,860.396 L1623.08,862.147 L1622.655,863.885 L1622.163,865.608 L1621.604,867.316 L1620.978,869.009 L1620.288,870.686 L1619.534,872.346 L1618.716,873.99 L1617.835,875.615 L1616.894,877.223 L1615.891,878.812 L1614.829,880.382 L1613.708,881.932 L1612.528,883.461 L1611.292,884.97 L1609.999,886.457 L1608.651,887.923 L1607.249,889.366 L1605.792,890.785 L1604.283,892.181 L1602.722,893.553 L1601.11,894.9 L1599.448,896.222 L1597.737,897.518 L1595.977,898.788 L1594.17,900.031 L1592.316,901.246 L1590.417,902.433 L1588.472,903.592 L1586.484,904.721 L1584.453,905.821 L1582.379,906.891 L1580.264,907.929 L1578.109,908.937 L1575.913,909.912 L1573.68,910.856 L1571.408,911.766 L1569.1,912.642 L1566.755,913.485 L1564.376,914.293 L1561.962,915.066 L1559.514,915.803 L1557.034,916.503 L1554.523,917.167 L1551.98,917.794 L1549.408,918.383 L1546.807,918.933 L1544.177,919.444 L1541.521,919.915 L1538.837,920.347 L1536.129,920.738 L1533.396,921.087 L1530.639,921.395 L1527.859,921.66 L1525.057,921.883 L1522.234,922.062 L1519.391,922.197 L1516.528,922.288 L1513.647,922.334 L1512.2,922.339 L1512.2,922.339 L1512.186,923.244 L1512.077,925.044 L1511.859,926.833 L1511.535,928.61 L1511.105,930.375 L1510.571,932.126 L1509.934,933.863 L1509.195,935.586 L1508.356,937.295 L1507.418,938.988 L1506.383,940.665 L1505.251,942.325 L1504.024,943.968 L1502.704,945.594 L1501.291,947.202 L1499.787,948.791 L1498.194,950.361 L1496.512,951.911 L1494.743,953.44 L1492.889,954.949 L1490.949,956.436 L1488.927,957.902 L1486.823,959.344 L1484.639,960.764 L1482.375,962.16 L1480.034,963.532 L1477.616,964.879 L1475.123,966.201 L1472.556,967.497 L1469.916,968.767 L1467.206,970.01 L1464.425,971.225 L1461.576,972.412 L1458.659,973.57 L1455.677,974.7 L1452.63,975.8 L1449.519,976.869 L1446.347,977.908 L1443.113,978.916 L1439.821,979.891 L1436.47,980.834 L1433.063,981.745 L1429.6,982.621 L1426.084,983.464 L1422.514,984.272 L1418.893,985.044 L1415.222,985.781 L1411.502,986.482 L1407.735,987.146 L1403.921,987.773 L1400.063,988.361 L1396.161,988.912 L1392.216,989.423 L1388.231,989.894 L1384.207,990.326 L1380.144,990.716 L1376.044,991.066 L1371.908,991.374 L1367.739,991.639 L1363.536,991.862 L1359.302,992.041 L1355.037,992.176 L1350.743,992.267 L1346.421,992.312 L1344.251,992.318 L1342.08,992.312 L1337.759,992.267 L1333.465,992.176 L1329.2,992.041 L1324.965,991.862 L1320.763,991.639 L1316.593,991.374 L1312.458,991.066 L1308.358,990.716 L1304.295,990.326 L1300.27,989.894 L1296.285,989.423 L1292.341,988.912 L1288.439,988.361 L1284.58,987.773 L1280.767,987.146 L1276.999,986.482 L1273.279,985.781 L1269.608,985.044 L1265.987,984.272 L1262.418,983.464 L1258.901,982.621 L1255.438,981.745 L1252.031,980.834 L1248.681,979.891 L1245.388,978.916 L1242.155,977.908 L1238.982,976.869 L1235.872,975.8 L1232.825,974.7 L1229.842,973.57 L1226.926,972.412 L1224.076,971.225 L1221.296,970.01 L1218.585,968.767 L1215.945,967.497 L1213.378,966.201 L1210.885,964.879 L1208.467,963.532 L1206.126,962.16 L1203.862,960.764 L1201.678,959.344 L1199.574,957.902 L1197.552,956.436 L1195.613,954.949 L1193.758,953.44 L1191.988,951.91 L1190.305,950.358 L1188.678,948.756 L1188.613,948.688 L1188.573,948.649 L1188.285,948.343 L1187.038,947.031 L1186.424,946.332 C1186.396,946.304 1186.41,946.319 1186.383,946.285 L1185.622,945.419 L1184.301,943.792 L1183.074,942.148 L1181.942,940.488 L1180.906,938.811 L1179.969,937.118 L1179.13,935.41 L1178.391,933.687 L1177.754,931.949 L1177.22,930.198 L1176.79,928.434 L1176.465,926.657 L1176.248,924.868 L1176.138,923.067 L1176.127,922.339 L1174.854,922.334 L1171.973,922.288 L1169.111,922.197 L1166.267,922.062 L1163.445,921.883 L1160.643,921.66 L1157.863,921.395 L1155.106,921.087 L1152.373,920.738 L1149.664,920.347 L1146.981,919.915 L1144.324,919.444 L1141.695,918.933 L1139.093,918.383 L1136.521,917.794 L1133.979,917.167 L1131.467,916.503 L1128.987,915.803 L1126.54,915.066 L1124.126,914.293 L1121.746,913.485 L1119.401,912.642 L1117.093,911.766 L1114.822,910.856 L1112.588,909.912 L1110.393,908.937 L1108.237,907.929 L1106.122,906.891 L1104.049,905.821 L1102.017,904.721 L1100.029,903.592 L1098.085,902.433 L1096.185,901.246 L1094.331,900.031 L1092.524,898.788 L1090.764,897.518 L1089.053,896.222 L1087.391,894.9 L1085.779,893.553 L1084.217,892.18 L1082.706,890.783 L1081.234,889.347 L1081.123,889.234 L1081.096,889.207 L1080.851,888.955 L1080.542,888.637 C1080.431,888.535 1080.482,888.588 1080.388,888.479 L1079.689,887.763 L1078.328,886.283 L1077.033,884.794 L1075.797,883.285 L1074.617,881.755 L1073.496,880.205 L1072.433,878.635 L1071.431,877.046 L1070.489,875.439 L1069.609,873.813 L1068.791,872.169 L1068.037,870.509 L1067.346,868.832 L1066.721,867.139 L1066.162,865.431 L1065.669,863.708 L1065.245,861.97 L1064.889,860.219 L1064.602,858.455 L1064.385,856.678 L1064.24,854.889 L1064.167,853.088 L1064.16,852.359 L1063.611,852.356 L1062.171,852.319 L1060.74,852.247 L1059.318,852.139 L1057.907,851.995 L1056.506,851.817 L1055.116,851.605 L1053.737,851.359 L1052.371,851.079 L1051.016,850.766 L1049.675,850.421 L1048.347,850.044 L1047.032,849.635 L1045.731,849.195 L1044.445,848.724 L1043.174,848.223 L1041.918,847.692 L1040.678,847.131 L1039.454,846.541 L1038.247,845.923 L1037.057,845.277 L1035.885,844.603 L1034.731,843.901 L1033.595,843.173 L1032.478,842.419 L1031.381,841.638 L1030.303,840.832 L1029.245,840.001 L1028.208,839.145 L1027.192,838.265 L1026.197,837.361 L1025.219,836.429 L1024.188,835.398 L1023.18,834.344 L1022.271,833.345 L1021.391,832.328 L1020.535,831.29 L1019.703,830.233 L1018.897,829.155 L1018.117,828.057 L1017.362,826.941 L1016.634,825.805 L1015.933,824.651 L1015.259,823.478 L1014.612,822.288 L1013.994,821.081 L1013.405,819.858 L1012.844,818.618 L1012.313,817.362 L1011.812,816.091 L1011.341,814.805 L1010.901,813.504 L1010.492,812.189 L1010.114,810.861 L1009.769,809.519 L1009.457,808.165 L1009.177,806.798 L1008.931,805.42 L1008.718,804.03 L1008.54,802.629 L1008.397,801.218 L1008.289,799.796 L1008.216,798.365 L1008.18,796.924 L1008.175,796.201 L1008.18,795.477 L1008.216,794.036 L1008.289,792.605 L1008.397,791.184 L1008.54,789.772 L1008.718,788.371 L1008.931,786.981 L1009.177,785.603 L1009.457,784.236 L1009.769,782.882 L1010.114,781.54 L1010.492,780.212 L1010.901,778.897 L1011.341,777.597 L1011.812,776.31 L1012.313,775.039 L1012.844,773.783 L1013.405,772.543 L1013.994,771.32 L1014.612,770.113 L1015.259,768.923 L1015.933,767.751 L1016.634,766.596 L1017.362,765.461 L1018.117,764.344 L1018.897,763.246 L1019.703,762.169 L1020.534,761.111 L1021.39,760.074 L1022.27,759.058 L1023.173,758.064 L1024.1,757.092 L1025.05,756.142 L1026.022,755.216 L1027.016,754.312 L1028.032,753.432 L1029.069,752.576 L1030.126,751.745 L1031.204,750.939 L1032.302,750.159 L1033.418,749.404 L1034.554,748.676 L1035.708,747.975 L1036.881,747.301 L1038.071,746.655 L1039.277,746.036 L1040.501,745.447 L1041.741,744.886 L1042.997,744.355 L1044.268,743.854 L1045.554,743.383 L1046.855,742.943 L1048.17,742.534 L1049.498,742.156 L1050.84,741.811 L1052.194,741.499 L1053.561,741.219 L1054.939,740.973 L1056.329,740.76 L1057.73,740.583 L1059.141,740.439 L1060.563,740.331 L1061.994,740.258 L1063.435,740.222 L1064.158,740.217 L1064.158,740.217 L1064.167,739.313 L1064.24,737.512 L1064.385,735.723 L1064.602,733.946 L1064.889,732.182 L1065.245,730.431 L1065.669,728.693 L1066.162,726.97 L1066.721,725.262 L1067.346,723.569 L1068.037,721.892 L1068.791,720.232 L1069.609,718.588 L1070.489,716.963 L1071.431,715.355 L1072.433,713.766 L1073.496,712.196 L1074.617,710.646 L1075.796,709.116 L1077.033,707.608 L1078.325,706.12 L1079.673,704.655 L1081.076,703.212 L1082.532,701.793 L1084.042,700.396 L1085.602,699.025 L1087.214,697.677 L1088.876,696.356 L1090.588,695.06 L1092.347,693.79 L1094.155,692.547 L1096.008,691.332 L1097.908,690.145 L1099.852,688.986 L1101.841,687.857 L1103.872,686.757 L1105.946,685.687 L1108.061,684.648 L1110.216,683.641 L1112.411,682.665 L1114.645,681.722 L1116.916,680.812 L1119.225,679.935 L1121.569,679.093 L1123.949,678.285 L1126.363,677.512 L1128.81,676.775 L1131.29,676.074 L1133.802,675.411 L1136.344,674.784 L1138.917,674.195 L1141.518,673.645 L1144.147,673.134 L1146.804,672.662 L1149.487,672.231 L1152.196,671.84 L1154.929,671.491 L1157.686,671.183 L1160.466,670.917 L1163.268,670.695 L1166.091,670.516 L1168.934,670.38 L1171.797,670.29 L1174.677,670.244 L1176.125,670.239 L1176.138,669.334 L1176.248,667.533 L1176.465,665.744 L1176.79,663.967 L1177.22,662.203 L1177.754,660.452 L1178.391,658.714 L1179.13,656.991 L1179.969,655.283 L1180.906,653.59 L1181.942,651.913 L1183.074,650.253 L1184.3,648.609 L1185.621,646.984 L1187.033,645.376 L1188.537,643.787 L1190.131,642.217 L1191.813,640.667 L1193.582,639.138 L1195.436,637.629 L1197.375,636.141 L1199.397,634.676 L1201.501,633.233 L1203.686,631.814 L1205.949,630.418 L1208.291,629.046 L1210.709,627.699 L1213.202,626.377 L1215.769,625.081 L1218.408,623.811 L1221.119,622.568 L1223.9,621.353 L1226.749,620.166 L1229.666,619.007 L1232.648,617.878 L1235.695,616.778 L1238.806,615.708 L1241.978,614.669 L1245.211,613.662 L1248.504,612.687 L1251.854,611.743 L1255.262,610.833 L1258.724,609.957 L1262.241,609.114 L1265.811,608.306 L1269.432,607.533 L1273.103,606.796 L1276.823,606.096 L1280.59,605.432 L1284.404,604.805 L1288.262,604.216 L1292.164,603.666 L1296.108,603.155 L1300.093,602.683 L1304.118,602.252 L1308.181,601.861 L1312.281,601.512 L1316.416,601.204 L1320.586,600.938 L1324.789,600.716 L1329.023,600.537 L1333.288,600.402 L1337.582,600.311 L1341.903,600.265 L1344.074,600.26 z M1307.948,990.517 L1308.181,990.54 L1312.281,990.889 L1312.549,990.909 L1307.948,990.517 z M1291.579,988.652 L1292.164,988.735 L1296.108,989.246 L1296.733,989.32 L1291.579,988.652 z M1275.828,986.118 L1276.823,986.305 L1280.59,986.969 L1281.63,987.14 L1275.828,986.118 z M1260.805,982.943 L1262.241,983.287 L1265.811,984.095 L1267.308,984.414 L1260.805,982.943 z M1246.615,979.155 L1248.504,979.714 L1251.854,980.658 L1253.819,981.183 L1246.615,979.155 z M1233.384,974.789 L1235.695,975.623 L1238.806,976.693 L1241.219,977.483 L1233.384,974.789 z M1221.217,969.875 L1223.9,971.048 L1226.749,972.235 L1229.562,973.353 L1221.217,969.875 z M1210.489,964.58 L1210.709,964.703 L1213.202,966.024 L1215.769,967.32 L1218.408,968.59 L1218.653,968.702 L1210.489,964.58 z M1201.073,958.874 L1201.501,959.168 L1203.686,960.587 L1205.949,961.984 L1208.291,963.355 L1208.781,963.628 L1201.073,958.874 z M1193.021,952.779 L1193.582,953.264 L1195.436,954.772 L1197.375,956.26 L1199.397,957.725 L1200.066,958.184 L1193.021,952.779 z M1492.824,954.681 L1490.658,956.343 L1490.773,956.26 L1492.712,954.772 L1492.824,954.681 z M1186.585,946.49 L1187.205,947.196 L1188.285,948.343 L1188.613,948.688 L1190.134,950.186 L1191.813,951.735 L1192.575,952.393 L1186.585,946.49 z M1499.975,948.23 L1497.62,950.55 L1498.017,950.184 L1499.611,948.614 L1499.975,948.23 z M1182.917,941.835 L1183.25,942.325 L1184.477,943.968 L1185.797,945.593 L1186.214,946.069 L1182.917,941.835 z M1181.028,938.889 L1181.083,938.987 L1182.119,940.664 L1182.184,940.761 L1181.028,938.889 z M1163.179,921.699 L1163.268,921.706 L1166.091,921.885 L1166.203,921.891 L1163.179,921.699 z M1151.812,920.505 L1152.196,920.561 L1154.929,920.91 L1155.342,920.956 L1151.812,920.505 z M1140.795,918.603 L1141.518,918.756 L1144.147,919.267 L1144.903,919.401 L1140.795,918.603 z M1130.201,916.019 L1131.29,916.327 L1133.802,916.991 L1134.931,917.269 L1130.201,916.019 z M1120.107,912.783 L1121.569,913.308 L1123.949,914.116 L1125.464,914.601 L1120.107,912.783 z M1110.594,908.928 L1112.411,909.736 L1114.645,910.679 L1116.533,911.435 L1110.594,908.928 z M1101.789,904.515 L1101.841,904.544 L1103.872,905.644 L1105.946,906.714 L1108.061,907.753 L1108.118,907.779 L1101.789,904.515 z M1093.895,899.675 L1094.155,899.854 L1096.009,901.069 L1097.908,902.256 L1099.852,903.415 L1100.139,903.578 L1093.895,899.675 z M1086.784,894.364 L1087.215,894.724 L1088.877,896.046 L1090.588,897.342 L1092.348,898.611 L1092.829,898.943 L1086.784,894.364 z M1080.558,888.653 L1080.851,888.955 L1081.123,889.234 L1082.535,890.611 L1084.043,892.005 L1085.603,893.377 L1086.234,893.904 L1080.558,888.653 z M1075.55,882.912 L1075.973,883.461 L1077.209,884.969 L1078.5,886.455 L1079.834,887.906 L1080.365,888.454 L1075.55,882.912 z M1071.381,876.836 L1071.608,877.223 L1072.61,878.812 L1073.672,880.382 L1074.794,881.931 L1075.076,882.298 L1071.381,876.836 z M1068.125,870.47 L1068.213,870.686 L1068.968,872.346 L1069.786,873.99 L1070.666,875.615 L1070.784,875.817 L1068.125,870.47 z M1619.377,872.124 L1618.52,873.849 L1618.539,873.813 L1619.357,872.169 L1619.377,872.124 z M1065.837,863.846 L1065.846,863.884 L1066.339,865.607 L1066.898,867.316 L1067.523,869.009 L1067.536,869.04 L1065.837,863.846 z M1622.101,865.027 L1621.285,867.524 L1621.427,867.139 L1621.986,865.431 L1622.101,865.027 z M1064.594,857.119 L1064.779,858.631 L1065.065,860.396 L1065.365,861.869 L1064.594,857.119 z M1623.644,857.651 L1623.101,860.997 L1623.259,860.219 L1623.546,858.455 L1623.644,857.651 z M1046.636,849.384 L1046.855,849.458 L1048.17,849.867 L1048.403,849.933 L1046.636,849.384 z M1041.165,847.254 L1041.741,847.515 L1042.997,848.046 L1043.595,848.282 L1041.165,847.254 z M1035.954,844.567 L1036.881,845.1 L1038.071,845.747 L1039.032,846.239 L1035.954,844.567 z M1031.13,841.406 L1031.204,841.462 L1032.302,842.242 L1033.419,842.997 L1034.554,843.725 L1034.636,843.775 L1031.13,841.406 z M1026.767,837.862 L1027.017,838.09 L1028.033,838.969 L1029.069,839.825 L1030.127,840.656 L1030.397,840.858 L1026.767,837.862 z M1022.956,834.08 L1023.344,834.506 L1024.189,835.396 L1025.057,836.265 L1026.024,837.187 L1026.456,837.58 L1022.956,834.08 z M1019.677,830.138 L1019.88,830.409 L1020.711,831.466 L1021.566,832.503 L1022.445,833.517 L1022.672,833.767 L1019.677,830.138 z M1016.761,825.9 L1016.811,825.981 L1017.539,827.117 L1018.294,828.234 L1019.074,829.331 L1019.13,829.407 L1016.761,825.9 z M1014.298,821.505 L1014.789,822.465 L1015.435,823.655 L1015.969,824.582 L1014.298,821.505 z M1012.253,816.94 L1012.49,817.539 L1013.021,818.794 L1013.282,819.373 L1012.253,816.94 z M1010.603,812.136 L1010.668,812.366 L1011.077,813.681 L1011.151,813.899 L1010.603,812.136 z M1677.174,778.682 L1677.722,780.444 L1677.656,780.212 L1677.247,778.897 L1677.174,778.682 z M1675.044,773.208 L1676.071,775.637 L1675.835,775.039 L1675.304,773.784 L1675.044,773.208 z M1672.356,767.996 L1674.027,771.073 L1673.536,770.113 L1672.889,768.923 L1672.356,767.996 z M1669.195,763.172 L1671.564,766.679 L1671.514,766.596 L1670.786,765.461 L1670.031,764.344 L1669.251,763.247 L1669.195,763.172 z M1665.652,758.81 L1668.647,762.439 L1668.445,762.169 L1667.614,761.112 L1666.759,760.075 L1665.88,759.061 L1665.652,758.81 z M1661.869,754.998 L1665.369,758.498 L1664.981,758.072 L1664.135,757.182 L1663.267,756.313 L1662.3,755.391 L1661.869,754.998 z M1657.926,751.719 L1661.557,754.715 L1661.307,754.488 L1660.292,753.609 L1659.255,752.753 L1658.198,751.922 L1657.926,751.719 z M1653.687,748.802 L1657.196,751.173 L1657.12,751.116 L1656.023,750.336 L1654.906,749.581 L1653.77,748.853 L1653.687,748.802 z M1649.294,746.34 L1652.373,748.012 L1651.444,747.478 L1650.254,746.831 L1649.294,746.34 z M1644.729,744.296 L1647.159,745.323 L1646.583,745.063 L1645.328,744.532 L1644.729,744.296 z M1639.924,742.645 L1641.685,743.192 L1641.469,743.12 L1640.155,742.711 L1639.924,742.645 z M1622.96,730.708 L1623.73,735.458 L1623.546,733.946 L1623.259,732.182 L1622.96,730.708 z M1065.223,731.582 L1065.065,732.359 L1064.779,734.123 L1064.681,734.927 L1065.223,731.582 z M1620.789,723.538 L1622.488,728.732 L1622.479,728.693 L1621.986,726.97 L1621.427,725.262 L1620.802,723.569 L1620.789,723.538 z M1067.04,725.054 L1066.898,725.439 L1066.339,727.147 L1066.223,727.551 L1067.04,725.054 z M1617.54,716.761 L1620.2,722.107 L1620.111,721.892 L1619.357,720.232 L1618.539,718.588 L1617.659,716.963 L1617.54,716.761 z M1069.805,718.729 L1069.786,718.765 L1068.968,720.409 L1068.949,720.45 L1069.805,718.729 z M1613.248,710.28 L1616.943,715.741 L1616.717,715.355 L1615.714,713.766 L1614.652,712.196 L1613.531,710.646 L1613.248,710.28 z M1607.96,704.125 L1612.775,709.665 L1612.352,709.117 L1611.116,707.609 L1609.825,706.123 L1608.49,704.672 L1607.96,704.125 z M1602.091,698.674 L1607.765,703.924 L1607.455,703.604 L1607.204,703.346 L1605.789,701.967 L1604.282,700.572 L1602.722,699.201 L1602.091,698.674 z M1595.494,693.634 L1601.541,698.214 L1601.11,697.854 L1599.448,696.532 L1597.737,695.236 L1595.977,693.967 L1595.494,693.634 z M1588.185,689 L1594.432,692.904 L1594.17,692.724 L1592.316,691.509 L1590.417,690.321 L1588.472,689.163 L1588.185,689 z M1580.207,684.799 L1586.535,688.063 L1586.484,688.033 L1584.453,686.934 L1582.379,685.864 L1580.264,684.825 L1580.207,684.799 z M1571.788,681.141 L1577.733,683.651 L1575.913,682.842 L1573.68,681.899 L1571.788,681.141 z M1562.86,677.977 L1568.217,679.795 L1566.755,679.27 L1564.376,678.462 L1562.86,677.977 z M1553.394,675.309 L1558.122,676.559 L1557.034,676.251 L1554.523,675.587 L1553.394,675.309 z M1543.422,673.177 L1547.528,673.975 L1546.807,673.822 L1544.177,673.311 L1543.422,673.177 z M1532.983,671.621 L1536.512,672.072 L1536.129,672.017 L1533.396,671.667 L1532.983,671.621 z M1522.128,670.688 L1525.152,670.879 L1525.057,670.872 L1522.234,670.693 L1522.128,670.688 z M1506.141,651.818 L1507.297,653.69 L1507.241,653.59 L1506.206,651.913 L1506.141,651.818 z M1502.109,646.508 L1505.407,650.742 L1505.074,650.253 L1503.848,648.61 L1502.528,646.985 L1502.109,646.508 z M1495.749,640.184 L1501.74,646.088 L1501.119,645.381 L1500.042,644.238 L1499.711,643.889 L1498.191,642.392 L1496.511,640.843 L1495.749,640.184 z M1190.706,642.026 L1190.307,642.394 L1188.714,643.964 L1188.353,644.346 L1190.706,642.026 z M1488.259,634.395 L1495.304,639.799 L1494.743,639.314 L1492.888,637.805 L1490.949,636.318 L1488.927,634.853 L1488.259,634.395 z M1197.668,636.234 L1197.552,636.318 L1195.613,637.806 L1195.503,637.895 L1197.668,636.234 z M1479.544,628.95 L1487.251,633.703 L1486.823,633.41 L1484.639,631.99 L1482.375,630.594 L1480.034,629.222 L1479.544,628.95 z M1469.671,623.875 L1477.836,627.998 L1477.616,627.875 L1475.123,626.554 L1472.556,625.257 L1469.916,623.988 L1469.671,623.875 z M1458.764,619.226 L1467.106,622.701 L1464.425,621.53 L1461.576,620.343 L1458.764,619.226 z M1447.106,615.095 L1454.94,617.789 L1452.63,616.955 L1449.519,615.885 L1447.106,615.095 z M1434.505,611.395 L1441.708,613.423 L1439.821,612.863 L1436.47,611.92 L1434.505,611.395 z M1421.023,608.165 L1427.521,609.635 L1426.084,609.291 L1422.514,608.483 L1421.023,608.165 z M1406.701,605.439 L1412.494,606.459 L1411.502,606.272 L1407.735,605.608 L1406.701,605.439 z M1391.6,603.259 L1396.745,603.925 L1396.161,603.843 L1392.216,603.332 L1391.6,603.259 z M1375.776,601.669 L1380.377,602.061 L1380.144,602.038 L1376.044,601.688 L1375.776,601.669 z" clip-path="url(#Clip_1)" filter="url(#Shadow_2)" fill="rgba(0,0,0,0.75)"/>
      <path d="M1008.264,796.289 C1008.264,765.37 1033.328,740.306 1064.247,740.306 C1064.247,701.658 1114.376,670.327 1176.213,670.327 C1176.213,631.679 1251.406,600.348 1344.162,600.348 C1436.918,600.348 1512.112,631.679 1512.112,670.327 C1573.949,670.327 1624.078,701.658 1624.078,740.306 C1654.997,740.306 1680.061,765.37 1680.061,796.289 C1680.061,827.208 1654.997,852.272 1624.078,852.272 C1624.078,890.92 1573.949,922.251 1512.112,922.251 C1512.112,960.899 1436.918,992.23 1344.162,992.23 C1251.406,992.23 1176.213,960.899 1176.213,922.251 C1114.376,922.251 1064.247,890.92 1064.247,852.272 C1033.328,852.272 1008.264,827.208 1008.264,796.289" fill="#ECECEC"/>
      <path d="M1008.352,796.377 L1008.357,795.654 L1008.393,794.213 L1008.466,792.782 L1008.574,791.36 L1008.717,789.949 L1008.895,788.548 L1009.108,787.158 L1009.354,785.78 L1009.633,784.413 L1009.946,783.059 L1010.291,781.717 L1010.668,780.389 L1011.077,779.074 L1011.517,777.773 L1011.988,776.487 L1012.49,775.216 L1013.021,773.96 L1013.581,772.72 L1014.171,771.497 L1014.789,770.29 L1015.436,769.1 L1016.11,767.927 L1016.811,766.773 L1017.539,765.637 L1018.294,764.521 L1019.074,763.423 L1019.88,762.345 L1020.711,761.288 L1021.567,760.251 L1022.447,759.235 L1023.35,758.241 L1024.277,757.269 L1025.227,756.319 L1026.199,755.392 L1027.193,754.489 L1028.209,753.609 L1029.246,752.753 L1030.303,751.922 L1031.381,751.116 L1032.478,750.336 L1033.595,749.581 L1034.731,748.853 L1035.885,748.152 L1037.057,747.478 L1038.247,746.831 L1039.454,746.213 L1040.678,745.624 L1041.918,745.063 L1043.174,744.532 L1044.445,744.031 L1045.731,743.56 L1047.032,743.12 L1048.347,742.711 L1049.675,742.333 L1051.016,741.988 L1052.371,741.676 L1053.737,741.396 L1055.116,741.15 L1056.506,740.937 L1057.907,740.759 L1059.318,740.616 L1060.74,740.508 L1062.171,740.435 L1063.612,740.399 L1064.335,740.394 L1064.335,740.394 C1064.335,740.394 1064.335,740.394 1064.335,740.394 L1064.335,740.394 L1064.344,739.49 L1064.417,737.689 L1064.562,735.9 L1064.779,734.123 L1065.065,732.359 L1065.421,730.608 L1065.846,728.87 L1066.339,727.147 L1066.898,725.439 L1067.523,723.746 L1068.213,722.069 L1068.968,720.409 L1069.786,718.765 L1070.666,717.139 L1071.608,715.532 L1072.61,713.943 L1073.673,712.373 L1074.794,710.823 L1075.973,709.293 L1077.209,707.784 L1078.502,706.297 L1079.85,704.832 L1081.253,703.389 L1082.709,701.969 L1084.218,700.573 L1085.779,699.201 L1087.391,697.854 L1089.053,696.532 L1090.765,695.236 L1092.524,693.967 L1094.331,692.724 L1096.185,691.509 L1098.085,690.322 L1100.029,689.163 L1102.017,688.034 L1104.049,686.934 L1106.123,685.864 L1108.238,684.825 L1110.393,683.818 L1112.588,682.842 L1114.822,681.899 L1117.093,680.989 L1119.402,680.112 L1121.746,679.27 L1124.126,678.462 L1126.54,677.689 L1128.987,676.952 L1131.467,676.251 L1133.979,675.587 L1136.521,674.961 L1139.094,674.372 L1141.695,673.822 L1144.324,673.311 L1146.981,672.839 L1149.664,672.408 L1152.373,672.017 L1155.106,671.667 L1157.863,671.36 L1160.643,671.094 L1163.445,670.872 L1166.268,670.693 L1169.111,670.557 L1171.973,670.467 L1174.854,670.421 L1176.301,670.415 L1176.301,670.415 C1176.301,670.415 1176.301,670.415 1176.301,670.415 L1176.301,670.415 L1176.315,669.511 L1176.425,667.71 L1176.642,665.921 L1176.967,664.144 L1177.397,662.38 L1177.931,660.629 L1178.568,658.891 L1179.307,657.168 L1180.146,655.46 L1181.083,653.767 L1182.119,652.09 L1183.25,650.43 L1184.477,648.786 L1185.798,647.16 L1187.21,645.553 L1188.714,643.964 L1190.308,642.394 L1191.989,640.844 L1193.758,639.314 L1195.613,637.806 L1197.552,636.318 L1199.574,634.853 L1201.678,633.41 L1203.863,631.99 L1206.126,630.594 L1208.468,629.223 L1210.885,627.875 L1213.379,626.554 L1215.946,625.258 L1218.585,623.988 L1221.296,622.745 L1224.077,621.53 L1226.926,620.343 L1229.842,619.184 L1232.825,618.055 L1235.872,616.955 L1238.982,615.885 L1242.155,614.846 L1245.388,613.839 L1248.681,612.863 L1252.031,611.92 L1255.438,611.01 L1258.901,610.133 L1262.418,609.291 L1265.987,608.483 L1269.608,607.71 L1273.28,606.973 L1276.999,606.272 L1280.767,605.608 L1284.58,604.982 L1288.439,604.393 L1292.341,603.843 L1296.285,603.332 L1300.27,602.86 L1304.295,602.429 L1308.358,602.038 L1312.458,601.689 L1316.593,601.381 L1320.763,601.115 L1324.966,600.893 L1329.2,600.714 L1333.465,600.578 L1337.759,600.488 L1342.08,600.442 L1344.251,600.436 L1344.251,600.436 L1346.422,600.442 L1350.743,600.488 L1355.037,600.578 L1359.302,600.714 L1363.536,600.893 L1367.739,601.115 L1371.908,601.381 L1376.044,601.689 L1380.144,602.038 L1384.207,602.429 L1388.231,602.86 L1392.216,603.332 L1396.161,603.843 L1400.063,604.393 L1403.921,604.982 L1407.735,605.608 L1411.502,606.272 L1415.222,606.973 L1418.893,607.71 L1422.514,608.483 L1426.084,609.291 L1429.6,610.133 L1433.063,611.01 L1436.47,611.92 L1439.821,612.863 L1443.113,613.839 L1446.347,614.846 L1449.519,615.885 L1452.63,616.955 L1455.677,618.055 L1458.659,619.184 L1461.576,620.343 L1464.425,621.53 L1467.206,622.745 L1469.916,623.988 L1472.556,625.258 L1475.123,626.554 L1477.616,627.875 L1480.034,629.223 L1482.375,630.594 L1484.639,631.99 L1486.823,633.41 L1488.927,634.853 L1490.949,636.318 L1492.888,637.805 L1494.743,639.314 L1496.511,640.843 L1498.191,642.392 L1499.751,643.929 L1501.119,645.382 L1502.528,646.985 L1503.848,648.61 L1505.074,650.253 L1506.206,651.913 L1507.241,653.59 L1508.179,655.283 L1509.018,656.991 L1509.757,658.715 L1510.394,660.452 L1510.928,662.203 L1511.358,663.967 L1511.682,665.744 L1511.9,667.534 L1512.01,669.334 L1512.023,670.239 L1512.023,670.239 C1512.023,670.24 1512.063,670.28 1512.112,670.329 C1512.16,670.377 1512.199,670.415 1512.2,670.415 L1512.2,670.415 L1513.647,670.421 L1516.528,670.467 L1519.391,670.557 L1522.234,670.693 L1525.057,670.872 L1527.859,671.094 L1530.639,671.36 L1533.396,671.667 L1536.129,672.017 L1538.837,672.408 L1541.521,672.839 L1544.177,673.311 L1546.807,673.822 L1549.408,674.372 L1551.98,674.961 L1554.523,675.587 L1557.034,676.251 L1559.514,676.952 L1561.962,677.689 L1564.376,678.462 L1566.755,679.27 L1569.1,680.112 L1571.408,680.989 L1573.68,681.899 L1575.913,682.842 L1578.109,683.818 L1580.264,684.825 L1582.379,685.864 L1584.453,686.934 L1586.484,688.034 L1588.472,689.163 L1590.417,690.322 L1592.316,691.509 L1594.17,692.724 L1595.977,693.967 L1597.737,695.236 L1599.448,696.532 L1601.11,697.854 L1602.722,699.201 L1604.282,700.572 L1605.789,701.967 L1607.229,703.371 L1608.49,704.672 L1609.825,706.123 L1611.116,707.609 L1612.352,709.117 L1613.531,710.646 L1614.652,712.196 L1615.714,713.766 L1616.717,715.355 L1617.659,716.963 L1618.539,718.588 L1619.357,720.232 L1620.111,721.892 L1620.802,723.569 L1621.427,725.262 L1621.986,726.97 L1622.479,728.693 L1622.903,730.431 L1623.259,732.182 L1623.546,733.946 L1623.762,735.723 L1623.907,737.512 L1623.98,739.313 L1623.99,740.217 L1623.99,740.217 C1623.99,740.218 1624.029,740.259 1624.078,740.308 C1624.126,740.356 1624.165,740.394 1624.166,740.394 L1624.166,740.394 L1624.89,740.399 L1626.33,740.435 L1627.762,740.508 L1629.183,740.616 L1630.595,740.759 L1631.996,740.937 L1633.385,741.15 L1634.764,741.396 L1636.131,741.676 L1637.485,741.988 L1638.827,742.333 L1640.155,742.711 L1641.47,743.12 L1642.77,743.56 L1644.056,744.031 L1645.328,744.532 L1646.583,745.063 L1647.823,745.624 L1649.047,746.213 L1650.254,746.831 L1651.444,747.478 L1652.616,748.152 L1653.77,748.853 L1654.906,749.581 L1656.023,750.336 L1657.12,751.116 L1658.198,751.922 L1659.255,752.753 L1660.292,753.609 L1661.307,754.488 L1662.3,755.391 L1663.267,756.313 L1664.135,757.182 L1664.981,758.072 L1665.88,759.061 L1666.759,760.075 L1667.614,761.112 L1668.445,762.169 L1669.251,763.247 L1670.031,764.344 L1670.786,765.461 L1671.514,766.597 L1672.215,767.751 L1672.889,768.923 L1673.536,770.113 L1674.154,771.32 L1674.743,772.544 L1675.304,773.784 L1675.835,775.039 L1676.336,776.31 L1676.807,777.597 L1677.247,778.897 L1677.656,780.212 L1678.034,781.54 L1678.379,782.882 L1678.691,784.236 L1678.971,785.603 L1679.217,786.981 L1679.43,788.371 L1679.608,789.772 L1679.751,791.184 L1679.859,792.605 L1679.932,794.036 L1679.968,795.477 L1679.973,796.201 L1679.973,796.201 L1679.968,796.924 L1679.932,798.365 L1679.859,799.796 L1679.751,801.217 L1679.608,802.629 L1679.43,804.03 L1679.217,805.42 L1678.971,806.798 L1678.691,808.165 L1678.379,809.519 L1678.034,810.861 L1677.656,812.189 L1677.247,813.504 L1676.807,814.805 L1676.336,816.091 L1675.835,817.362 L1675.304,818.618 L1674.743,819.858 L1674.154,821.081 L1673.536,822.288 L1672.889,823.478 L1672.215,824.65 L1671.514,825.805 L1670.786,826.94 L1670.031,828.057 L1669.251,829.155 L1668.445,830.233 L1667.614,831.29 L1666.758,832.327 L1665.878,833.343 L1664.974,834.337 L1664.048,835.309 L1663.098,836.259 L1662.126,837.186 L1661.132,838.089 L1660.116,838.969 L1659.079,839.825 L1658.021,840.656 L1656.944,841.462 L1655.846,842.242 L1654.729,842.997 L1653.594,843.725 L1652.439,844.426 L1651.267,845.1 L1650.077,845.747 L1648.87,846.365 L1647.647,846.954 L1646.407,847.515 L1645.151,848.046 L1643.88,848.547 L1642.594,849.018 L1641.293,849.458 L1639.978,849.867 L1638.65,850.245 L1637.308,850.59 L1635.954,850.902 L1634.587,851.182 L1633.209,851.428 L1631.819,851.641 L1630.418,851.819 L1629.006,851.962 L1627.585,852.07 L1626.154,852.143 L1624.713,852.179 L1623.99,852.184 L1623.99,852.184 C1623.99,852.184 1623.99,852.184 1623.99,852.184 L1623.99,852.184 L1623.98,853.088 L1623.907,854.889 L1623.762,856.678 L1623.546,858.455 L1623.259,860.219 L1622.903,861.97 L1622.479,863.708 L1621.986,865.431 L1621.427,867.139 L1620.802,868.832 L1620.111,870.509 L1619.357,872.169 L1618.539,873.813 L1617.659,875.439 L1616.717,877.046 L1615.714,878.635 L1614.652,880.205 L1613.531,881.755 L1612.352,883.285 L1611.115,884.793 L1609.823,886.281 L1608.474,887.746 L1607.072,889.189 L1605.615,890.609 L1604.106,892.005 L1602.546,893.376 L1600.934,894.724 L1599.271,896.045 L1597.56,897.341 L1595.8,898.611 L1593.993,899.854 L1592.14,901.069 L1590.24,902.256 L1588.296,903.415 L1586.307,904.544 L1584.276,905.644 L1582.202,906.714 L1580.087,907.753 L1577.932,908.76 L1575.737,909.736 L1573.503,910.679 L1571.232,911.589 L1568.923,912.466 L1566.579,913.308 L1564.199,914.116 L1561.785,914.889 L1559.338,915.626 L1556.858,916.327 L1554.346,916.991 L1551.804,917.617 L1549.231,918.206 L1546.63,918.756 L1544,919.267 L1541.344,919.739 L1538.661,920.17 L1535.952,920.561 L1533.219,920.91 L1530.462,921.218 L1527.682,921.484 L1524.88,921.706 L1522.057,921.885 L1519.214,922.021 L1516.351,922.111 L1513.47,922.157 L1512.023,922.163 L1512.023,922.163 C1512.023,922.163 1512.023,922.163 1512.023,922.163 L1512.023,922.163 L1512.01,923.067 L1511.9,924.868 L1511.682,926.657 L1511.358,928.434 L1510.928,930.198 L1510.394,931.949 L1509.757,933.687 L1509.018,935.41 L1508.179,937.118 L1507.241,938.811 L1506.206,940.488 L1505.074,942.148 L1503.848,943.792 L1502.527,945.418 L1501.114,947.025 L1499.611,948.614 L1498.017,950.184 L1496.335,951.734 L1494.566,953.264 L1492.712,954.772 L1490.773,956.26 L1488.751,957.725 L1486.647,959.168 L1484.462,960.587 L1482.199,961.983 L1479.857,963.355 L1477.439,964.703 L1474.946,966.024 L1472.379,967.32 L1469.74,968.59 L1467.029,969.833 L1464.248,971.048 L1461.399,972.235 L1458.482,973.394 L1455.5,974.523 L1452.453,975.623 L1449.342,976.693 L1446.17,977.731 L1442.937,978.739 L1439.644,979.714 L1436.294,980.658 L1432.886,981.568 L1429.424,982.444 L1425.907,983.287 L1422.337,984.095 L1418.716,984.868 L1415.045,985.605 L1411.325,986.306 L1407.558,986.969 L1403.744,987.596 L1399.886,988.185 L1395.984,988.735 L1392.04,989.246 L1388.055,989.718 L1384.03,990.149 L1379.967,990.54 L1375.867,990.889 L1371.732,991.197 L1367.562,991.463 L1363.359,991.685 L1359.125,991.864 L1354.86,991.999 L1350.566,992.09 L1346.245,992.136 L1344.074,992.141 L1344.074,992.141 L1341.903,992.136 L1337.582,992.09 L1333.288,991.999 L1329.023,991.864 L1324.789,991.685 L1320.586,991.463 L1316.416,991.197 L1312.281,990.889 L1308.181,990.54 L1304.118,990.149 L1300.093,989.718 L1296.108,989.246 L1292.164,988.735 L1288.262,988.185 L1284.404,987.596 L1280.59,986.969 L1276.823,986.306 L1273.103,985.605 L1269.432,984.868 L1265.811,984.095 L1262.241,983.287 L1258.724,982.445 L1255.262,981.568 L1251.854,980.658 L1248.504,979.715 L1245.211,978.739 L1241.978,977.731 L1238.806,976.693 L1235.695,975.623 L1232.648,974.523 L1229.666,973.394 L1226.749,972.235 L1223.9,971.048 L1221.119,969.833 L1218.408,968.59 L1215.769,967.32 L1213.202,966.024 L1210.709,964.703 L1208.291,963.355 L1205.949,961.984 L1203.686,960.587 L1201.501,959.168 L1199.398,957.725 L1197.375,956.26 L1195.437,954.773 L1193.582,953.264 L1191.814,951.735 L1190.134,950.186 L1188.573,948.649 L1187.205,947.196 L1185.797,945.593 L1184.477,943.968 L1183.25,942.325 L1182.119,940.664 L1181.083,938.988 L1180.145,937.295 L1179.307,935.586 L1178.568,933.863 L1177.931,932.126 L1177.397,930.375 L1176.967,928.61 L1176.642,926.833 L1176.425,925.044 L1176.315,923.244 L1176.301,922.339 L1176.301,922.339 C1176.301,922.338 1176.262,922.298 1176.213,922.249 C1176.165,922.201 1176.126,922.163 1176.125,922.163 L1176.125,922.163 L1174.677,922.157 L1171.797,922.111 L1168.934,922.021 L1166.091,921.885 L1163.268,921.706 L1160.466,921.484 L1157.686,921.218 L1154.929,920.91 L1152.196,920.561 L1149.487,920.17 L1146.804,919.739 L1144.147,919.267 L1141.518,918.756 L1138.917,918.206 L1136.344,917.617 L1133.802,916.991 L1131.29,916.327 L1128.811,915.626 L1126.363,914.889 L1123.949,914.116 L1121.569,913.308 L1119.225,912.466 L1116.916,911.589 L1114.645,910.679 L1112.411,909.736 L1110.216,908.76 L1108.061,907.753 L1105.946,906.714 L1103.872,905.644 L1101.841,904.544 L1099.852,903.415 L1097.908,902.256 L1096.009,901.069 L1094.155,899.854 L1092.348,898.611 L1090.588,897.342 L1088.877,896.046 L1087.215,894.724 L1085.603,893.377 L1084.043,892.005 L1082.536,890.611 L1081.096,889.207 L1079.835,887.906 L1078.5,886.455 L1077.209,884.969 L1075.973,883.461 L1074.794,881.931 L1073.672,880.382 L1072.61,878.812 L1071.608,877.223 L1070.666,875.615 L1069.786,873.99 L1068.968,872.346 L1068.213,870.686 L1067.523,869.009 L1066.898,867.316 L1066.339,865.608 L1065.846,863.884 L1065.421,862.147 L1065.065,860.396 L1064.779,858.632 L1064.562,856.855 L1064.417,855.066 L1064.344,853.265 L1064.335,852.36 L1064.335,852.36 C1064.335,852.359 1064.296,852.319 1064.247,852.27 C1064.199,852.222 1064.159,852.184 1064.158,852.184 L1064.158,852.184 L1063.435,852.179 L1061.994,852.143 L1060.563,852.07 L1059.141,851.962 L1057.73,851.819 L1056.329,851.641 L1054.939,851.428 L1053.561,851.182 L1052.194,850.902 L1050.84,850.59 L1049.498,850.245 L1048.17,849.867 L1046.855,849.458 L1045.554,849.018 L1044.268,848.547 L1042.997,848.046 L1041.741,847.515 L1040.501,846.954 L1039.278,846.365 L1038.071,845.747 L1036.881,845.1 L1035.709,844.426 L1034.554,843.725 L1033.419,842.997 L1032.302,842.242 L1031.204,841.462 L1030.127,840.656 L1029.069,839.825 L1028.033,838.969 L1027.017,838.09 L1026.024,837.187 L1025.057,836.265 L1024.19,835.396 L1023.344,834.506 L1022.445,833.517 L1021.566,832.503 L1020.711,831.466 L1019.88,830.409 L1019.074,829.331 L1018.294,828.234 L1017.539,827.117 L1016.811,825.981 L1016.11,824.827 L1015.436,823.655 L1014.789,822.465 L1014.171,821.258 L1013.581,820.034 L1013.021,818.794 L1012.49,817.539 L1011.988,816.267 L1011.517,814.981 L1011.077,813.681 L1010.668,812.366 L1010.291,811.038 L1009.946,809.696 L1009.633,808.342 L1009.354,806.975 L1009.108,805.597 L1008.895,804.207 L1008.717,802.806 L1008.574,801.394 L1008.466,799.973 L1008.393,798.541 L1008.357,797.101 L1008.352,796.377 L1008.352,796.377 C1008.352,796.376 1008.312,796.336 1008.264,796.287 C1008.215,796.238 1008.175,796.2 1008.175,796.201 C1008.175,796.201 1008.175,796.201 1008.175,796.201 L1008.18,796.924 L1008.216,798.365 L1008.289,799.796 L1008.397,801.218 L1008.54,802.629 L1008.718,804.03 L1008.931,805.42 L1009.177,806.798 L1009.457,808.165 L1009.769,809.519 L1010.114,810.861 L1010.492,812.189 L1010.901,813.504 L1011.341,814.805 L1011.812,816.091 L1012.313,817.362 L1012.844,818.618 L1013.405,819.858 L1013.994,821.081 L1014.612,822.288 L1015.259,823.478 L1015.933,824.651 L1016.634,825.805 L1017.362,826.941 L1018.117,828.057 L1018.897,829.155 L1019.704,830.233 L1020.535,831.291 L1021.391,832.328 L1022.272,833.345 L1023.18,834.344 L1024.188,835.398 L1025.22,836.429 L1026.197,837.361 L1027.192,838.265 L1028.208,839.145 L1029.245,840.001 L1030.303,840.832 L1031.381,841.638 L1032.478,842.419 L1033.595,843.173 L1034.731,843.901 L1035.885,844.603 L1037.057,845.277 L1038.247,845.923 L1039.454,846.542 L1040.678,847.131 L1041.918,847.692 L1043.174,848.223 L1044.445,848.724 L1045.731,849.195 L1047.032,849.635 L1048.347,850.044 L1049.675,850.421 L1051.016,850.766 L1052.371,851.079 L1053.737,851.359 L1055.116,851.605 L1056.506,851.817 L1057.907,851.995 L1059.318,852.139 L1060.74,852.247 L1062.171,852.319 L1063.612,852.356 L1064.335,852.36 L1064.158,852.184 L1064.168,853.088 L1064.24,854.889 L1064.386,856.678 L1064.602,858.455 L1064.889,860.219 L1065.245,861.97 L1065.669,863.708 L1066.162,865.431 L1066.721,867.139 L1067.346,868.832 L1068.037,870.509 L1068.791,872.169 L1069.609,873.813 L1070.489,875.439 L1071.431,877.046 L1072.434,878.635 L1073.496,880.205 L1074.617,881.755 L1075.797,883.285 L1077.033,884.794 L1078.328,886.283 L1079.689,887.763 L1081.234,889.347 L1082.706,890.783 L1084.217,892.18 L1085.779,893.553 L1087.391,894.9 L1089.053,896.222 L1090.764,897.518 L1092.524,898.788 L1094.331,900.031 L1096.185,901.246 L1098.085,902.433 L1100.029,903.592 L1102.017,904.721 L1104.049,905.821 L1106.122,906.891 L1108.237,907.929 L1110.393,908.937 L1112.588,909.912 L1114.822,910.856 L1117.093,911.766 L1119.402,912.642 L1121.746,913.485 L1124.126,914.293 L1126.54,915.066 L1128.987,915.803 L1131.467,916.503 L1133.979,917.167 L1136.521,917.794 L1139.094,918.383 L1141.695,918.933 L1144.324,919.444 L1146.981,919.915 L1149.664,920.347 L1152.373,920.738 L1155.106,921.087 L1157.863,921.395 L1160.643,921.66 L1163.445,921.883 L1166.268,922.062 L1169.111,922.197 L1171.973,922.288 L1174.854,922.334 L1176.301,922.339 L1176.125,922.163 L1176.138,923.067 L1176.248,924.868 L1176.465,926.657 L1176.79,928.434 L1177.22,930.198 L1177.754,931.949 L1178.391,933.687 L1179.13,935.41 L1179.969,937.118 L1180.906,938.811 L1181.942,940.488 L1183.074,942.149 L1184.301,943.792 L1185.622,945.419 L1187.039,947.031 L1188.678,948.756 L1190.305,950.358 L1191.988,951.91 L1193.758,953.44 L1195.613,954.949 L1197.552,956.436 L1199.574,957.902 L1201.678,959.344 L1203.862,960.764 L1206.126,962.16 L1208.467,963.532 L1210.885,964.879 L1213.378,966.201 L1215.945,967.497 L1218.585,968.767 L1221.296,970.01 L1224.076,971.225 L1226.926,972.412 L1229.842,973.571 L1232.825,974.7 L1235.872,975.8 L1238.982,976.869 L1242.155,977.908 L1245.388,978.916 L1248.681,979.891 L1252.031,980.834 L1255.438,981.745 L1258.901,982.621 L1262.418,983.464 L1265.987,984.272 L1269.608,985.045 L1273.28,985.782 L1276.999,986.482 L1280.767,987.146 L1284.58,987.773 L1288.439,988.362 L1292.341,988.912 L1296.285,989.423 L1300.27,989.894 L1304.295,990.326 L1308.358,990.717 L1312.458,991.066 L1316.593,991.374 L1320.763,991.639 L1324.966,991.862 L1329.2,992.041 L1333.465,992.176 L1337.759,992.267 L1342.08,992.312 L1344.251,992.318 L1344.251,992.318 C1344.252,992.318 1344.213,992.279 1344.164,992.23 C1344.115,992.181 1344.075,992.141 1344.074,992.141 C1344.073,992.141 1344.112,992.181 1344.161,992.23 C1344.209,992.279 1344.25,992.318 1344.251,992.318 L1344.251,992.318 L1346.422,992.312 L1350.743,992.267 L1355.037,992.176 L1359.302,992.041 L1363.536,991.862 L1367.739,991.639 L1371.908,991.374 L1376.044,991.066 L1380.144,990.717 L1384.207,990.326 L1388.231,989.894 L1392.216,989.423 L1396.161,988.912 L1400.063,988.362 L1403.921,987.773 L1407.735,987.146 L1411.502,986.482 L1415.222,985.782 L1418.893,985.045 L1422.514,984.272 L1426.084,983.464 L1429.6,982.621 L1433.063,981.745 L1436.47,980.834 L1439.821,979.891 L1443.113,978.916 L1446.347,977.908 L1449.519,976.869 L1452.63,975.8 L1455.677,974.7 L1458.659,973.571 L1461.576,972.412 L1464.425,971.225 L1467.206,970.01 L1469.917,968.767 L1472.556,967.497 L1475.123,966.201 L1477.616,964.879 L1480.034,963.532 L1482.375,962.16 L1484.639,960.764 L1486.823,959.344 L1488.927,957.902 L1490.949,956.436 L1492.889,954.949 L1494.743,953.44 L1496.512,951.911 L1498.194,950.361 L1499.787,948.791 L1501.291,947.202 L1502.704,945.594 L1504.024,943.969 L1505.251,942.325 L1506.383,940.665 L1507.418,938.988 L1508.356,937.295 L1509.195,935.586 L1509.934,933.863 L1510.571,932.126 L1511.105,930.375 L1511.535,928.61 L1511.859,926.833 L1512.077,925.044 L1512.186,923.244 L1512.2,922.339 L1512.2,922.339 L1513.647,922.334 L1516.528,922.288 L1519.391,922.197 L1522.234,922.062 L1525.057,921.883 L1527.859,921.66 L1530.639,921.395 L1533.396,921.087 L1536.129,920.738 L1538.837,920.347 L1541.521,919.915 L1544.177,919.444 L1546.807,918.933 L1549.408,918.383 L1551.98,917.794 L1554.523,917.167 L1557.034,916.503 L1559.514,915.803 L1561.962,915.066 L1564.376,914.293 L1566.755,913.485 L1569.1,912.642 L1571.408,911.766 L1573.68,910.856 L1575.914,909.912 L1578.109,908.937 L1580.264,907.929 L1582.379,906.891 L1584.453,905.821 L1586.484,904.721 L1588.472,903.592 L1590.417,902.433 L1592.316,901.246 L1594.17,900.031 L1595.977,898.788 L1597.737,897.518 L1599.448,896.222 L1601.11,894.9 L1602.722,893.553 L1604.283,892.181 L1605.792,890.785 L1607.249,889.366 L1608.651,887.923 L1609.999,886.458 L1611.292,884.97 L1612.528,883.461 L1613.708,881.932 L1614.829,880.382 L1615.891,878.812 L1616.894,877.223 L1617.836,875.615 L1618.716,873.99 L1619.534,872.346 L1620.288,870.686 L1620.978,869.009 L1621.604,867.316 L1622.163,865.608 L1622.655,863.885 L1623.08,862.147 L1623.436,860.396 L1623.723,858.632 L1623.939,856.855 L1624.084,855.066 L1624.157,853.265 L1624.166,852.36 L1624.166,852.36 L1624.89,852.356 L1626.33,852.319 L1627.762,852.247 L1629.183,852.139 L1630.595,851.995 L1631.996,851.817 L1633.386,851.605 L1634.764,851.359 L1636.131,851.079 L1637.485,850.766 L1638.827,850.421 L1640.155,850.044 L1641.47,849.635 L1642.77,849.195 L1644.056,848.724 L1645.328,848.223 L1646.583,847.692 L1647.823,847.131 L1649.047,846.542 L1650.254,845.923 L1651.444,845.277 L1652.616,844.603 L1653.771,843.902 L1654.906,843.173 L1656.023,842.419 L1657.121,841.638 L1658.198,840.832 L1659.256,840.001 L1660.293,839.146 L1661.308,838.266 L1662.302,837.362 L1663.275,836.435 L1664.224,835.486 L1665.151,834.513 L1666.055,833.519 L1666.935,832.504 L1667.79,831.467 L1668.621,830.409 L1669.427,829.332 L1670.208,828.234 L1670.962,827.117 L1671.691,825.981 L1672.392,824.827 L1673.066,823.655 L1673.712,822.465 L1674.33,821.258 L1674.92,820.034 L1675.481,818.794 L1676.012,817.539 L1676.513,816.267 L1676.984,814.981 L1677.424,813.681 L1677.833,812.366 L1678.21,811.038 L1678.556,809.696 L1678.868,808.342 L1679.148,806.975 L1679.394,805.597 L1679.606,804.207 L1679.784,802.806 L1679.928,801.394 L1680.036,799.973 L1680.108,798.541 L1680.145,797.101 L1680.149,796.377 L1680.149,796.377 C1680.149,796.376 1680.11,796.336 1680.061,796.287 C1680.012,796.238 1679.973,796.2 1679.973,796.201 C1679.973,796.202 1680.012,796.242 1680.061,796.291 C1680.11,796.34 1680.149,796.378 1680.149,796.377 L1680.149,796.377 L1680.145,795.654 L1680.108,794.213 L1680.036,792.782 L1679.928,791.36 L1679.784,789.949 L1679.606,788.548 L1679.394,787.158 L1679.148,785.78 L1678.868,784.413 L1678.556,783.059 L1678.21,781.717 L1677.833,780.389 L1677.424,779.074 L1676.984,777.773 L1676.513,776.487 L1676.012,775.216 L1675.481,773.96 L1674.92,772.72 L1674.33,771.496 L1673.712,770.289 L1673.066,769.1 L1672.392,767.927 L1671.691,766.773 L1670.962,765.637 L1670.208,764.52 L1669.427,763.423 L1668.621,762.345 L1667.79,761.287 L1666.934,760.25 L1666.053,759.233 L1665.145,758.234 L1664.137,757.18 L1663.105,756.149 L1662.128,755.217 L1661.133,754.313 L1660.116,753.433 L1659.079,752.577 L1658.022,751.746 L1656.944,750.94 L1655.846,750.159 L1654.73,749.405 L1653.594,748.676 L1652.44,747.975 L1651.267,747.301 L1650.077,746.655 L1648.87,746.036 L1647.647,745.447 L1646.407,744.886 L1645.151,744.355 L1643.88,743.854 L1642.594,743.383 L1641.293,742.943 L1639.978,742.534 L1638.65,742.157 L1637.308,741.811 L1635.954,741.499 L1634.587,741.219 L1633.209,740.973 L1631.819,740.761 L1630.418,740.583 L1629.006,740.439 L1627.585,740.331 L1626.154,740.258 L1624.713,740.222 L1623.99,740.217 L1624.166,740.394 L1624.157,739.49 L1624.084,737.689 L1623.939,735.9 L1623.723,734.123 L1623.436,732.359 L1623.08,730.608 L1622.655,728.87 L1622.163,727.147 L1621.604,725.439 L1620.978,723.746 L1620.288,722.069 L1619.534,720.408 L1618.716,718.765 L1617.835,717.139 L1616.894,715.531 L1615.891,713.942 L1614.829,712.373 L1613.708,710.823 L1612.528,709.293 L1611.291,707.784 L1609.997,706.295 L1608.635,704.815 L1607.091,703.231 L1605.619,701.795 L1604.108,700.397 L1602.546,699.025 L1600.934,697.678 L1599.272,696.356 L1597.56,695.06 L1595.801,693.79 L1593.993,692.547 L1592.14,691.332 L1590.24,690.145 L1588.296,688.986 L1586.307,687.857 L1584.276,686.757 L1582.202,685.687 L1580.087,684.649 L1577.932,683.641 L1575.737,682.666 L1573.503,681.722 L1571.232,680.812 L1568.923,679.936 L1566.579,679.093 L1564.199,678.285 L1561.785,677.512 L1559.338,676.775 L1556.858,676.074 L1554.346,675.411 L1551.804,674.784 L1549.231,674.195 L1546.63,673.645 L1544,673.134 L1541.344,672.662 L1538.661,672.231 L1535.952,671.84 L1533.219,671.491 L1530.462,671.183 L1527.682,670.917 L1524.88,670.695 L1522.057,670.516 L1519.214,670.381 L1516.351,670.29 L1513.47,670.244 L1512.023,670.239 L1512.2,670.415 L1512.186,669.511 L1512.077,667.71 L1511.859,665.921 L1511.535,664.144 L1511.105,662.38 L1510.571,660.629 L1509.934,658.891 L1509.195,657.168 L1508.356,655.46 L1507.418,653.767 L1506.383,652.09 L1505.251,650.429 L1504.024,648.786 L1502.703,647.159 L1501.286,645.547 L1499.647,643.822 L1498.02,642.219 L1496.336,640.668 L1494.567,639.138 L1492.712,637.629 L1490.773,636.142 L1488.751,634.676 L1486.647,633.233 L1484.462,631.814 L1482.199,630.418 L1479.857,629.046 L1477.439,627.699 L1474.946,626.377 L1472.379,625.081 L1469.74,623.811 L1467.029,622.568 L1464.248,621.353 L1461.399,620.166 L1458.482,619.007 L1455.5,617.878 L1452.453,616.778 L1449.342,615.708 L1446.17,614.67 L1442.937,613.662 L1439.644,612.687 L1436.294,611.743 L1432.886,610.833 L1429.424,609.957 L1425.907,609.114 L1422.337,608.306 L1418.716,607.533 L1415.045,606.796 L1411.325,606.096 L1407.558,605.432 L1403.744,604.805 L1399.886,604.216 L1395.984,603.666 L1392.04,603.155 L1388.055,602.684 L1384.03,602.252 L1379.967,601.861 L1375.867,601.512 L1371.732,601.204 L1367.562,600.939 L1363.359,600.716 L1359.125,600.537 L1354.86,600.402 L1350.566,600.311 L1346.245,600.265 L1344.074,600.26 L1344.074,600.26 C1344.073,600.26 1344.112,600.299 1344.161,600.348 C1344.209,600.397 1344.25,600.436 1344.251,600.436 C1344.252,600.436 1344.213,600.397 1344.164,600.348 C1344.115,600.299 1344.075,600.26 1344.074,600.26 L1344.074,600.26 L1341.903,600.265 L1337.582,600.311 L1333.288,600.402 L1329.023,600.537 L1324.789,600.716 L1320.586,600.939 L1316.416,601.204 L1312.281,601.512 L1308.181,601.861 L1304.118,602.252 L1300.093,602.684 L1296.108,603.155 L1292.164,603.666 L1288.262,604.216 L1284.404,604.805 L1280.59,605.432 L1276.823,606.096 L1273.103,606.796 L1269.432,607.533 L1265.811,608.306 L1262.241,609.114 L1258.724,609.957 L1255.262,610.833 L1251.854,611.743 L1248.504,612.687 L1245.211,613.662 L1241.978,614.67 L1238.806,615.708 L1235.695,616.778 L1232.648,617.878 L1229.666,619.007 L1226.749,620.166 L1223.9,621.353 L1221.119,622.568 L1218.408,623.811 L1215.769,625.081 L1213.202,626.377 L1210.709,627.699 L1208.291,629.046 L1205.949,630.418 L1203.686,631.814 L1201.501,633.233 L1199.397,634.676 L1197.375,636.142 L1195.436,637.629 L1193.582,639.138 L1191.813,640.667 L1190.131,642.217 L1188.537,643.787 L1187.034,645.376 L1185.621,646.984 L1184.3,648.609 L1183.074,650.253 L1181.942,651.913 L1180.906,653.59 L1179.969,655.283 L1179.13,656.991 L1178.391,658.715 L1177.754,660.452 L1177.22,662.203 L1176.79,663.967 L1176.465,665.744 L1176.248,667.533 L1176.138,669.334 L1176.125,670.239 L1176.125,670.239 L1174.677,670.244 L1171.797,670.29 L1168.934,670.381 L1166.091,670.516 L1163.268,670.695 L1160.466,670.917 L1157.686,671.183 L1154.929,671.491 L1152.196,671.84 L1149.487,672.231 L1146.804,672.662 L1144.147,673.134 L1141.518,673.645 L1138.917,674.195 L1136.344,674.784 L1133.802,675.411 L1131.29,676.074 L1128.81,676.775 L1126.363,677.512 L1123.949,678.285 L1121.569,679.093 L1119.225,679.936 L1116.916,680.812 L1114.645,681.722 L1112.411,682.666 L1110.216,683.641 L1108.061,684.649 L1105.946,685.687 L1103.872,686.757 L1101.841,687.857 L1099.852,688.986 L1097.908,690.145 L1096.008,691.332 L1094.155,692.547 L1092.348,693.79 L1090.588,695.06 L1088.876,696.356 L1087.214,697.677 L1085.602,699.025 L1084.042,700.397 L1082.532,701.793 L1081.076,703.212 L1079.674,704.655 L1078.325,706.12 L1077.033,707.608 L1075.796,709.116 L1074.617,710.646 L1073.496,712.196 L1072.433,713.766 L1071.431,715.355 L1070.489,716.963 L1069.609,718.588 L1068.791,720.232 L1068.037,721.892 L1067.346,723.569 L1066.721,725.262 L1066.162,726.97 L1065.669,728.693 L1065.245,730.431 L1064.889,732.182 L1064.602,733.946 L1064.386,735.723 L1064.24,737.512 L1064.168,739.313 L1064.158,740.217 L1064.158,740.217 L1063.435,740.222 L1061.994,740.258 L1060.563,740.331 L1059.141,740.439 L1057.73,740.583 L1056.329,740.761 L1054.939,740.973 L1053.561,741.219 L1052.194,741.499 L1050.84,741.811 L1049.498,742.157 L1048.17,742.534 L1046.855,742.943 L1045.554,743.383 L1044.268,743.854 L1042.997,744.355 L1041.741,744.886 L1040.501,745.447 L1039.278,746.036 L1038.071,746.655 L1036.881,747.301 L1035.708,747.975 L1034.554,748.676 L1033.419,749.404 L1032.302,750.159 L1031.204,750.94 L1030.126,751.745 L1029.069,752.576 L1028.032,753.432 L1027.016,754.312 L1026.022,755.216 L1025.05,756.142 L1024.1,757.092 L1023.173,758.064 L1022.27,759.059 L1021.39,760.074 L1020.534,761.111 L1019.703,762.169 L1018.897,763.246 L1018.117,764.344 L1017.362,765.461 L1016.634,766.596 L1015.933,767.751 L1015.259,768.923 L1014.612,770.113 L1013.994,771.32 L1013.405,772.544 L1012.844,773.783 L1012.313,775.039 L1011.812,776.31 L1011.341,777.597 L1010.901,778.897 L1010.492,780.212 L1010.114,781.54 L1009.769,782.882 L1009.457,784.236 L1009.177,785.603 L1008.931,786.981 L1008.718,788.371 L1008.54,789.772 L1008.397,791.184 L1008.289,792.605 L1008.216,794.036 L1008.18,795.477 L1008.175,796.201 C1008.175,796.201 1008.175,796.201 1008.175,796.201 C1008.175,796.202 1008.215,796.242 1008.264,796.291 C1008.312,796.34 1008.352,796.378 1008.352,796.377 L1008.352,796.377" fill="#000000"/>
    </g>
    <g>
      <path d="M588.39,432.399 L700.357,152.483" fill-opacity="0" stroke="#000000" stroke-width="10"/>
      <path d="M700.357,152.483 L924.289,264.449" fill-opacity="0" stroke="#000000" stroke-width="10"/>
    </g>
    <g>
      <path d="M587.89,487.882 C556.972,487.882 531.907,462.817 531.907,431.899 C531.907,400.98 556.972,375.916 587.89,375.916 C618.809,375.916 643.873,400.98 643.873,431.899 C643.873,462.817 618.809,487.882 587.89,487.882 z" fill="#000000"/>
      <g>
        <path d="M588.39,474.386 C565.201,474.386 546.403,455.588 546.403,432.399 C546.403,409.21 565.201,390.411 588.39,390.411 C611.579,390.411 630.378,409.21 630.378,432.399 C630.378,455.588 611.579,474.386 588.39,474.386 z" fill="#FFFFFF"/>
        <path d="M588.39,474.386 C565.201,474.386 546.403,455.588 546.403,432.399 C546.403,409.21 565.201,390.411 588.39,390.411 C611.579,390.411 630.378,409.21 630.378,432.399 C630.378,455.588 611.579,474.386 588.39,474.386 z" fill-opacity="0" stroke="#000000" stroke-width="1"/>
      </g>
      <text transform="matrix(1, 0, 0, 1, 594.888, 438.897)">
        <tspan x="-19.674" y="0.011" font-family="HelveticaNeue-Light" font-size="36" fill="#000000">n1</tspan>
      </text>
    </g>
    <g>
      <path d="M699.857,207.966 C668.938,207.966 643.873,182.902 643.873,151.983 C643.873,121.064 668.938,96 699.857,96 C730.775,96 755.84,121.064 755.84,151.983 C755.84,182.902 730.775,207.966 699.857,207.966 z" fill="#000000"/>
      <g>
        <path d="M700.357,194.47 C677.168,194.47 658.369,175.672 658.369,152.483 C658.369,129.294 677.168,110.496 700.357,110.496 C723.546,110.496 742.344,129.294 742.344,152.483 C742.344,175.672 723.546,194.47 700.357,194.47 z" fill="#FFFFFF"/>
        <path d="M700.357,194.47 C677.168,194.47 658.369,175.672 658.369,152.483 C658.369,129.294 677.168,110.496 700.357,110.496 C723.546,110.496 742.344,129.294 742.344,152.483 C742.344,175.672 723.546,194.47 700.357,194.47 z" fill-opacity="0" stroke="#000000" stroke-width="1"/>
      </g>
      <text transform="matrix(1, 0, 0, 1, 699.857, 158.981)">
        <tspan x="-19.332" y="0.011" font-family="HelveticaNeue-Light" font-size="36" fill="#000000">n?</tspan>
      </text>
    </g>
    <g>
      <g>
        <path d="M876.179,176.976 L1007.389,176.976 C1019.467,176.976 1029.257,186.767 1029.257,198.844 L1029.257,330.055 C1029.257,342.132 1019.467,351.923 1007.389,351.923 L876.179,351.923 C864.101,351.923 854.31,342.132 854.31,330.055 L854.31,198.844 C854.31,186.767 864.101,176.976 876.179,176.976 z" fill="#ECECEC"/>
        <path d="M876.179,176.976 L1007.389,176.976 C1019.467,176.976 1029.257,186.767 1029.257,198.844 L1029.257,330.055 C1029.257,342.132 1019.467,351.923 1007.389,351.923 L876.179,351.923 C864.101,351.923 854.31,342.132 854.31,330.055 L854.31,198.844 C854.31,186.767 864.101,176.976 876.179,176.976 z" fill-opacity="0" stroke="#000000" stroke-width="10"/>
      </g>
      <text transform="matrix(1, 0, 0, 1, 940, 263.949)">
        <tspan x="-24.66" y="7.008" font-family="HelveticaNeue-Light" font-size="36" fill="#000000">nm</tspan>
      </text>
    </g>
    <g>
      <path d="M1207.953,207.966 L1508.863,207.966 C1518.525,207.966 1526.357,215.799 1526.357,225.461 L1526.357,316.434 C1526.357,326.096 1518.525,333.928 1508.863,333.928 L1207.953,333.928 C1198.291,333.928 1190.459,326.096 1190.459,316.434 L1190.459,225.461 C1190.459,215.799 1198.291,207.966 1207.953,207.966 z" fill="#FF8000"/>
      <text transform="matrix(1, 0, 0, 1, 1358.408, 271.822)">
        <tspan x="-140.423" y="11.132" font-family="AndaleMono" font-size="36" fill="#FFFFFF">Monero-Daemon</tspan>
      </text>
    </g>
    <g>
      <path d="M1056.251,199.646 L1182.488,260.374" fill-opacity="0" stroke="#848484" stroke-width="3"/>
      <path d="M1048.502,199.214 C1047.735,197.025 1048.888,194.629 1051.077,193.862 C1053.266,193.095 1055.662,194.248 1056.429,196.437 C1057.197,198.626 1056.044,201.022 1053.855,201.789 C1051.665,202.556 1049.269,201.403 1048.502,199.214" fill="#848484" fill-opacity="1" stroke="#848484" stroke-width="3" stroke-opacity="1"/>
      <path d="M1182.488,260.374 L1178.144,262.945 L1190.058,264.016 L1181.786,255.376 z" fill="#848484" fill-opacity="1" stroke="#848484" stroke-width="3" stroke-opacity="1"/>
    </g>
    <g>
      <path d="M1344.162,562.956 L1344.162,361.323" fill-opacity="0" stroke="#000000" stroke-width="3"/>
      <path d="M1344.162,562.956 L1339.962,560.156 L1344.162,571.357 L1348.362,560.156 z" fill="#000000" fill-opacity="1" stroke="#000000" stroke-width="3" stroke-opacity="1"/>
      <path d="M1344.162,361.323 L1348.362,364.123 L1344.162,352.923 L1339.962,364.123 z" fill="#000000" fill-opacity="1" stroke="#000000" stroke-width="3" stroke-opacity="1"/>
    </g>
    <g>
      <g>
        <path d="M1043.729,151.983 C1071.321,151.983 1093.689,174.351 1093.689,201.944 C1093.575,213.065 1090.026,224.247 1082.893,232.891 L1129.231,279.229 L1116.52,291.941 L1069.386,244.807 C1061.587,249.563 1052.792,251.675 1043.729,251.904 C1016.136,251.904 993.768,229.536 993.768,201.944 C993.768,174.351 1016.136,151.983 1043.729,151.983 z" fill="#EE4C44"/>
        <path d="M1043.729,160.971 C1066.357,160.971 1084.701,179.315 1084.701,201.944 C1084.701,224.572 1066.357,242.916 1043.729,242.916 C1021.1,242.916 1002.756,224.572 1002.756,201.944 C1002.756,179.315 1021.1,160.971 1043.729,160.971 z" fill="#FFFFFF"/>
      </g>
      <g>
        <g>
          <path d="M1028.439,181.883 L1057.067,181.883 C1059.702,181.883 1061.838,184.019 1061.838,186.654 L1061.838,215.282 C1061.838,217.917 1059.702,220.053 1057.067,220.053 L1028.439,220.053 C1025.804,220.053 1023.668,217.917 1023.668,215.282 L1023.668,186.654 C1023.668,184.019 1025.804,181.883 1028.439,181.883" fill="#ECECEC"/>
          <path d="M1057.067,179.975 C1060.756,179.975 1063.747,182.965 1063.747,186.654 L1063.747,215.282 C1063.747,218.971 1060.756,221.962 1057.067,221.962 L1028.439,221.962 C1024.75,221.962 1021.76,218.971 1021.76,215.282 L1021.759,186.654 C1021.76,182.965 1024.75,179.975 1028.439,179.975 L1057.067,179.975 z M1057.067,183.792 L1028.439,183.792 L1027.862,183.85 C1026.454,184.261 1025.721,185.222 1025.577,186.654 L1025.577,215.282 C1025.577,216.863 1026.858,218.145 1028.439,218.145 L1057.067,218.145 C1058.648,218.145 1059.93,216.863 1059.93,215.282 L1059.93,186.654 C1059.93,185.073 1058.648,183.792 1057.067,183.792 z" fill="#000000"/>
        </g>
      </g>
    </g>
    <text transform="matrix(1, 0, 0, 1, 1336.664, 793.603)">
      <tspan x="-151.225" y="7.194" font-family="AndaleMono" font-size="36" fill="#000000">Monero-Network</tspan>
    </text>
    <text transform="matrix(1, 0, 0, 1, 377.954, 431.899)">
      <tspan x="-118.819" y="5.008" font-family="AndaleMono" font-size="36" fill="#000000">fc00:db8::1</tspan>
    </text>
    <text transform="matrix(1, 0, 0, 1, 475.924, 137.987)">
      <tspan x="-97.216" y="5.008" font-family="AndaleMono" font-size="36" fill="#000000">fc00:?::1</tspan>
    </text>
    <text transform="matrix(1, 0, 0, 1, 942, 403.907)">
      <tspan x="-118.819" y="5.008" font-family="AndaleMono" font-size="36" fill="#000000">fc00:db9::1</tspan>
    </text>
    <text transform="matrix(1, 0, 0, 1, 1044, 196.854)">
      <tspan x="-14.385" y="6.875" font-family="HelveticaNeue-Light" font-size="21" fill="#000000">nm</tspan>
    </text>
    <text transform="matrix(1, 0, 0, 1, 377.954, 499.721)">
      <tspan x="-64.811" y="5.008" font-family="AndaleMono" font-size="36" fill="#000000">laptop</tspan>
    </text>
    <text transform="matrix(1, 0, 0, 1, 940, 461.64)">
      <tspan x="-75.612" y="5.008" font-family="AndaleMono" font-size="36" fill="#000000">monerod</tspan>
    </text>
    <text transform="matrix(1, 0, 0, 1, 466.939, 210.363)">
      <tspan x="-162.026" y="-8.5" font-family="AndaleMono" font-size="36" fill="#000000">unknown-turpial</tspan>
    </text>
  </g>
</svg>
