<?xml version="1.0" encoding="UTF-8"?>
<!DOCTYPE svg PUBLIC "-//W3C//DTD SVG 1.1//EN" "http://www.w3.org/Graphics/SVG/1.1/DTD/svg11.dtd">
<svg version="1.1" xmlns="http://www.w3.org/2000/svg" xmlns:xlink="http://www.w3.org/1999/xlink" x="0" y="0" width="1041" height="591" viewBox="0, 0, 1041, 591">
  <g id="Capa_1">
    <g>
      <path d="M108,125.75 C108,139.143 97.255,150 84,150 C70.745,150 60,139.143 60,125.75 C60,112.357 70.745,101.5 84,101.5 C97.255,101.5 108,112.357 108,125.75 z" fill="#FFFFFF"/>
      <path d="M108,125.75 C108,139.143 97.255,150 84,150 C70.745,150 60,139.143 60,125.75 C60,112.357 70.745,101.5 84,101.5 C97.255,101.5 108,112.357 108,125.75 z" fill-opacity="0" stroke="#000000" stroke-width="1"/>
    </g>
    <text transform="matrix(1, 0, 0, 1, 84, 122)">
      <tspan x="-12.337" y="4" font-family="Helvetica" font-size="12" fill="#000000">USB</tspan>
    </text>
    <g>
      <g>
        <path d="M120,102 L240,102 L240,150.24 L120,150.24 z" fill="#FFFFFF"/>
        <path d="M120,102 L240,102 L240,150.24 L120,150.24 z" fill-opacity="0" stroke="#000000" stroke-width="1"/>
      </g>
      <text transform="matrix(1, 0, 0, 1, 180, 122)">
        <tspan x="-37.02" y="4" font-family="Helvetica" font-size="12" fill="#000000">Power Supply</tspan>
      </text>
    </g>
    <text transform="matrix(1, 0, 0, 1, 648.302, 182)">
      <tspan x="-19.008" y="4" font-family="Helvetica" font-size="12" fill="#000000">Battery</tspan>
    </text>
    <g>
      <path d="M276,101.435 L396,101.435 L396,150.805 L276,150.805 z" fill="#FFFFFF"/>
      <path d="M276,101.435 L396,101.435 L396,150.805 L276,150.805 z" fill-opacity="0" stroke="#000000" stroke-width="1"/>
    </g>
    <text transform="matrix(1, 0, 0, 1, 336, 122)">
      <tspan x="-42.352" y="4" font-family="Helvetica" font-size="12" fill="#000000">Battery Charger</tspan>
    </text>
    <path d="M84,101.5 L84,80.376 L504,78 L504,102" fill-opacity="0" stroke="#67AB9F" stroke-width="2" stroke-miterlimit="10"/>
    <g>
      <path d="M432,102 L552,102 L552,150 L432,150 z" fill="#FFFFFF"/>
      <path d="M432,102 L552,102 L552,150 L432,150 z" fill-opacity="0" stroke="#000000" stroke-width="1"/>
    </g>
    <text transform="matrix(1, 0, 0, 1, 492, 122)">
      <tspan x="-52.524" y="2" font-family="Helvetica" font-size="10" fill="#000000">Battery Power Manager</tspan>
    </text>
    <path d="M648,198 L648,210 L179.922,210 L180,150" fill-opacity="0" stroke="#A680B8" stroke-width="2" stroke-miterlimit="10"/>
    <path d="M348,318.24 L348,430" fill-opacity="0" stroke="#3333FF" stroke-width="2" stroke-miterlimit="10"/>
    <path d="M276,450 L179.922,450 L180,318" fill-opacity="0" stroke="#3333FF" stroke-width="2" stroke-miterlimit="10"/>
    <path d="M372,450 L372,366 L456,366 L456,300" fill-opacity="0" stroke="#3333FF" stroke-width="2" stroke-miterlimit="10"/>
    <path d="M84,150 L84,294.5 L120,294.5" fill-opacity="0" stroke="#3333FF" stroke-width="2" stroke-miterlimit="10"/>
    <path d="M360.26,438 L360.26,450 L492,450 L492,438" fill-opacity="0" stroke="#000000" stroke-width="2" stroke-miterlimit="10"/>
    <g>
      <g>
        <path d="M432,426 L552,426 L552,474 L432,474 z" fill="#FFFFFF"/>
        <path d="M432,426 L552,426 L552,474 L432,474 z" fill-opacity="0" stroke="#000000" stroke-width="1"/>
      </g>
      <text transform="matrix(1, 0, 0, 1, 492, 452.6)">
        <tspan x="-21.571" y="2.6" font-family="Helvetica" font-size="12" fill="#000000">CC1190</tspan>
      </text>
    </g>
    <g>
      <path d="M806,108 L982,108 C993.046,108 1002,116.954 1002,128 L1002,268 C1002,279.046 993.046,288 982,288 L806,288 C794.954,288 786,279.046 786,268 L786,128 C786,116.954 794.954,108 806,108 z" fill="#E9E9E9"/>
      <g>
        <path d="M798,132 L818,132 L818,152 L798,152 z" fill="#3333FF"/>
        <path d="M798,132 L818,132 L818,152 L798,152 z" fill-opacity="0" stroke="#000000" stroke-width="1"/>
      </g>
      <g>
        <path d="M798,162 L818,162 L818,182 L798,182 z" fill="#A680B8"/>
        <path d="M798,162 L818,162 L818,182 L798,182 z" fill-opacity="0" stroke="#000000" stroke-width="1"/>
      </g>
      <g>
        <path d="M798,192 L818,192 L818,212 L798,212 z" fill="#67AB9F"/>
        <path d="M798,192 L818,192 L818,212 L798,212 z" fill-opacity="0" stroke="#000000" stroke-width="1"/>
      </g>
      <g>
        <path d="M798,222 L818,222 L818,242 L798,242 z" fill="#000000"/>
        <path d="M798,222 L818,222 L818,242 L798,242 z" fill-opacity="0" stroke="#000000" stroke-width="1"/>
      </g>
      <text transform="matrix(1, 0, 0, 1, 877.5, 141.5)">
        <tspan x="-29.681" y="4" font-family="Helvetica" font-size="12" fill="#000000">Serial Data</tspan>
      </text>
      <text transform="matrix(1, 0, 0, 1, 887.196, 171.5)">
        <tspan x="-40.696" y="4" font-family="Helvetica" font-size="12" fill="#000000">Battery Voltage</tspan>
      </text>
      <text transform="matrix(1, 0, 0, 1, 897.204, 231.5)">
        <tspan x="-50.704" y="4" font-family="Helvetica" font-size="12" fill="#000000">Analog Connection</tspan>
      </text>
      <text transform="matrix(1, 0, 0, 1, 863.5, 201.5)">
        <tspan x="-16.339" y="4" font-family="Helvetica" font-size="12" fill="#000000">VBUS</tspan>
      </text>
      <g>
        <path d="M798,252 L818,252 L818,272 L798,272 z" fill="#CC0000"/>
        <path d="M798,252 L818,252 L818,272 L798,272 z" fill-opacity="0" stroke="#000000" stroke-width="1"/>
      </g>
      <text transform="matrix(1, 0, 0, 1, 909.553, 261.5)">
        <tspan x="-63.053" y="4" font-family="Helvetica" font-size="12" fill="#000000">Regulated Voltage 3.3V</tspan>
      </text>
    </g>
    <path d="M108,300 L108,498 L456,498 L456,474" fill-opacity="0" stroke="#CC0000" stroke-width="2" stroke-linecap="round" stroke-miterlimit="10"/>
    <path d="M324,318 L324,366 L186,366" fill-opacity="0" stroke="#CC0000" stroke-width="2"/>
    <path d="M552,450 L633.25,448.5" fill-opacity="0" stroke="#000000" stroke-width="2" stroke-miterlimit="10"/>
    <text transform="matrix(1, 0, 0, 1, 714.317, 473)">
      <tspan x="-48.029" y="-11" font-family="Helvetica" font-size="12" fill="#000000">Sub-GHz antenna</tspan>
    </text>
    <path d="M300,318.26 L300,342 L204,342 L204,318" fill-opacity="0" stroke="#3333FF" stroke-width="2" stroke-miterlimit="10"/>
    <g>
      <g>
        <path d="M120,270 L240,270 L240,318 L120,318 z" fill="#FFFFFF"/>
        <path d="M120,270 L240,270 L240,318 L120,318 z" fill-opacity="0" stroke="#000000" stroke-width="1"/>
      </g>
      <text transform="matrix(1, 0, 0, 1, 179.5, 296.694)">
        <tspan x="-37.351" y="2.506" font-family="Helvetica" font-size="12" fill="#000000">USB Interface</tspan>
      </text>
    </g>
    <g>
      <g>
        <path d="M276,270 L396,270 L396,318.24 L276,318.24 z" fill="#FFFFFF"/>
        <path d="M276,270 L396,270 L396,318.24 L276,318.24 z" fill-opacity="0" stroke="#000000" stroke-width="1"/>
      </g>
      <text transform="matrix(1, 0, 0, 1, 336, 296.828)">
        <tspan x="-18.68" y="2.458" font-family="Helvetica" font-size="12" fill="#000000">ESP32</tspan>
      </text>
    </g>
    <g>
      <g>
        <path d="M276,426 L396,426 L396,474 L276,474 z" fill="#FFFFFF"/>
        <path d="M276,426 L396,426 L396,474 L276,474 z" fill-opacity="0" stroke="#000000" stroke-width="1"/>
      </g>
      <text transform="matrix(1, 0, 0, 1, 336, 455.6)">
        <tspan x="-26.347" y="-0.4" font-family="Helvetica" font-size="12" fill="#000000">CC1312R</tspan>
      </text>
    </g>
    <g>
      <path d="M635.749,263.812 C639.061,263.812 641.746,266.252 641.746,269.262 C641.698,271.421 640.333,273.391 638.248,274.191 L638.248,304.5 L633.25,304.5 L633.25,274.191 C631.109,273.404 629.87,271.408 629.751,269.262 C629.751,266.252 632.436,263.812 635.749,263.812 z" fill="#000000"/>
      <path d="M624.927,264.031 C623.847,265.624 623.211,267.565 623.211,269.646 C623.211,271.713 623.837,273.63 624.899,275.229 L623.053,276.483 C621.746,274.533 620.988,272.177 620.988,269.646 C620.988,267.095 621.755,264.727 623.075,262.771 L624.927,264.031 z" fill="#000000"/>
      <path d="M621.125,261.635 C619.588,263.915 618.697,266.671 618.697,269.635 C618.697,272.584 619.579,275.327 621.099,277.604 L619.293,278.871 C617.525,276.239 616.492,273.059 616.492,269.635 C616.492,266.205 617.531,263.024 619.299,260.381 L621.125,261.635 z" fill="#000000"/>
      <path d="M617.355,259.255 C615.366,262.216 614.203,265.79 614.203,269.64 C614.203,273.485 615.363,277.056 617.346,280.014 L615.514,281.25 C613.294,277.943 612,273.943 612,269.64 C612,265.328 613.306,261.319 615.538,258 L617.355,259.255 z" fill="#000000"/>
      <path d="M647.521,264.031 C648.6,265.624 649.236,267.565 649.236,269.646 C649.236,271.713 648.61,273.63 647.548,275.229 L649.394,276.483 C650.702,274.533 651.459,272.177 651.459,269.646 C651.459,267.095 650.693,264.727 649.373,262.771 L647.521,264.031 z" fill="#000000"/>
      <path d="M651.322,261.635 C652.859,263.915 653.75,266.671 653.75,269.635 C653.75,272.584 652.868,275.327 651.348,277.604 L653.154,278.871 C654.922,276.239 655.955,273.059 655.955,269.635 C655.955,266.205 654.916,263.024 653.148,260.381 L651.322,261.635 z" fill="#000000"/>
      <path d="M655.092,259.255 C657.081,262.216 658.244,265.79 658.244,269.64 C658.244,273.485 657.084,277.056 655.101,280.014 L656.933,281.25 C659.153,277.943 660.447,273.943 660.447,269.64 C660.447,265.328 659.141,261.319 656.909,258 L655.092,259.255 z" fill="#000000"/>
    </g>
    <g>
      <path d="M647.749,419.812 C651.061,419.812 653.746,422.252 653.746,425.262 C653.698,427.421 652.333,429.391 650.248,430.191 L650.248,460.5 L645.25,460.5 L645.25,430.191 C643.109,429.404 641.87,427.408 641.751,425.262 C641.751,422.252 644.436,419.812 647.749,419.812 z" fill="#000000"/>
      <path d="M636.927,420.031 C635.847,421.624 635.211,423.565 635.211,425.646 C635.211,427.713 635.837,429.63 636.899,431.229 L635.053,432.483 C633.746,430.533 632.988,428.177 632.988,425.646 C632.988,423.095 633.755,420.727 635.075,418.771 L636.927,420.031 z" fill="#000000"/>
      <path d="M633.125,417.635 C631.588,419.915 630.697,422.671 630.697,425.635 C630.697,428.584 631.579,431.327 633.099,433.604 L631.293,434.871 C629.525,432.239 628.492,429.059 628.492,425.635 C628.492,422.205 629.531,419.024 631.299,416.381 L633.125,417.635 z" fill="#000000"/>
      <path d="M629.355,415.255 C627.366,418.216 626.203,421.79 626.203,425.64 C626.203,429.485 627.363,433.056 629.346,436.014 L627.514,437.25 C625.294,433.943 624,429.943 624,425.64 C624,421.328 625.306,417.319 627.538,414 L629.355,415.255 z" fill="#000000"/>
      <path d="M659.521,420.031 C660.6,421.624 661.236,423.565 661.236,425.646 C661.236,427.713 660.61,429.63 659.548,431.229 L661.394,432.483 C662.702,430.533 663.459,428.177 663.459,425.646 C663.459,423.095 662.693,420.727 661.373,418.771 L659.521,420.031 z" fill="#000000"/>
      <path d="M663.322,417.635 C664.859,419.915 665.75,422.671 665.75,425.635 C665.75,428.584 664.868,431.327 663.348,433.604 L665.154,434.871 C666.922,432.239 667.955,429.059 667.955,425.635 C667.955,422.205 666.916,419.024 665.148,416.381 L663.322,417.635 z" fill="#000000"/>
      <path d="M667.092,415.255 C669.081,418.216 670.244,421.79 670.244,425.64 C670.244,429.485 669.084,433.056 667.101,436.014 L668.933,437.25 C671.153,433.943 672.447,429.943 672.447,425.64 C672.447,421.328 671.141,417.319 668.909,414 L667.092,415.255 z" fill="#000000"/>
    </g>
    <path d="M396,294 L612,294" fill-opacity="0" stroke="#000000" stroke-width="2" stroke-miterlimit="10"/>
    <text transform="matrix(1, 0, 0, 1, 701.16, 306.75)">
      <tspan x="-45.363" y="-0.75" font-family="Helvetica" font-size="12" fill="#000000">2.4 GHz antenna</tspan>
    </text>
    <path d="M336,474 L336,498" fill-opacity="0" stroke="#CC0000" stroke-width="2"/>
    <path d="M108,288 L108,210 L144,210 L144,150" fill-opacity="0" stroke="#CC0000" stroke-width="2" stroke-linecap="round" stroke-linejoin="round"/>
    <path d="M174,366 L108,366" fill-opacity="0" stroke="#CC0000" stroke-width="2"/>
    <path d="M180,78 L180,102" fill-opacity="0" stroke="#67AB9F" stroke-width="2"/>
    <path d="M336,78 L336,102" fill-opacity="0" stroke="#67AB9F" stroke-width="2"/>
    <g>
      <g>
        <path d="M624,114 C624,130 672.447,130 672.447,114" fill-opacity="0" stroke="#000000" stroke-width="1" stroke-miterlimit="10"/>
      </g>
      <g>
        <path d="M624,126 C624,142 672.447,142 672.447,126" fill-opacity="0" stroke="#000000" stroke-width="1" stroke-miterlimit="10"/>
      </g>
      <g>
        <path d="M624,137.5 C624,153.5 672.447,153.5 672.447,137.5" fill-opacity="0" stroke="#000000" stroke-width="1" stroke-miterlimit="10"/>
      </g>
      <g>
        <path d="M624,149.5 C624,165.5 672.447,165.5 672.447,149.5" fill-opacity="0" stroke="#000000" stroke-width="1" stroke-miterlimit="10"/>
      </g>
      <g>
        <path d="M624,114 C624,98 672.447,98 672.447,114" fill-opacity="0" stroke="#000000" stroke-width="1" stroke-miterlimit="10"/>
      </g>
      <path d="M624,149.5 L624,114" fill-opacity="0" stroke="#000000" stroke-width="1"/>
      <path d="M672.447,149.5 L672.447,114" fill-opacity="0" stroke="#000000" stroke-width="1"/>
    </g>
    <path d="M336,150 L336,210" fill-opacity="0" stroke="#A680B8" stroke-width="2"/>
    <path d="M504,150 L504,210" fill-opacity="0" stroke="#A680B8" stroke-width="2"/>
    <path d="M456,288 L456,216" fill-opacity="0" stroke="#3333FF" stroke-width="2"/>
    <path d="M456,204 L456,150" fill-opacity="0" stroke="#3333FF" stroke-width="2"/>
    <path d="M552,132 L612,132" fill-opacity="0" stroke="#000000" stroke-width="2" stroke-miterlimit="10"/>
  </g>
</svg>
