<svg xmlns="http://www.w3.org/2000/svg" xmlns:ev="http://www.w3.org/2001/xml-events" width="425" height="775" xmlns:xlink="http://www.w3.org/1999/xlink" viewBox="0 0 425 775"><style type="text/css"><![CDATA[
.st3 {fill:#000000;font-family:Arial;font-size:10pt;font-weight:bold}
.st2 {fill:#404040;font-family:Arial;font-size:10pt;font-weight:bold}
.st1 {fill:#404040;font-family:Arial;font-size:10pt}
.st4 {fill:#ffffff;font-family:Arial;font-size:16pt}
.st5 {font-size:18pt}
]]></style><defs><linearGradient x1="0%" y1="0%" y2="100%" x2="0%" id="lg1"><stop offset="0" stop-color="#338cca"/><stop offset="1" stop-color="#006fbd"/></linearGradient></defs><g id="page1" transform="translate(5,5)"><rect stroke="#808080" x="0" width="415" height="765" fill="#ffffff" y="0"/><path d="M0,0L415,0L415,765L0,765L0,0z" fill="#ffffff" id="shape1"/><g transform="translate(65.88,294.69)"><g id="shape2" transform="translate(162.52,0)"><path d="M0,0L34.6,0L34.6,33.3L0,33.3L0,0z" stroke="#696969" fill="#e7f2fc"/><text class="st1"><tspan x="8.3" y="15">3</tspan></text></g><path d="M0,0L34.6,0L34.6,33.3L0,33.3L0,0z" stroke="#696969" fill="#e7f2fc" id="shape3" transform="translate(197.1,0)"/><path d="M0,0L34.6,0L34.6,33.3L0,33.3L0,0z" stroke="#696969" fill="#e7f2fc" id="shape4" transform="translate(231.67,0)"/><path d="M0,0L34.6,0L34.6,33.3L0,33.3L0,0z" stroke="#696969" fill="#e7f2fc" id="shape5" transform="translate(266.25,0)"/><g id="shape6"><path d="M0,0L162.5,0L162.5,33.3L0,33.3L0,0z" stroke="#696969" fill="#e7f2fc"/><text class="st1"><tspan x="8.3" y="15">High Sensitivity Receiver</tspan></text></g></g><g transform="translate(65.88,328.01)"><g id="shape7" transform="translate(162.52,0)"><path d="M0,0L34.6,0L34.6,33.3L0,33.3L0,0z" stroke="#696969" fill="#e7f2fc"/><text class="st1"><tspan x="8.3" y="15">4</tspan></text></g><path d="M0,0L34.6,0L34.6,33.3L0,33.3L0,0z" stroke="#696969" fill="#e7f2fc" id="shape8" transform="translate(197.1,0)"/><path d="M0,0L34.6,0L34.6,33.3L0,33.3L0,0z" stroke="#696969" fill="#e7f2fc" id="shape9" transform="translate(231.67,0)"/><path d="M0,0L34.6,0L34.6,33.3L0,33.3L0,0z" stroke="#696969" fill="#e7f2fc" id="shape10" transform="translate(266.25,0)"/><g id="shape11"><path d="M0,0L162.5,0L162.5,33.3L0,33.3L0,0z" stroke="#696969" fill="#e7f2fc"/><text class="st1"><tspan x="8.3" y="15">Wireless microcontroller</tspan></text></g></g><g transform="translate(65.88,361.32)"><g id="shape12" transform="translate(162.52,0)"><path d="M0,0L34.6,0L34.6,33.3L0,33.3L0,0z" stroke="#696969" fill="#e7f2fc"/><text class="st1"><tspan x="8.3" y="15">5</tspan></text></g><path d="M0,0L34.6,0L34.6,33.3L0,33.3L0,0z" stroke="#696969" fill="#e7f2fc" id="shape13" transform="translate(197.1,0)"/><path d="M0,0L34.6,0L34.6,33.3L0,33.3L0,0z" stroke="#696969" fill="#e7f2fc" id="shape14" transform="translate(231.67,0)"/><path d="M0,0L34.6,0L34.6,33.3L0,33.3L0,0z" stroke="#696969" fill="#e7f2fc" id="shape15" transform="translate(266.25,0)"/><g id="shape16"><path d="M0,0L162.5,0L162.5,33.3L0,33.3L0,0z" stroke="#696969" fill="#e7f2fc"/><text class="st1"><tspan x="8.3" y="15">Sub-1 Ghz 915Mhz </tspan><tspan x="8.3" y="30">range</tspan></text></g></g><g transform="translate(65.88,394.64)"><g id="shape17" transform="translate(162.52,0)"><path d="M0,0L34.6,0L34.6,33.3L0,33.3L0,0z" stroke="#696969" fill="#e7f2fc"/><text class="st1"><tspan x="8.3" y="15">5</tspan></text></g><path d="M0,0L34.6,0L34.6,33.3L0,33.3L0,0z" stroke="#696969" fill="#e7f2fc" id="shape18" transform="translate(197.1,0)"/><path d="M0,0L34.6,0L34.6,33.3L0,33.3L0,0z" stroke="#696969" fill="#e7f2fc" id="shape19" transform="translate(231.67,0)"/><path d="M0,0L34.6,0L34.6,33.3L0,33.3L0,0z" stroke="#696969" fill="#e7f2fc" id="shape20" transform="translate(266.25,0)"/><g id="shape21"><path d="M0,0L162.5,0L162.5,33.3L0,33.3L0,0z" stroke="#696969" fill="#e7f2fc"/><text class="st1"><tspan x="8.3" y="15">Long Range Connectivity</tspan></text></g></g><g transform="translate(65.88,427.96)"><g id="shape22" transform="translate(162.52,0)"><path d="M0,0L34.6,0L34.6,33.3L0,33.3L0,0z" stroke="#696969" fill="#e7f2fc"/><text class="st1"><tspan x="8.3" y="15">4</tspan></text></g><path d="M0,0L34.6,0L34.6,33.3L0,33.3L0,0z" stroke="#696969" fill="#e7f2fc" id="shape23" transform="translate(197.1,0)"/><path d="M0,0L34.6,0L34.6,33.3L0,33.3L0,0z" stroke="#696969" fill="#e7f2fc" id="shape24" transform="translate(231.67,0)"/><path d="M0,0L34.6,0L34.6,33.3L0,33.3L0,0z" stroke="#696969" fill="#e7f2fc" id="shape25" transform="translate(266.25,0)"/><g id="shape26"><path d="M0,0L162.5,0L162.5,33.3L0,33.3L0,0z" stroke="#696969" fill="#e7f2fc"/><text class="st1"><tspan x="8.3" y="15">Low Power Consumption</tspan></text></g></g><g transform="translate(65.88,461.28)"><g id="shape27" transform="translate(162.52,0)"><path d="M0,0L34.6,0L34.6,33.3L0,33.3L0,0z" stroke="#696969" fill="#e7f2fc"/><text class="st1"><tspan x="8.3" y="15">5</tspan></text></g><path d="M0,0L34.6,0L34.6,33.3L0,33.3L0,0z" stroke="#696969" fill="#e7f2fc" id="shape28" transform="translate(197.1,0)"/><path d="M0,0L34.6,0L34.6,33.3L0,33.3L0,0z" stroke="#696969" fill="#e7f2fc" id="shape29" transform="translate(231.67,0)"/><path d="M0,0L34.6,0L34.6,33.3L0,33.3L0,0z" stroke="#696969" fill="#e7f2fc" id="shape30" transform="translate(266.25,0)"/><g id="shape31"><path d="M0,0L162.5,0L162.5,33.3L0,33.3L0,0z" stroke="#696969" fill="#e7f2fc"/><text class="st1"><tspan x="8.3" y="15">Support IEEE 802.15.4</tspan></text></g></g><g transform="translate(65.88,494.6)"><g id="shape32" transform="translate(162.52,0)"><path d="M0,0L34.6,0L34.6,33.3L0,33.3L0,0z" stroke="#696969" fill="#e7f2fc"/><text class="st1"><tspan x="8.3" y="15">4</tspan></text></g><path d="M0,0L34.6,0L34.6,33.3L0,33.3L0,0z" stroke="#696969" fill="#e7f2fc" id="shape33" transform="translate(197.1,0)"/><path d="M0,0L34.6,0L34.6,33.3L0,33.3L0,0z" stroke="#696969" fill="#e7f2fc" id="shape34" transform="translate(231.67,0)"/><path d="M0,0L34.6,0L34.6,33.3L0,33.3L0,0z" stroke="#696969" fill="#e7f2fc" id="shape35" transform="translate(266.25,0)"/><g id="shape36"><path d="M0,0L162.5,0L162.5,33.3L0,33.3L0,0z" stroke="#696969" fill="#e7f2fc"/><text class="st1"><tspan x="8.3" y="15">Cheaper</tspan></text></g></g><g transform="translate(65.88,527.92)"><g id="shape37" transform="translate(162.52,0)"><path d="M0,0L34.6,0L34.6,33.3L0,33.3L0,0z" stroke="#696969" fill="#e7f2fc"/><text class="st1"><tspan x="8.3" y="15">3</tspan></text></g><path d="M0,0L34.6,0L34.6,33.3L0,33.3L0,0z" stroke="#696969" fill="#e7f2fc" id="shape38" transform="translate(197.1,0)"/><path d="M0,0L34.6,0L34.6,33.3L0,33.3L0,0z" stroke="#696969" fill="#e7f2fc" id="shape39" transform="translate(231.67,0)"/><path d="M0,0L34.6,0L34.6,33.3L0,33.3L0,0z" stroke="#696969" fill="#e7f2fc" id="shape40" transform="translate(266.25,0)"/><g id="shape41"><path d="M0,0L162.5,0L162.5,33.3L0,33.3L0,0z" stroke="#696969" fill="#e7f2fc"/><text class="st1"><tspan x="8.3" y="15">ARM 32 bits </tspan><tspan x="8.3" y="30">Microcontroller</tspan></text></g></g><g id="shape42" transform="translate(228.4,125.55)"><path d="M0,0L34.6,0L34.6,169.1L0,169.1L0,0z" stroke="#696969" fill="#e7f2fc"/><text class="st1" transform="matrix(0,-1,1,0,-67.3,101.9)"><tspan x="-59.2" y="82.3">Customer Importance</tspan></text></g><g id="shape43" transform="translate(262.97,125.55)"><path d="M0,0L34.6,0L34.6,169.1L0,169.1L0,0z" stroke="#696969" fill="#e7f2fc"/><text class="st2" transform="matrix(0,-1,1,0,-67.3,101.9)"><tspan x="-59.2" y="82.3">CC13x2</tspan></text></g><g id="shape44" transform="translate(297.55,125.55)"><path d="M0,0L34.6,0L34.6,169.1L0,169.1L0,0z" stroke="#696969" fill="#e7f2fc"/><text class="st2" transform="matrix(0,-1,1,0,-67.3,101.9)"><tspan x="-59.2" y="82.3">CC13x0</tspan></text></g><g id="shape45" transform="translate(332.12,125.55)"><path d="M0,0L34.6,0L34.6,169.1L0,169.1L0,0z" stroke="#696969" fill="#e7f2fc"/><text class="st2" transform="matrix(0,-1,1,0,-67.3,101.9)"><tspan x="-59.2" y="82.3">CC135x</tspan></text></g><g id="shape46" transform="matrix(0,-1,1,0,39.7,724)"><path d="M429,26.5L429,0L0,0L0,26.5L429,26.5z" stroke="#5a5a5a" fill="#0099d2"/><text class="st1"><tspan x="144" y="16.7">Customer Requirements</tspan></text></g><g id="shape47" transform="translate(40.7,98.77)"><path d="M325,26.5L325,0L0,0L0,26.5L325,26.5z" stroke="#5a5a5a" fill="#ffffff"/><text class="st1"><tspan x="99" y="16.7">Voice of the Company</tspan></text></g><g transform="translate(39.65,161)"><g><g id="shape48" transform="translate(41.57,0)"><path d="M0,0L149.9,0L149.9,44.3L0,44.3L0,0z" stroke="#5a5a5a" fill="#ffffff"/><text class="st1"><tspan x="18.4" y="25.6">Strong Relationship</tspan></text></g><path d="M0,0L41.6,0L41.6,44.3L0,44.3L0,0z" stroke="#5a5a5a" fill="#ffffff" id="shape49"/></g><g transform="translate(0,44.25)"><g id="shape50" transform="translate(41.57,0)"><path d="M0,0L149.9,0L149.9,44.3L0,44.3L0,0z" stroke="#5a5a5a" fill="#ffffff"/><text class="st1"><tspan x="10.4" y="25.6">Moderate Relationship</tspan></text></g><path d="M0,0L41.6,0L41.6,44.3L0,44.3L0,0z" stroke="#5a5a5a" fill="#ffffff" id="shape51"/></g><g transform="translate(0,88.51)"><g id="shape52" transform="translate(41.57,0)"><path d="M0,0L149.9,0L149.9,44.3L0,44.3L0,0z" stroke="#5a5a5a" fill="#ffffff"/><text class="st1"><tspan x="21.4" y="25.6">Weak Relationship</tspan></text></g><path d="M0,0L41.6,0L41.6,44.3L0,44.3L0,0z" stroke="#5a5a5a" fill="#ffffff" id="shape53"/></g><g id="shape54" transform="translate(0,-34.52)"><path d="M0,0L191.5,0L191.5,34.5L0,34.5L0,0z" stroke="#5a5a5a" fill="#ffffff"/><text class="st3"><tspan x="53.2" y="20.8">Relationships</tspan></text></g></g><path d="M0,0M18.9,9.4C18.9,14.7,14.7,18.9,9.4,18.9C4.2,18.9,-0,14.7,-0,9.4C-0,4.2,4.2,-0,9.4,-0C14.7,-0,18.9,4.2,18.9,9.4z" stroke="url(#lg1)" fill="url(#lg1)" stroke-width="3" id="shape55" transform="translate(270.81,301.9)"/><g id="shape56" transform="translate(50.99,217.93)"><path d="M0,0M15.1,9.4C15.1,12.6,12.6,15.1,9.4,15.1C6.3,15.1,3.8,12.6,3.8,9.4C3.8,6.3,6.3,3.8,9.4,3.8C12.6,3.8,15.1,6.3,15.1,9.4z" fill="url(#lg1)"/><path d="M0,0M18.9,9.4C18.9,14.7,14.7,18.9,9.4,18.9C4.2,18.9,-0,14.7,-0,9.4C-0,4.2,4.2,-0,9.4,-0C14.7,-0,18.9,4.2,18.9,9.4z" stroke="url(#lg1)" fill="none" stroke-width="3"/></g><path d="M0,0M18.9,9.4C18.9,14.7,14.7,18.9,9.4,18.9C4.2,18.9,-0,14.7,-0,9.4C-0,4.2,4.2,-0,9.4,-0C14.7,-0,18.9,4.2,18.9,9.4z" stroke="url(#lg1)" fill="none" stroke-width="3" id="shape57" transform="translate(50.99,262.19)"/><path d="M0,0M18.9,9.4C18.9,14.7,14.7,18.9,9.4,18.9C4.2,18.9,-0,14.7,-0,9.4C-0,4.2,4.2,-0,9.4,-0C14.7,-0,18.9,4.2,18.9,9.4z" stroke="url(#lg1)" fill="url(#lg1)" stroke-width="3" id="shape58" transform="translate(50.99,173.68)"/><path d="M0,0M18.9,9.4C18.9,14.7,14.7,18.9,9.4,18.9C4.2,18.9,-0,14.7,-0,9.4C-0,4.2,4.2,-0,9.4,-0C14.7,-0,18.9,4.2,18.9,9.4z" stroke="url(#lg1)" fill="url(#lg1)" stroke-width="3" id="shape59" transform="translate(270.81,435.17)"/><path d="M0,0M18.9,9.4C18.9,14.7,14.7,18.9,9.4,18.9C4.2,18.9,-0,14.7,-0,9.4C-0,4.2,4.2,-0,9.4,-0C14.7,-0,18.9,4.2,18.9,9.4z" stroke="url(#lg1)" fill="url(#lg1)" stroke-width="3" id="shape60" transform="translate(305.39,535.13)"/><g transform="translate(91.85,52)"><path d="M0,0L240.3,0L240.3,37L0,37L0,0z" stroke="#1d7ba4" fill="#2ca9e0" stroke-width="0.25" id="shape61"/><path d="M0,0L29.6,0L29.6,29.6L0,29.6L0,0z" stroke="#1d7ba4" fill="#81bee7" stroke-width="0.25" id="shape62" transform="translate(-14.8,-5.18)"/><path d="M0,0L24,0L24,24L0,24L0,0z" stroke="#2594c5" fill="#2ca9e0" stroke-width="0.25" id="shape63" transform="translate(0,-12.02)"/><path d="M0,0L18.5,0L18.5,18.5L0,18.5L0,0z" stroke="#1d7ba4" fill="#acd1ed" stroke-width="0.25" id="shape64" transform="translate(231.03,27.74)"/><text class="st4"><tspan class="st5" x="51.8" y="25.5"> QFD Analysis</tspan></text></g><g transform="translate(65.88,561.34)"><g id="shape65" transform="translate(162.52,0)"><path d="M0,0L34.6,0L34.6,33.3L0,33.3L0,0z" stroke="#696969" fill="#e7f2fc"/><text class="st1"><tspan x="8.3" y="15">5</tspan></text></g><path d="M0,0L34.6,0L34.6,33.3L0,33.3L0,0z" stroke="#696969" fill="#e7f2fc" id="shape66" transform="translate(197.1,0)"/><path d="M0,0L34.6,0L34.6,33.3L0,33.3L0,0z" stroke="#696969" fill="#e7f2fc" id="shape67" transform="translate(231.67,0)"/><path d="M0,0L34.6,0L34.6,33.3L0,33.3L0,0z" stroke="#696969" fill="#e7f2fc" id="shape68" transform="translate(266.25,0)"/><g id="shape69" transform="translate(-0,0)"><path d="M0,0L162.5,0L162.5,33.3L0,33.3L0,0z" stroke="#696969" fill="#e7f2fc"/><text class="st1"><tspan x="8.3" y="15">48Mhz Microcontroller</tspan></text></g></g><g transform="translate(65.88,628.34)"><g id="shape70" transform="translate(162.52,0)"><path d="M0,0L34.6,0L34.6,33.3L0,33.3L0,0z" stroke="#696969" fill="#e7f2fc"/><text class="st1"><tspan x="8.3" y="15">5</tspan></text></g><path d="M0,0L34.6,0L34.6,33.3L0,33.3L0,0z" stroke="#696969" fill="#e7f2fc" id="shape71" transform="translate(197.1,0)"/><path d="M0,0L34.6,0L34.6,33.3L0,33.3L0,0z" stroke="#696969" fill="#e7f2fc" id="shape72" transform="translate(231.67,0)"/><path d="M0,0L34.6,0L34.6,33.3L0,33.3L0,0z" stroke="#696969" fill="#e7f2fc" id="shape73" transform="translate(266.25,0)"/><g id="shape74" transform="translate(-0,0)"><path d="M0,0L162.5,0L162.5,33.3L0,33.3L0,0z" stroke="#696969" fill="#e7f2fc"/><text class="st1"><tspan x="8.3" y="15">SRAM greater than </tspan><tspan x="8.3" y="30">10KB</tspan></text></g></g><g transform="translate(65.88,594.68)"><g id="shape75" transform="translate(162.52,0)"><path d="M0,0L34.6,0L34.6,33.3L0,33.3L0,0z" stroke="#696969" fill="#e7f2fc"/><text class="st1"><tspan x="8.3" y="15">5</tspan></text></g><path d="M0,0L34.6,0L34.6,33.3L0,33.3L0,0z" stroke="#696969" fill="#e7f2fc" id="shape76" transform="translate(197.1,0)"/><path d="M0,0L34.6,0L34.6,33.3L0,33.3L0,0z" stroke="#696969" fill="#e7f2fc" id="shape77" transform="translate(231.67,0)"/><path d="M0,0L34.6,0L34.6,33.3L0,33.3L0,0z" stroke="#696969" fill="#e7f2fc" id="shape78" transform="translate(266.25,0)"/><g id="shape79" transform="translate(-0,0)"><path d="M0,0L162.5,0L162.5,33.3L0,33.3L0,0z" stroke="#696969" fill="#e7f2fc"/><text class="st1"><tspan x="8.3" y="15">Flash memory greater </tspan><tspan x="8.3" y="30">than 300KB</tspan></text></g></g><path d="M0,0M18.9,9.4C18.9,14.7,14.7,18.9,9.4,18.9C4.2,18.9,-0,14.7,-0,9.4C-0,4.2,4.2,-0,9.4,-0C14.7,-0,18.9,4.2,18.9,9.4z" stroke="url(#lg1)" fill="url(#lg1)" stroke-width="3" id="shape80" transform="translate(270.81,335.22)"/><path d="M0,0M18.9,9.4C18.9,14.7,14.7,18.9,9.4,18.9C4.2,18.9,-0,14.7,-0,9.4C-0,4.2,4.2,-0,9.4,-0C14.7,-0,18.9,4.2,18.9,9.4z" stroke="url(#lg1)" fill="url(#lg1)" stroke-width="3" id="shape81" transform="translate(270.81,368.54)"/><path d="M0,0M18.9,9.4C18.9,14.7,14.7,18.9,9.4,18.9C4.2,18.9,-0,14.7,-0,9.4C-0,4.2,4.2,-0,9.4,-0C14.7,-0,18.9,4.2,18.9,9.4z" stroke="url(#lg1)" fill="url(#lg1)" stroke-width="3" id="shape82" transform="translate(270.81,401.85)"/><path d="M0,0M18.9,9.4C18.9,14.7,14.7,18.9,9.4,18.9C4.2,18.9,-0,14.7,-0,9.4C-0,4.2,4.2,-0,9.4,-0C14.7,-0,18.9,4.2,18.9,9.4z" stroke="url(#lg1)" fill="url(#lg1)" stroke-width="3" id="shape83" transform="translate(305.39,435.17)"/><path d="M0,0M18.9,9.4C18.9,14.7,14.7,18.9,9.4,18.9C4.2,18.9,-0,14.7,-0,9.4C-0,4.2,4.2,-0,9.4,-0C14.7,-0,18.9,4.2,18.9,9.4z" stroke="url(#lg1)" fill="url(#lg1)" stroke-width="3" id="shape84" transform="translate(270.81,468.49)"/><path d="M0,0M18.9,9.4C18.9,14.7,14.7,18.9,9.4,18.9C4.2,18.9,-0,14.7,-0,9.4C-0,4.2,4.2,-0,9.4,-0C14.7,-0,18.9,4.2,18.9,9.4z" stroke="url(#lg1)" fill="url(#lg1)" stroke-width="3" id="shape85" transform="translate(270.81,501.81)"/><path d="M0,0M18.9,9.4C18.9,14.7,14.7,18.9,9.4,18.9C4.2,18.9,-0,14.7,-0,9.4C-0,4.2,4.2,-0,9.4,-0C14.7,-0,18.9,4.2,18.9,9.4z" stroke="url(#lg1)" fill="url(#lg1)" stroke-width="3" id="shape86" transform="translate(270.81,535.13)"/><path d="M0,0M18.9,9.4C18.9,14.7,14.7,18.9,9.4,18.9C4.2,18.9,-0,14.7,-0,9.4C-0,4.2,4.2,-0,9.4,-0C14.7,-0,18.9,4.2,18.9,9.4z" stroke="url(#lg1)" fill="url(#lg1)" stroke-width="3" id="shape87" transform="translate(270.81,568.55)"/><path d="M0,0M18.9,9.4C18.9,14.7,14.7,18.9,9.4,18.9C4.2,18.9,-0,14.7,-0,9.4C-0,4.2,4.2,-0,9.4,-0C14.7,-0,18.9,4.2,18.9,9.4z" stroke="url(#lg1)" fill="url(#lg1)" stroke-width="3" id="shape88" transform="translate(270.81,601.89)"/><path d="M0,0M18.9,9.4C18.9,14.7,14.7,18.9,9.4,18.9C4.2,18.9,-0,14.7,-0,9.4C-0,4.2,4.2,-0,9.4,-0C14.7,-0,18.9,4.2,18.9,9.4z" stroke="url(#lg1)" fill="url(#lg1)" stroke-width="3" id="shape89" transform="translate(270.81,635.55)"/><path d="M0,0M18.9,9.4C18.9,14.7,14.7,18.9,9.4,18.9C4.2,18.9,-0,14.7,-0,9.4C-0,4.2,4.2,-0,9.4,-0C14.7,-0,18.9,4.2,18.9,9.4z" stroke="url(#lg1)" fill="none" stroke-width="3" id="shape90" transform="translate(305.39,635.55)"/><g id="shape91" transform="translate(305.39,601.89)"><path d="M0,0M15.1,9.4C15.1,12.6,12.6,15.1,9.4,15.1C6.3,15.1,3.8,12.6,3.8,9.4C3.8,6.3,6.3,3.8,9.4,3.8C12.6,3.8,15.1,6.3,15.1,9.4z" fill="url(#lg1)"/><path d="M0,0M18.9,9.4C18.9,14.7,14.7,18.9,9.4,18.9C4.2,18.9,-0,14.7,-0,9.4C-0,4.2,4.2,-0,9.4,-0C14.7,-0,18.9,4.2,18.9,9.4z" stroke="url(#lg1)" fill="none" stroke-width="3"/></g><path d="M0,0M18.9,9.4C18.9,14.7,14.7,18.9,9.4,18.9C4.2,18.9,-0,14.7,-0,9.4C-0,4.2,4.2,-0,9.4,-0C14.7,-0,18.9,4.2,18.9,9.4z" stroke="url(#lg1)" fill="url(#lg1)" stroke-width="3" id="shape92" transform="translate(305.39,568.55)"/><path d="M0,0M18.9,9.4C18.9,14.7,14.7,18.9,9.4,18.9C4.2,18.9,-0,14.7,-0,9.4C-0,4.2,4.2,-0,9.4,-0C14.7,-0,18.9,4.2,18.9,9.4z" stroke="url(#lg1)" fill="url(#lg1)" stroke-width="3" id="shape93" transform="translate(305.39,468.49)"/><path d="M0,0M18.9,9.4C18.9,14.7,14.7,18.9,9.4,18.9C4.2,18.9,-0,14.7,-0,9.4C-0,4.2,4.2,-0,9.4,-0C14.7,-0,18.9,4.2,18.9,9.4z" stroke="url(#lg1)" fill="url(#lg1)" stroke-width="3" id="shape94" transform="translate(339.96,435.17)"/><path d="M0,0M18.9,9.4C18.9,14.7,14.7,18.9,9.4,18.9C4.2,18.9,-0,14.7,-0,9.4C-0,4.2,4.2,-0,9.4,-0C14.7,-0,18.9,4.2,18.9,9.4z" stroke="url(#lg1)" fill="url(#lg1)" stroke-width="3" id="shape95" transform="translate(305.39,401.85)"/><g transform="translate(65.88,660.68)"><g id="shape96" transform="translate(162.52,0)"><path d="M0,0L34.6,0L34.6,33.3L0,33.3L0,0z" stroke="#696969" fill="#e7f2fc"/><text class="st1"><tspan x="8.3" y="15">5</tspan></text></g><path d="M0,0L34.6,0L34.6,33.3L0,33.3L0,0z" stroke="#696969" fill="#e7f2fc" id="shape97" transform="translate(197.1,0)"/><path d="M0,0L34.6,0L34.6,33.3L0,33.3L0,0z" stroke="#696969" fill="#e7f2fc" id="shape98" transform="translate(231.67,0)"/><path d="M0,0L34.6,0L34.6,33.3L0,33.3L0,0z" stroke="#696969" fill="#e7f2fc" id="shape99" transform="translate(266.25,0)"/><g id="shape100" transform="translate(-0,0)"><path d="M0,0L162.5,0L162.5,33.3L0,33.3L0,0z" stroke="#696969" fill="#e7f2fc"/><text class="st1"><tspan x="8.3" y="15">Two Serial Ports</tspan></text></g></g><path d="M0,0M18.9,9.4C18.9,14.7,14.7,18.9,9.4,18.9C4.2,18.9,-0,14.7,-0,9.4C-0,4.2,4.2,-0,9.4,-0C14.7,-0,18.9,4.2,18.9,9.4z" stroke="url(#lg1)" fill="url(#lg1)" stroke-width="3" id="shape101" transform="translate(270.81,667.89)"/><path d="M0,0M18.9,9.4C18.9,14.7,14.7,18.9,9.4,18.9C4.2,18.9,-0,14.7,-0,9.4C-0,4.2,4.2,-0,9.4,-0C14.7,-0,18.9,4.2,18.9,9.4z" stroke="url(#lg1)" fill="url(#lg1)" stroke-width="3" id="shape102" transform="translate(339.96,368.54)"/><path d="M0,0M18.9,9.4C18.9,14.7,14.7,18.9,9.4,18.9C4.2,18.9,-0,14.7,-0,9.4C-0,4.2,4.2,-0,9.4,-0C14.7,-0,18.9,4.2,18.9,9.4z" stroke="url(#lg1)" fill="none" stroke-width="3" id="shape103" transform="translate(305.39,667.89)"/><path d="M0,0M18.9,9.4C18.9,14.7,14.7,18.9,9.4,18.9C4.2,18.9,-0,14.7,-0,9.4C-0,4.2,4.2,-0,9.4,-0C14.7,-0,18.9,4.2,18.9,9.4z" stroke="url(#lg1)" fill="url(#lg1)" stroke-width="3" id="shape104" transform="translate(305.39,335.22)"/><path d="M0,0M18.9,9.4C18.9,14.7,14.7,18.9,9.4,18.9C4.2,18.9,-0,14.7,-0,9.4C-0,4.2,4.2,-0,9.4,-0C14.7,-0,18.9,4.2,18.9,9.4z" stroke="url(#lg1)" fill="url(#lg1)" stroke-width="3" id="shape105" transform="translate(305.39,301.9)"/><path d="M0,0M18.9,9.4C18.9,14.7,14.7,18.9,9.4,18.9C4.2,18.9,-0,14.7,-0,9.4C-0,4.2,4.2,-0,9.4,-0C14.7,-0,18.9,4.2,18.9,9.4z" stroke="url(#lg1)" fill="url(#lg1)" stroke-width="3" id="shape106" transform="translate(339.96,468.49)"/><path d="M0,0M18.9,9.4C18.9,14.7,14.7,18.9,9.4,18.9C4.2,18.9,-0,14.7,-0,9.4C-0,4.2,4.2,-0,9.4,-0C14.7,-0,18.9,4.2,18.9,9.4z" stroke="url(#lg1)" fill="url(#lg1)" stroke-width="3" id="shape107" transform="translate(339.96,401.85)"/><path d="M0,0M18.9,9.4C18.9,14.7,14.7,18.9,9.4,18.9C4.2,18.9,-0,14.7,-0,9.4C-0,4.2,4.2,-0,9.4,-0C14.7,-0,18.9,4.2,18.9,9.4z" stroke="url(#lg1)" fill="url(#lg1)" stroke-width="3" id="shape108" transform="translate(305.39,368.54)"/><path d="M0,0M18.9,9.4C18.9,14.7,14.7,18.9,9.4,18.9C4.2,18.9,-0,14.7,-0,9.4C-0,4.2,4.2,-0,9.4,-0C14.7,-0,18.9,4.2,18.9,9.4z" stroke="url(#lg1)" fill="url(#lg1)" stroke-width="3" id="shape109" transform="translate(339.96,335.22)"/><path d="M0,0M18.9,9.4C18.9,14.7,14.7,18.9,9.4,18.9C4.2,18.9,-0,14.7,-0,9.4C-0,4.2,4.2,-0,9.4,-0C14.7,-0,18.9,4.2,18.9,9.4z" stroke="url(#lg1)" fill="url(#lg1)" stroke-width="3" id="shape110" transform="translate(339.96,301.9)"/><path d="M0,0M18.9,9.4C18.9,14.7,14.7,18.9,9.4,18.9C4.2,18.9,-0,14.7,-0,9.4C-0,4.2,4.2,-0,9.4,-0C14.7,-0,18.9,4.2,18.9,9.4z" stroke="url(#lg1)" fill="url(#lg1)" stroke-width="3" id="shape111" transform="translate(305.39,501.81)"/><g id="shape112" transform="translate(339.96,501.81)"><path d="M0,0M15.1,9.4C15.1,12.6,12.6,15.1,9.4,15.1C6.3,15.1,3.8,12.6,3.8,9.4C3.8,6.3,6.3,3.8,9.4,3.8C12.6,3.8,15.1,6.3,15.1,9.4z" fill="url(#lg1)"/><path d="M0,0M18.9,9.4C18.9,14.7,14.7,18.9,9.4,18.9C4.2,18.9,-0,14.7,-0,9.4C-0,4.2,4.2,-0,9.4,-0C14.7,-0,18.9,4.2,18.9,9.4z" stroke="url(#lg1)" fill="none" stroke-width="3"/></g><path d="M0,0M18.9,9.4C18.9,14.7,14.7,18.9,9.4,18.9C4.2,18.9,-0,14.7,-0,9.4C-0,4.2,4.2,-0,9.4,-0C14.7,-0,18.9,4.2,18.9,9.4z" stroke="url(#lg1)" fill="url(#lg1)" stroke-width="3" id="shape113" transform="translate(339.96,535.13)"/><path d="M0,0M18.9,9.4C18.9,14.7,14.7,18.9,9.4,18.9C4.2,18.9,-0,14.7,-0,9.4C-0,4.2,4.2,-0,9.4,-0C14.7,-0,18.9,4.2,18.9,9.4z" stroke="url(#lg1)" fill="url(#lg1)" stroke-width="3" id="shape114" transform="translate(339.96,601.89)"/><path d="M0,0M18.9,9.4C18.9,14.7,14.7,18.9,9.4,18.9C4.2,18.9,-0,14.7,-0,9.4C-0,4.2,4.2,-0,9.4,-0C14.7,-0,18.9,4.2,18.9,9.4z" stroke="url(#lg1)" fill="url(#lg1)" stroke-width="3" id="shape115" transform="translate(339.96,568.55)"/><path d="M0,0M18.9,9.4C18.9,14.7,14.7,18.9,9.4,18.9C4.2,18.9,-0,14.7,-0,9.4C-0,4.2,4.2,-0,9.4,-0C14.7,-0,18.9,4.2,18.9,9.4z" stroke="url(#lg1)" fill="url(#lg1)" stroke-width="3" id="shape116" transform="translate(339.96,635.55)"/><path d="M0,0M18.9,9.4C18.9,14.7,14.7,18.9,9.4,18.9C4.2,18.9,-0,14.7,-0,9.4C-0,4.2,4.2,-0,9.4,-0C14.7,-0,18.9,4.2,18.9,9.4z" stroke="url(#lg1)" fill="url(#lg1)" stroke-width="3" id="shape117" transform="translate(339.96,667.89)"/><g transform="translate(65.88,694)"><g id="shape118" transform="translate(162.52,0)"><path d="M0,0L34.6,0L34.6,33.3L0,33.3L0,0z" stroke="#696969" fill="#e7f2fc"/><text class="st1"><tspan x="8.3" y="15">5</tspan></text></g><g id="shape119" transform="translate(197.1,0)"><path d="M0,0L34.6,0L34.6,33.3L0,33.3L0,0z" stroke="#696969" fill="#e7f2fc"/><text class="st1"><tspan x="8.3" y="15">60</tspan></text></g><g id="shape120" transform="translate(231.67,0)"><path d="M0,0L34.6,0L34.6,33.3L0,33.3L0,0z" stroke="#696969" fill="#e7f2fc"/><text class="st1"><tspan x="8.3" y="15">50</tspan></text></g><g id="shape121" transform="translate(266.25,0)"><path d="M0,0L34.6,0L34.6,33.3L0,33.3L0,0z" stroke="#696969" fill="#e7f2fc"/><text class="st1"><tspan x="8.3" y="15">58</tspan></text></g><g id="shape122" transform="translate(-0,0)"><path d="M0,0L162.5,0L162.5,33.3L0,33.3L0,0z" stroke="#696969" fill="#e7f2fc"/><text class="st1"><tspan x="8.3" y="15">Summary</tspan></text></g></g></g></svg>