<svg xmlns:ev="http://www.w3.org/2001/xml-events" viewBox="0 0 487 620" xmlns="http://www.w3.org/2000/svg" width="487" height="620" xmlns:xlink="http://www.w3.org/1999/xlink"><style type="text/css"><![CDATA[
.st3 {fill:#000000;font-family:Arial;font-size:10pt;font-weight:bold}
.st2 {fill:#404040;font-family:Arial;font-size:10pt;font-weight:bold}
.st1 {fill:#404040;font-family:Arial;font-size:10pt}
.st4 {fill:#ffffff;font-family:Arial;font-size:16pt}
.st5 {font-size:18pt}
]]></style><defs><linearGradient id="lg1" y1="0%" x2="0%" x1="0%" y2="100%"><stop stop-color="#338cca" offset="0"/><stop stop-color="#006fbd" offset="1"/></linearGradient></defs><g id="page2" transform="translate(5,5)"><rect width="477" height="610" x="0" stroke="#808080" y="0" fill="#ffffff"/><g transform="translate(103.2,343.06)"><g><g id="shape1" transform="translate(162.52,0)"><path stroke="#696969" d="M0,0L34.6,0L34.6,38.1L0,38.1L0,0z" fill="#e7f2fc"/><text class="st1"><tspan x="13.3" y="22.5">3</tspan></text></g><path id="shape2" transform="translate(197.1,0)" stroke="#696969" d="M0,0L34.6,0L34.6,38.1L0,38.1L0,0z" fill="#e7f2fc"/><path id="shape3" transform="translate(231.67,0)" stroke="#696969" d="M0,0L34.6,0L34.6,38.1L0,38.1L0,0z" fill="#e7f2fc"/><g id="shape4"><path stroke="#696969" d="M0,0L162.5,0L162.5,38.1L0,38.1L0,0z" fill="#e7f2fc"/><text class="st1"><tspan x="8.3" y="22.5">1.5 A Charger current</tspan></text></g></g><g transform="translate(0,38.08)"><g id="shape5" transform="translate(162.52,0)"><path stroke="#696969" d="M0,0L34.6,0L34.6,38.1L0,38.1L0,0z" fill="#e7f2fc"/><text class="st1"><tspan x="13.3" y="22.5">3</tspan></text></g><path id="shape6" transform="translate(197.1,0)" stroke="#696969" d="M0,0L34.6,0L34.6,38.1L0,38.1L0,0z" fill="#e7f2fc"/><path id="shape7" transform="translate(231.67,0)" stroke="#696969" d="M0,0L34.6,0L34.6,38.1L0,38.1L0,0z" fill="#e7f2fc"/><g id="shape8"><path stroke="#696969" d="M0,0L162.5,0L162.5,38.1L0,38.1L0,0z" fill="#e7f2fc"/><text class="st1"><tspan x="8.3" y="22.5">Cheaper</tspan></text></g></g><g transform="translate(0,76.16)"><g id="shape9" transform="translate(162.52,0)"><path stroke="#696969" d="M0,0L34.6,0L34.6,38.1L0,38.1L0,0z" fill="#e7f2fc"/><text class="st1"><tspan x="13.3" y="22.5">3</tspan></text></g><path id="shape10" transform="translate(197.1,0)" stroke="#696969" d="M0,0L34.6,0L34.6,38.1L0,38.1L0,0z" fill="#e7f2fc"/><path id="shape11" transform="translate(231.67,0)" stroke="#696969" d="M0,0L34.6,0L34.6,38.1L0,38.1L0,0z" fill="#e7f2fc"/><g id="shape12"><path stroke="#696969" d="M0,0L162.5,0L162.5,38.1L0,38.1L0,0z" fill="#e7f2fc"/><text class="st1"><tspan x="8.3" y="22.5">Robust</tspan></text></g></g><g transform="translate(0,114.24)"><g id="shape13" transform="translate(162.52,0)"><path stroke="#696969" d="M0,0L34.6,0L34.6,38.1L0,38.1L0,0z" fill="#e7f2fc"/><text class="st1"><tspan x="13.3" y="22.5">3</tspan></text></g><path id="shape14" transform="translate(197.1,0)" stroke="#696969" d="M0,0L34.6,0L34.6,38.1L0,38.1L0,0z" fill="#e7f2fc"/><path id="shape15" transform="translate(231.67,0)" stroke="#696969" d="M0,0L34.6,0L34.6,38.1L0,38.1L0,0z" fill="#e7f2fc"/><g id="shape16"><path stroke="#696969" d="M0,0L162.5,0L162.5,38.1L0,38.1L0,0z" fill="#e7f2fc"/><text class="st1"><tspan x="8.3" y="22.5">Easy to use</tspan></text></g></g><g transform="translate(0,152.31)"><g id="shape17" transform="translate(162.52,0)"><path stroke="#696969" d="M0,0L34.6,0L34.6,38.1L0,38.1L0,0z" fill="#e7f2fc"/><text class="st1"><tspan x="13.3" y="22.5">4</tspan></text></g><path id="shape18" transform="translate(197.1,0)" stroke="#696969" d="M0,0L34.6,0L34.6,38.1L0,38.1L0,0z" fill="#e7f2fc"/><path id="shape19" transform="translate(231.67,0)" stroke="#696969" d="M0,0L34.6,0L34.6,38.1L0,38.1L0,0z" fill="#e7f2fc"/><g id="shape20"><path stroke="#696969" d="M0,0L162.5,0L162.5,38.1L0,38.1L0,0z" fill="#e7f2fc"/><text class="st1"><tspan x="8.3" y="15">Dynamic Power Path </tspan><tspan x="8.3" y="30">Management</tspan></text></g></g><g transform="translate(0,190.39)"><g id="shape21" transform="translate(162.52,0)"><path stroke="#696969" d="M0,0L34.6,0L34.6,38.1L0,38.1L0,0z" fill="#e7f2fc"/><text class="st1"><tspan x="13.3" y="22.5">4</tspan></text></g><g id="shape22" transform="translate(197.1,0)"><path stroke="#696969" d="M0,0L34.6,0L34.6,38.1L0,38.1L0,0z" fill="#e7f2fc"/><text class="st1"><tspan x="10.3" y="22.5">25</tspan></text></g><g id="shape23" transform="translate(231.67,0)"><path stroke="#696969" d="M0,0L34.6,0L34.6,38.1L0,38.1L0,0z" fill="#e7f2fc"/><text class="st1"><tspan x="10.3" y="22.5">25</tspan></text></g><g id="shape24"><path stroke="#696969" d="M0,0L162.5,0L162.5,38.1L0,38.1L0,0z" fill="#e7f2fc"/><text class="st1"><tspan x="53.3" y="22.5">Summary</tspan></text></g></g><g transform="translate(0,228.47)"/><g transform="translate(0,-169.13)"><g id="shape25" transform="translate(162.52,0)"><path stroke="#696969" d="M0,0L34.6,0L34.6,169.1L0,169.1L0,0z" fill="#e7f2fc"/><text class="st1" transform="matrix(0,-1,1,0,-67.3,101.9)"><tspan x="-59.2" y="88.1">Customer Importance</tspan></text></g><g id="shape26" transform="translate(197.1,0)"><path stroke="#696969" d="M0,0L34.6,0L34.6,169.1L0,169.1L0,0z" fill="#e7f2fc"/><text class="st2" transform="matrix(0,-1,1,0,-67.3,101.9)"><tspan x="-59.2" y="88.1">BQ2407x</tspan></text></g><g id="shape27" transform="translate(231.67,0)"><path stroke="#696969" d="M0,0L34.6,0L34.6,169.1L0,169.1L0,0z" fill="#e7f2fc"/><text class="st2" transform="matrix(0,-1,1,0,-67.3,101.9)"><tspan x="-59.2" y="88.1">BQ2423x</tspan></text></g></g></g><g id="shape28" transform="matrix(0,-1,1,0,77,571)"><path stroke="#5a5a5a" d="M227.6,26.5L227.6,0L0,0L0,26.5L227.6,26.5z" fill="#0099d2"/><text class="st1"><tspan x="43.3" y="16.7">Customer Requirements</tspan></text></g><g id="shape29" transform="translate(265.37,136)"><path stroke="#5a5a5a" d="M105.6,37.9L105.6,0L0,0L0,37.9L105.6,37.9z" fill="#ffffff"/><text class="st1"><tspan x="19.3" y="15">Voice of the </tspan><tspan x="25.3" y="30">Company</tspan></text></g><g transform="translate(76.98,188.37)"><g><g id="shape30" transform="translate(41.57,0)"><path stroke="#5a5a5a" d="M0,0L149.9,0L149.9,52L0,52L0,0z" fill="#ffffff"/><text class="st1"><tspan x="18.4" y="29.5">Strong Relationship</tspan></text></g><path id="shape31" stroke="#5a5a5a" d="M0,0L41.6,0L41.6,52L0,52L0,0z" fill="#ffffff"/></g><g transform="translate(0,52)"><g id="shape32" transform="translate(41.57,0)"><path stroke="#5a5a5a" d="M0,0L149.9,0L149.9,52L0,52L0,0z" fill="#ffffff"/><text class="st1"><tspan x="10.4" y="29.5">Moderate Relationship</tspan></text></g><path id="shape33" stroke="#5a5a5a" d="M0,0L41.6,0L41.6,52L0,52L0,0z" fill="#ffffff"/></g><g transform="translate(0,104)"><g id="shape34" transform="translate(41.57,0)"><path stroke="#5a5a5a" d="M0,0L149.9,0L149.9,52L0,52L0,0z" fill="#ffffff"/><text class="st1"><tspan x="21.4" y="29.5">Weak Relationship</tspan></text></g><path id="shape35" stroke="#5a5a5a" d="M0,0L41.6,0L41.6,52L0,52L0,0z" fill="#ffffff"/></g><g id="shape36" transform="translate(0,-47.37)"><path stroke="#5a5a5a" d="M0,0L191.5,0L191.5,47.4L0,47.4L0,0z" fill="#ffffff"/><text class="st3"><tspan x="53.2" y="27.2">Relationships</tspan></text></g></g><path id="shape37" transform="translate(308.14,350.27)" stroke-width="3" stroke="url(#lg1)" d="M0,0M18.9,9.4C18.9,14.7,14.7,18.9,9.4,18.9C4.2,18.9,-0,14.7,-0,9.4C-0,4.2,4.2,-0,9.4,-0C14.7,-0,18.9,4.2,18.9,9.4z" fill="url(#lg1)"/><g id="shape38" transform="translate(88.32,256.92)"><path d="M0,0M15.1,9.4C15.1,12.6,12.6,15.1,9.4,15.1C6.3,15.1,3.8,12.6,3.8,9.4C3.8,6.3,6.3,3.8,9.4,3.8C12.6,3.8,15.1,6.3,15.1,9.4z" fill="url(#lg1)"/><path stroke-width="3" stroke="url(#lg1)" d="M0,0M18.9,9.4C18.9,14.7,14.7,18.9,9.4,18.9C4.2,18.9,-0,14.7,-0,9.4C-0,4.2,4.2,-0,9.4,-0C14.7,-0,18.9,4.2,18.9,9.4z" fill="none"/></g><path id="shape39" transform="translate(88.32,308.92)" stroke-width="3" stroke="url(#lg1)" d="M0,0M18.9,9.4C18.9,14.7,14.7,18.9,9.4,18.9C4.2,18.9,-0,14.7,-0,9.4C-0,4.2,4.2,-0,9.4,-0C14.7,-0,18.9,4.2,18.9,9.4z" fill="none"/><path id="shape40" transform="translate(88.32,204.92)" stroke-width="3" stroke="url(#lg1)" d="M0,0M18.9,9.4C18.9,14.7,14.7,18.9,9.4,18.9C4.2,18.9,-0,14.7,-0,9.4C-0,4.2,4.2,-0,9.4,-0C14.7,-0,18.9,4.2,18.9,9.4z" fill="url(#lg1)"/><g transform="translate(64,59.12)"><path id="shape41" transform="translate(-0,0)" stroke-width="0.25" stroke="#1d7ba4" d="M0,0L366.6,0L366.6,59.8L0,59.8L0,0z" fill="#2ca9e0"/><path id="shape42" transform="translate(-23.9,-8.37)" stroke-width="0.25" stroke="#1d7ba4" d="M0,0L47.8,0L47.8,47.8L0,47.8L0,0z" fill="#81bee7"/><path id="shape43" transform="translate(0,-19.42)" stroke-width="0.25" stroke="#2594c5" d="M0,0L38.8,0L38.8,38.8L0,38.8L0,0z" fill="#2ca9e0"/><path id="shape44" transform="translate(345.08,44.82)" stroke-width="0.25" stroke="#1d7ba4" d="M0,0L29.9,0L29.9,29.9L0,29.9L0,0z" fill="#acd1ed"/><text class="st4"><tspan class="st5" x="65.8" y="22.9">Linear Charger Battery </tspan><tspan class="st5" x="117.8" y="50.9">QFD Analysis</tspan></text></g><path id="shape45" transform="translate(308.14,390.73)" stroke-width="3" stroke="url(#lg1)" d="M0,0M18.9,9.4C18.9,14.7,14.7,18.9,9.4,18.9C4.2,18.9,-0,14.7,-0,9.4C-0,4.2,4.2,-0,9.4,-0C14.7,-0,18.9,4.2,18.9,9.4z" fill="url(#lg1)"/><path id="shape46" transform="translate(308.14,428.81)" stroke-width="3" stroke="url(#lg1)" d="M0,0M18.9,9.4C18.9,14.7,14.7,18.9,9.4,18.9C4.2,18.9,-0,14.7,-0,9.4C-0,4.2,4.2,-0,9.4,-0C14.7,-0,18.9,4.2,18.9,9.4z" fill="url(#lg1)"/><path id="shape47" transform="translate(308.14,466.88)" stroke-width="3" stroke="url(#lg1)" d="M0,0M18.9,9.4C18.9,14.7,14.7,18.9,9.4,18.9C4.2,18.9,-0,14.7,-0,9.4C-0,4.2,4.2,-0,9.4,-0C14.7,-0,18.9,4.2,18.9,9.4z" fill="url(#lg1)"/><path id="shape48" transform="translate(308.14,504.96)" stroke-width="3" stroke="url(#lg1)" d="M0,0M18.9,9.4C18.9,14.7,14.7,18.9,9.4,18.9C4.2,18.9,-0,14.7,-0,9.4C-0,4.2,4.2,-0,9.4,-0C14.7,-0,18.9,4.2,18.9,9.4z" fill="url(#lg1)"/><path id="shape49" transform="translate(342.71,352.65)" stroke-width="3" stroke="url(#lg1)" d="M0,0M18.9,9.4C18.9,14.7,14.7,18.9,9.4,18.9C4.2,18.9,-0,14.7,-0,9.4C-0,4.2,4.2,-0,9.4,-0C14.7,-0,18.9,4.2,18.9,9.4z" fill="url(#lg1)"/><path id="shape50" transform="translate(342.71,428.81)" stroke-width="3" stroke="url(#lg1)" d="M0,0M18.9,9.4C18.9,14.7,14.7,18.9,9.4,18.9C4.2,18.9,-0,14.7,-0,9.4C-0,4.2,4.2,-0,9.4,-0C14.7,-0,18.9,4.2,18.9,9.4z" fill="url(#lg1)"/><path id="shape51" transform="translate(342.71,466.88)" stroke-width="3" stroke="url(#lg1)" d="M0,0M18.9,9.4C18.9,14.7,14.7,18.9,9.4,18.9C4.2,18.9,-0,14.7,-0,9.4C-0,4.2,4.2,-0,9.4,-0C14.7,-0,18.9,4.2,18.9,9.4z" fill="url(#lg1)"/><path id="shape52" transform="translate(342.71,390.73)" stroke-width="3" stroke="url(#lg1)" d="M0,0M18.9,9.4C18.9,14.7,14.7,18.9,9.4,18.9C4.2,18.9,-0,14.7,-0,9.4C-0,4.2,4.2,-0,9.4,-0C14.7,-0,18.9,4.2,18.9,9.4z" fill="url(#lg1)"/><path id="shape53" transform="translate(342.71,504.96)" stroke-width="3" stroke="url(#lg1)" d="M0,0M18.9,9.4C18.9,14.7,14.7,18.9,9.4,18.9C4.2,18.9,-0,14.7,-0,9.4C-0,4.2,4.2,-0,9.4,-0C14.7,-0,18.9,4.2,18.9,9.4z" fill="url(#lg1)"/></g></svg>