<svg xmlns:ev="http://www.w3.org/2001/xml-events" viewBox="0 0 490 681" xmlns="http://www.w3.org/2000/svg" width="490" height="681" xmlns:xlink="http://www.w3.org/1999/xlink"><style type="text/css"><![CDATA[
.st3 {fill:#000000;font-family:Arial;font-size:10pt;font-weight:bold}
.st2 {fill:#404040;font-family:Arial;font-size:10pt;font-weight:bold}
.st1 {fill:#404040;font-family:Arial;font-size:10pt}
.st4 {fill:#ffffff;font-family:Arial;font-size:16pt}
.st5 {font-size:18pt}
]]></style><defs><linearGradient id="lg1" y1="0%" x2="0%" x1="0%" y2="100%"><stop stop-color="#338cca" offset="0"/><stop stop-color="#006fbd" offset="1"/></linearGradient></defs><g id="page1" transform="translate(5,5)"><rect width="480" height="671" x="0" stroke="#808080" y="0" fill="#ffffff"/><path id="shape1" d="M0,0L480,0L480,671L0,671L0,0z" fill="#ffffff"/><g transform="translate(92.88,328.69)"><g><g id="shape2" transform="translate(162.52,0)"><path stroke="#696969" d="M0,0L34.6,0L34.6,38.1L0,38.1L0,0z" fill="#e7f2fc"/><text class="st1"><tspan x="13.3" y="22.5">3</tspan></text></g><path id="shape3" transform="translate(197.1,0)" stroke="#696969" d="M0,0L34.6,0L34.6,38.1L0,38.1L0,0z" fill="#e7f2fc"/><path id="shape4" transform="translate(231.67,0)" stroke="#696969" d="M0,0L34.6,0L34.6,38.1L0,38.1L0,0z" fill="#e7f2fc"/><path id="shape5" transform="translate(266.25,0)" stroke="#696969" d="M0,0L34.6,0L34.6,38.1L0,38.1L0,0z" fill="#e7f2fc"/><path id="shape6" transform="translate(300.82,0)" stroke="#696969" d="M0,0L34.6,0L34.6,38.1L0,38.1L0,0z" fill="#e7f2fc"/><g id="shape7"><path stroke="#696969" d="M0,0L162.5,0L162.5,38.1L0,38.1L0,0z" fill="#e7f2fc"/><text class="st1"><tspan x="8.3" y="22.5">Small Package</tspan></text></g></g><g transform="translate(0,38.08)"><g id="shape8" transform="translate(162.52,0)"><path stroke="#696969" d="M0,0L34.6,0L34.6,38.1L0,38.1L0,0z" fill="#e7f2fc"/><text class="st1"><tspan x="13.3" y="22.5">5</tspan></text></g><path id="shape9" transform="translate(197.1,0)" stroke="#696969" d="M0,0L34.6,0L34.6,38.1L0,38.1L0,0z" fill="#e7f2fc"/><path id="shape10" transform="translate(231.67,0)" stroke="#696969" d="M0,0L34.6,0L34.6,38.1L0,38.1L0,0z" fill="#e7f2fc"/><path id="shape11" transform="translate(266.25,0)" stroke="#696969" d="M0,0L34.6,0L34.6,38.1L0,38.1L0,0z" fill="#e7f2fc"/><path id="shape12" transform="translate(300.82,0)" stroke="#696969" d="M0,0L34.6,0L34.6,38.1L0,38.1L0,0z" fill="#e7f2fc"/><g id="shape13"><path stroke="#696969" d="M0,0L162.5,0L162.5,38.1L0,38.1L0,0z" fill="#e7f2fc"/><text class="st1"><tspan x="8.3" y="22.5">Output 3.3V</tspan></text></g></g><g transform="translate(0,76.16)"><g id="shape14" transform="translate(162.52,0)"><path stroke="#696969" d="M0,0L34.6,0L34.6,38.1L0,38.1L0,0z" fill="#e7f2fc"/><text class="st1"><tspan x="13.3" y="22.5">5</tspan></text></g><path id="shape15" transform="translate(197.1,0)" stroke="#696969" d="M0,0L34.6,0L34.6,38.1L0,38.1L0,0z" fill="#e7f2fc"/><path id="shape16" transform="translate(231.67,0)" stroke="#696969" d="M0,0L34.6,0L34.6,38.1L0,38.1L0,0z" fill="#e7f2fc"/><path id="shape17" transform="translate(266.25,0)" stroke="#696969" d="M0,0L34.6,0L34.6,38.1L0,38.1L0,0z" fill="#e7f2fc"/><path id="shape18" transform="translate(300.82,0)" stroke="#696969" d="M0,0L34.6,0L34.6,38.1L0,38.1L0,0z" fill="#e7f2fc"/><g id="shape19"><path stroke="#696969" d="M0,0L162.5,0L162.5,38.1L0,38.1L0,0z" fill="#e7f2fc"/><text class="st1"><tspan x="8.3" y="22.5">High Current Output</tspan></text></g></g><g transform="translate(0,114.24)"><g id="shape20" transform="translate(162.52,0)"><path stroke="#696969" d="M0,0L34.6,0L34.6,38.1L0,38.1L0,0z" fill="#e7f2fc"/><text class="st1"><tspan x="13.3" y="22.5">3</tspan></text></g><path id="shape21" transform="translate(197.1,0)" stroke="#696969" d="M0,0L34.6,0L34.6,38.1L0,38.1L0,0z" fill="#e7f2fc"/><path id="shape22" transform="translate(231.67,0)" stroke="#696969" d="M0,0L34.6,0L34.6,38.1L0,38.1L0,0z" fill="#e7f2fc"/><path id="shape23" transform="translate(266.25,0)" stroke="#696969" d="M0,0L34.6,0L34.6,38.1L0,38.1L0,0z" fill="#e7f2fc"/><path id="shape24" transform="translate(300.82,0)" stroke="#696969" d="M0,0L34.6,0L34.6,38.1L0,38.1L0,0z" fill="#e7f2fc"/><g id="shape25"><path stroke="#696969" d="M0,0L162.5,0L162.5,38.1L0,38.1L0,0z" fill="#e7f2fc"/><text class="st1"><tspan x="8.3" y="15">High Frequency </tspan><tspan x="8.3" y="30">Oscilator</tspan></text></g></g><g transform="translate(0,152.31)"><g id="shape26" transform="translate(162.52,0)"><path stroke="#696969" d="M0,0L34.6,0L34.6,38.1L0,38.1L0,0z" fill="#e7f2fc"/><text class="st1"><tspan x="13.3" y="22.5">5</tspan></text></g><path id="shape27" transform="translate(197.1,0)" stroke="#696969" d="M0,0L34.6,0L34.6,38.1L0,38.1L0,0z" fill="#e7f2fc"/><path id="shape28" transform="translate(231.67,0)" stroke="#696969" d="M0,0L34.6,0L34.6,38.1L0,38.1L0,0z" fill="#e7f2fc"/><path id="shape29" transform="translate(266.25,0)" stroke="#696969" d="M0,0L34.6,0L34.6,38.1L0,38.1L0,0z" fill="#e7f2fc"/><path id="shape30" transform="translate(300.82,0)" stroke="#696969" d="M0,0L34.6,0L34.6,38.1L0,38.1L0,0z" fill="#e7f2fc"/><g id="shape31"><path stroke="#696969" d="M0,0L162.5,0L162.5,38.1L0,38.1L0,0z" fill="#e7f2fc"/><text class="st1"><tspan x="8.3" y="22.5">Buck Boost Converter</tspan></text></g></g><g transform="translate(0,190.39)"><g id="shape32" transform="translate(162.52,0)"><path stroke="#696969" d="M0,0L34.6,0L34.6,38.1L0,38.1L0,0z" fill="#e7f2fc"/><text class="st1"><tspan x="13.3" y="22.5">2</tspan></text></g><path id="shape33" transform="translate(197.1,0)" stroke="#696969" d="M0,0L34.6,0L34.6,38.1L0,38.1L0,0z" fill="#e7f2fc"/><path id="shape34" transform="translate(231.67,0)" stroke="#696969" d="M0,0L34.6,0L34.6,38.1L0,38.1L0,0z" fill="#e7f2fc"/><path id="shape35" transform="translate(266.25,0)" stroke="#696969" d="M0,0L34.6,0L34.6,38.1L0,38.1L0,0z" fill="#e7f2fc"/><path id="shape36" transform="translate(300.82,0)" stroke="#696969" d="M0,0L34.6,0L34.6,38.1L0,38.1L0,0z" fill="#e7f2fc"/><g id="shape37"><path stroke="#696969" d="M0,0L162.5,0L162.5,38.1L0,38.1L0,0z" fill="#e7f2fc"/><text class="st1"><tspan x="8.3" y="15">Full Bridge</tspan></text></g></g><g transform="translate(0,228.47)"><g id="shape38" transform="translate(162.52,0)"><path stroke="#696969" d="M0,0L34.6,0L34.6,38.1L0,38.1L0,0z" fill="#e7f2fc"/><text class="st1"><tspan x="13.3" y="22.5">4</tspan></text></g><path id="shape39" transform="translate(197.1,0)" stroke="#696969" d="M0,0L34.6,0L34.6,38.1L0,38.1L0,0z" fill="#e7f2fc"/><path id="shape40" transform="translate(231.67,0)" stroke="#696969" d="M0,0L34.6,0L34.6,38.1L0,38.1L0,0z" fill="#e7f2fc"/><path id="shape41" transform="translate(266.25,0)" stroke="#696969" d="M0,0L34.6,0L34.6,38.1L0,38.1L0,0z" fill="#e7f2fc"/><path id="shape42" transform="translate(300.82,0)" stroke="#696969" d="M0,0L34.6,0L34.6,38.1L0,38.1L0,0z" fill="#e7f2fc"/><g id="shape43"><path stroke="#696969" d="M0,0L162.5,0L162.5,38.1L0,38.1L0,0z" fill="#e7f2fc"/><text class="st1"><tspan x="8.3" y="15">Low noise</tspan></text></g></g><g transform="translate(0,-169.13)"><g id="shape44" transform="translate(162.52,0)"><path stroke="#696969" d="M0,0L34.6,0L34.6,169.1L0,169.1L0,0z" fill="#e7f2fc"/><text class="st1" transform="matrix(0,-1,1,0,-67.3,101.9)"><tspan x="-59.2" y="88.1">Customer Importance</tspan></text></g><g id="shape45" transform="translate(197.1,0)"><path stroke="#696969" d="M0,0L34.6,0L34.6,169.1L0,169.1L0,0z" fill="#e7f2fc"/><text class="st2" transform="matrix(0,-1,1,0,-67.3,101.9)"><tspan x="-59.2" y="88.1">TPS63802EVM</tspan></text></g><g id="shape46" transform="translate(231.67,0)"><path stroke="#696969" d="M0,0L34.6,0L34.6,169.1L0,169.1L0,0z" fill="#e7f2fc"/><text class="st2" transform="matrix(0,-1,1,0,-67.3,101.9)"><tspan x="-59.2" y="88.1">TPS63000</tspan></text></g><g id="shape47" transform="translate(266.25,0)"><path stroke="#696969" d="M0,0L34.6,0L34.6,169.1L0,169.1L0,0z" fill="#e7f2fc"/><text class="st2" transform="matrix(0,-1,1,0,-67.3,101.9)"><tspan x="-59.2" y="88.1">TPS63001</tspan></text></g><g id="shape48" transform="translate(300.82,0)"><path stroke="#696969" d="M0,0L34.6,0L34.6,169.1L0,169.1L0,0z" fill="#e7f2fc"/><text class="st2" transform="matrix(0,-1,1,0,-67.3,101.9)"><tspan x="-59.2" y="88.1">LTC3113</tspan></text></g></g></g><g id="shape49" transform="matrix(0,-1,1,0,66.7,594)"><path stroke="#5a5a5a" d="M265,26.5L265,0L0,0L0,26.5L265,26.5z" fill="#0099d2"/><text class="st1"><tspan x="62" y="16.7">Customer Requirements</tspan></text></g><g id="shape50" transform="translate(247.04,133.1)"><path stroke="#5a5a5a" d="M181,26.5L181,0L0,0L0,26.5L181,26.5z" fill="#ffffff"/><text class="st1"><tspan x="26.5" y="16.7">Voice of the Company</tspan></text></g><g transform="translate(66.65,173)"><g><g id="shape51" transform="translate(41.57,0)"><path stroke="#5a5a5a" d="M0,0L149.9,0L149.9,52.7L0,52.7L0,0z" fill="#ffffff"/><text class="st1"><tspan x="71.4" y="22.3">5</tspan><tspan x="18.4" y="37.3">Strong Relationship</tspan></text></g><path id="shape52" stroke="#5a5a5a" d="M0,0L41.6,0L41.6,52.7L0,52.7L0,0z" fill="#ffffff"/></g><g transform="translate(0,52.67)"><g id="shape53" transform="translate(41.57,0)"><path stroke="#5a5a5a" d="M0,0L149.9,0L149.9,52.7L0,52.7L0,0z" fill="#ffffff"/><text class="st1"><tspan x="71.4" y="22.3">3</tspan><tspan x="10.4" y="37.3">Moderate Relationship</tspan></text></g><path id="shape54" stroke="#5a5a5a" d="M0,0L41.6,0L41.6,52.7L0,52.7L0,0z" fill="#ffffff"/></g><g transform="translate(0,105.33)"><g id="shape55" transform="translate(41.57,0)"><path stroke="#5a5a5a" d="M0,0L149.9,0L149.9,52.7L0,52.7L0,0z" fill="#ffffff"/><text class="st1"><tspan x="71.4" y="22.3">1</tspan><tspan x="21.4" y="37.3">Weak Relationship</tspan></text></g><path id="shape56" stroke="#5a5a5a" d="M0,0L41.6,0L41.6,52.7L0,52.7L0,0z" fill="#ffffff"/></g><g id="shape57" transform="translate(0,-41.08)"><path stroke="#5a5a5a" d="M0,0L191.5,0L191.5,41.1L0,41.1L0,0z" fill="#ffffff"/><text class="st3"><tspan x="53.2" y="24">Relationships</tspan></text></g></g><path id="shape58" transform="translate(297.81,338.28)" stroke-width="3" stroke="url(#lg1)" d="M0,0M18.9,9.4C18.9,14.7,14.7,18.9,9.4,18.9C4.2,18.9,-0,14.7,-0,9.4C-0,4.2,4.2,-0,9.4,-0C14.7,-0,18.9,4.2,18.9,9.4z" fill="url(#lg1)"/><g id="shape59" transform="translate(77.99,242.55)"><path d="M0,0M15.1,9.4C15.1,12.6,12.6,15.1,9.4,15.1C6.3,15.1,3.8,12.6,3.8,9.4C3.8,6.3,6.3,3.8,9.4,3.8C12.6,3.8,15.1,6.3,15.1,9.4z" fill="url(#lg1)"/><path stroke-width="3" stroke="url(#lg1)" d="M0,0M18.9,9.4C18.9,14.7,14.7,18.9,9.4,18.9C4.2,18.9,-0,14.7,-0,9.4C-0,4.2,4.2,-0,9.4,-0C14.7,-0,18.9,4.2,18.9,9.4z" fill="none"/></g><path id="shape60" transform="translate(77.99,295.22)" stroke-width="3" stroke="url(#lg1)" d="M0,0M18.9,9.4C18.9,14.7,14.7,18.9,9.4,18.9C4.2,18.9,-0,14.7,-0,9.4C-0,4.2,4.2,-0,9.4,-0C14.7,-0,18.9,4.2,18.9,9.4z" fill="none"/><path id="shape61" transform="translate(77.99,189.88)" stroke-width="3" stroke="url(#lg1)" d="M0,0M18.9,9.4C18.9,14.7,14.7,18.9,9.4,18.9C4.2,18.9,-0,14.7,-0,9.4C-0,4.2,4.2,-0,9.4,-0C14.7,-0,18.9,4.2,18.9,9.4z" fill="url(#lg1)"/><path id="shape62" transform="translate(297.81,452.51)" stroke-width="3" stroke="url(#lg1)" d="M0,0M18.9,9.4C18.9,14.7,14.7,18.9,9.4,18.9C4.2,18.9,-0,14.7,-0,9.4C-0,4.2,4.2,-0,9.4,-0C14.7,-0,18.9,4.2,18.9,9.4z" fill="none"/><path id="shape63" transform="translate(401.54,490.59)" stroke-width="3" stroke="url(#lg1)" d="M0,0M18.9,9.4C18.9,14.7,14.7,18.9,9.4,18.9C4.2,18.9,-0,14.7,-0,9.4C-0,4.2,4.2,-0,9.4,-0C14.7,-0,18.9,4.2,18.9,9.4z" fill="url(#lg1)"/><g id="shape64" transform="translate(401.54,566.75)"><path d="M0,0M15.1,9.4C15.1,12.6,12.6,15.1,9.4,15.1C6.3,15.1,3.8,12.6,3.8,9.4C3.8,6.3,6.3,3.8,9.4,3.8C12.6,3.8,15.1,6.3,15.1,9.4z" fill="url(#lg1)"/><path stroke-width="3" stroke="url(#lg1)" d="M0,0M18.9,9.4C18.9,14.7,14.7,18.9,9.4,18.9C4.2,18.9,-0,14.7,-0,9.4C-0,4.2,4.2,-0,9.4,-0C14.7,-0,18.9,4.2,18.9,9.4z" fill="none"/></g><path id="shape65" transform="translate(366.96,490.59)" stroke-width="3" stroke="url(#lg1)" d="M0,0M18.9,9.4C18.9,14.7,14.7,18.9,9.4,18.9C4.2,18.9,-0,14.7,-0,9.4C-0,4.2,4.2,-0,9.4,-0C14.7,-0,18.9,4.2,18.9,9.4z" fill="url(#lg1)"/><path id="shape66" transform="translate(332.39,452.51)" stroke-width="3" stroke="url(#lg1)" d="M0,0M18.9,9.4C18.9,14.7,14.7,18.9,9.4,18.9C4.2,18.9,-0,14.7,-0,9.4C-0,4.2,4.2,-0,9.4,-0C14.7,-0,18.9,4.2,18.9,9.4z" fill="none"/><g id="shape67" transform="translate(332.39,490.59)"><path d="M0,0M15.1,9.4C15.1,12.6,12.6,15.1,9.4,15.1C6.3,15.1,3.8,12.6,3.8,9.4C3.8,6.3,6.3,3.8,9.4,3.8C12.6,3.8,15.1,6.3,15.1,9.4z" fill="url(#lg1)"/><path stroke-width="3" stroke="url(#lg1)" d="M0,0M18.9,9.4C18.9,14.7,14.7,18.9,9.4,18.9C4.2,18.9,-0,14.7,-0,9.4C-0,4.2,4.2,-0,9.4,-0C14.7,-0,18.9,4.2,18.9,9.4z" fill="none"/></g><path id="shape68" transform="translate(401.54,414.43)" stroke-width="3" stroke="url(#lg1)" d="M0,0M18.9,9.4C18.9,14.7,14.7,18.9,9.4,18.9C4.2,18.9,-0,14.7,-0,9.4C-0,4.2,4.2,-0,9.4,-0C14.7,-0,18.9,4.2,18.9,9.4z" fill="url(#lg1)"/><g transform="translate(62.27,57.5)"><path id="shape69" stroke-width="0.25" stroke="#1d7ba4" d="M0,0L366,0L366,55L0,55L0,0z" fill="#2ca9e0"/><path id="shape70" transform="translate(-22,-7.7)" stroke-width="0.25" stroke="#1d7ba4" d="M0,0L44,0L44,44L0,44L0,0z" fill="#81bee7"/><path id="shape71" transform="translate(0,-17.87)" stroke-width="0.25" stroke="#2594c5" d="M0,0L35.7,0L35.7,35.7L0,35.7L0,0z" fill="#2ca9e0"/><path id="shape72" transform="translate(352.25,41.24)" stroke-width="0.25" stroke="#1d7ba4" d="M0,0L27.5,0L27.5,27.5L0,27.5L0,0z" fill="#acd1ed"/><text class="st4"><tspan class="st5" x="116.5" y="20.5">Power Supply </tspan><tspan class="st5" x="121.5" y="48.5">QFD Analysis</tspan></text></g><path id="shape73" transform="translate(297.81,528.67)" stroke-width="3" stroke="url(#lg1)" d="M0,0M18.9,9.4C18.9,14.7,14.7,18.9,9.4,18.9C4.2,18.9,-0,14.7,-0,9.4C-0,4.2,4.2,-0,9.4,-0C14.7,-0,18.9,4.2,18.9,9.4z" fill="none"/><path id="shape74" transform="translate(332.39,528.67)" stroke-width="3" stroke="url(#lg1)" d="M0,0M18.9,9.4C18.9,14.7,14.7,18.9,9.4,18.9C4.2,18.9,-0,14.7,-0,9.4C-0,4.2,4.2,-0,9.4,-0C14.7,-0,18.9,4.2,18.9,9.4z" fill="none"/><path id="shape75" transform="translate(366.96,528.67)" stroke-width="3" stroke="url(#lg1)" d="M0,0M18.9,9.4C18.9,14.7,14.7,18.9,9.4,18.9C4.2,18.9,-0,14.7,-0,9.4C-0,4.2,4.2,-0,9.4,-0C14.7,-0,18.9,4.2,18.9,9.4z" fill="none"/><path id="shape76" transform="translate(401.54,528.67)" stroke-width="3" stroke="url(#lg1)" d="M0,0M18.9,9.4C18.9,14.7,14.7,18.9,9.4,18.9C4.2,18.9,-0,14.7,-0,9.4C-0,4.2,4.2,-0,9.4,-0C14.7,-0,18.9,4.2,18.9,9.4z" fill="url(#lg1)"/><path id="shape77" transform="translate(297.81,490.59)" stroke-width="3" stroke="url(#lg1)" d="M0,0M18.9,9.4C18.9,14.7,14.7,18.9,9.4,18.9C4.2,18.9,-0,14.7,-0,9.4C-0,4.2,4.2,-0,9.4,-0C14.7,-0,18.9,4.2,18.9,9.4z" fill="url(#lg1)"/><path id="shape78" transform="translate(366.96,414.43)" stroke-width="3" stroke="url(#lg1)" d="M0,0M18.9,9.4C18.9,14.7,14.7,18.9,9.4,18.9C4.2,18.9,-0,14.7,-0,9.4C-0,4.2,4.2,-0,9.4,-0C14.7,-0,18.9,4.2,18.9,9.4z" fill="none"/><g id="shape79" transform="translate(297.81,414.43)"><path d="M0,0M15.1,9.4C15.1,12.6,12.6,15.1,9.4,15.1C6.3,15.1,3.8,12.6,3.8,9.4C3.8,6.3,6.3,3.8,9.4,3.8C12.6,3.8,15.1,6.3,15.1,9.4z" fill="url(#lg1)"/><path stroke-width="3" stroke="url(#lg1)" d="M0,0M18.9,9.4C18.9,14.7,14.7,18.9,9.4,18.9C4.2,18.9,-0,14.7,-0,9.4C-0,4.2,4.2,-0,9.4,-0C14.7,-0,18.9,4.2,18.9,9.4z" fill="none"/></g><g id="shape80" transform="translate(332.39,414.43)"><path d="M0,0M15.1,9.4C15.1,12.6,12.6,15.1,9.4,15.1C6.3,15.1,3.8,12.6,3.8,9.4C3.8,6.3,6.3,3.8,9.4,3.8C12.6,3.8,15.1,6.3,15.1,9.4z" fill="url(#lg1)"/><path stroke-width="3" stroke="url(#lg1)" d="M0,0M18.9,9.4C18.9,14.7,14.7,18.9,9.4,18.9C4.2,18.9,-0,14.7,-0,9.4C-0,4.2,4.2,-0,9.4,-0C14.7,-0,18.9,4.2,18.9,9.4z" fill="none"/></g><path id="shape81" transform="translate(401.54,452.51)" stroke-width="3" stroke="url(#lg1)" d="M0,0M18.9,9.4C18.9,14.7,14.7,18.9,9.4,18.9C4.2,18.9,-0,14.7,-0,9.4C-0,4.2,4.2,-0,9.4,-0C14.7,-0,18.9,4.2,18.9,9.4z" fill="url(#lg1)"/><path id="shape82" transform="translate(297.81,376.36)" stroke-width="3" stroke="url(#lg1)" d="M0,0M18.9,9.4C18.9,14.7,14.7,18.9,9.4,18.9C4.2,18.9,-0,14.7,-0,9.4C-0,4.2,4.2,-0,9.4,-0C14.7,-0,18.9,4.2,18.9,9.4z" fill="url(#lg1)"/><path id="shape83" transform="translate(332.39,376.36)" stroke-width="3" stroke="url(#lg1)" d="M0,0M18.9,9.4C18.9,14.7,14.7,18.9,9.4,18.9C4.2,18.9,-0,14.7,-0,9.4C-0,4.2,4.2,-0,9.4,-0C14.7,-0,18.9,4.2,18.9,9.4z" fill="url(#lg1)"/><path id="shape84" transform="translate(366.96,376.36)" stroke-width="3" stroke="url(#lg1)" d="M0,0M18.9,9.4C18.9,14.7,14.7,18.9,9.4,18.9C4.2,18.9,-0,14.7,-0,9.4C-0,4.2,4.2,-0,9.4,-0C14.7,-0,18.9,4.2,18.9,9.4z" fill="url(#lg1)"/><path id="shape85" transform="translate(401.54,376.36)" stroke-width="3" stroke="url(#lg1)" d="M0,0M18.9,9.4C18.9,14.7,14.7,18.9,9.4,18.9C4.2,18.9,-0,14.7,-0,9.4C-0,4.2,4.2,-0,9.4,-0C14.7,-0,18.9,4.2,18.9,9.4z" fill="url(#lg1)"/><g id="shape86" transform="translate(401.54,338.28)"><path d="M0,0M15.1,9.4C15.1,12.6,12.6,15.1,9.4,15.1C6.3,15.1,3.8,12.6,3.8,9.4C3.8,6.3,6.3,3.8,9.4,3.8C12.6,3.8,15.1,6.3,15.1,9.4z" fill="url(#lg1)"/><path stroke-width="3" stroke="url(#lg1)" d="M0,0M18.9,9.4C18.9,14.7,14.7,18.9,9.4,18.9C4.2,18.9,-0,14.7,-0,9.4C-0,4.2,4.2,-0,9.4,-0C14.7,-0,18.9,4.2,18.9,9.4z" fill="none"/></g><path id="shape87" transform="translate(332.39,338.28)" stroke-width="3" stroke="url(#lg1)" d="M0,0M18.9,9.4C18.9,14.7,14.7,18.9,9.4,18.9C4.2,18.9,-0,14.7,-0,9.4C-0,4.2,4.2,-0,9.4,-0C14.7,-0,18.9,4.2,18.9,9.4z" fill="url(#lg1)"/><path id="shape88" transform="translate(366.96,338.28)" stroke-width="3" stroke="url(#lg1)" d="M0,0M18.9,9.4C18.9,14.7,14.7,18.9,9.4,18.9C4.2,18.9,-0,14.7,-0,9.4C-0,4.2,4.2,-0,9.4,-0C14.7,-0,18.9,4.2,18.9,9.4z" fill="url(#lg1)"/><path id="shape89" transform="translate(297.81,566.75)" stroke-width="3" stroke="url(#lg1)" d="M0,0M18.9,9.4C18.9,14.7,14.7,18.9,9.4,18.9C4.2,18.9,-0,14.7,-0,9.4C-0,4.2,4.2,-0,9.4,-0C14.7,-0,18.9,4.2,18.9,9.4z" fill="url(#lg1)"/><path id="shape90" transform="translate(332.39,566.75)" stroke-width="3" stroke="url(#lg1)" d="M0,0M18.9,9.4C18.9,14.7,14.7,18.9,9.4,18.9C4.2,18.9,-0,14.7,-0,9.4C-0,4.2,4.2,-0,9.4,-0C14.7,-0,18.9,4.2,18.9,9.4z" fill="url(#lg1)"/><path id="shape91" transform="translate(366.96,566.75)" stroke-width="3" stroke="url(#lg1)" d="M0,0M18.9,9.4C18.9,14.7,14.7,18.9,9.4,18.9C4.2,18.9,-0,14.7,-0,9.4C-0,4.2,4.2,-0,9.4,-0C14.7,-0,18.9,4.2,18.9,9.4z" fill="url(#lg1)"/><g transform="translate(92.88,595)"><path id="shape92" transform="translate(162.52,0)" stroke="#696969" d="M0,0L34.6,0L34.6,38.1L0,38.1L0,0z" fill="#e7f2fc"/><g id="shape93" transform="translate(197.1,0)"><path stroke="#696969" d="M0,0L34.6,0L34.6,38.1L0,38.1L0,0z" fill="#e7f2fc"/><text class="st2"><tspan x="10.3" y="22.5">25</tspan></text></g><g id="shape94" transform="translate(231.67,0)"><path stroke="#696969" d="M0,0L34.6,0L34.6,38.1L0,38.1L0,0z" fill="#e7f2fc"/><text class="st2"><tspan x="10.3" y="22.5">23</tspan></text></g><g id="shape95" transform="translate(266.25,0)"><path stroke="#696969" d="M0,0L34.6,0L34.6,38.1L0,38.1L0,0z" fill="#e7f2fc"/><text class="st2"><tspan x="10.3" y="22.5">23</tspan></text></g><g id="shape96" transform="translate(300.82,0)"><path stroke="#696969" d="M0,0L34.6,0L34.6,38.1L0,38.1L0,0z" fill="#e7f2fc"/><text class="st2"><tspan x="10.3" y="22.5">27</tspan></text></g><g id="shape97"><path stroke="#696969" d="M0,0L162.5,0L162.5,38.1L0,38.1L0,0z" fill="#e7f2fc"/><text class="st1"><tspan x="8.3" y="15">Summary</tspan></text></g></g><path id="shape98" transform="translate(366.96,452.51)" stroke-width="3" stroke="url(#lg1)" d="M0,0M18.9,9.4C18.9,14.7,14.7,18.9,9.4,18.9C4.2,18.9,-0,14.7,-0,9.4C-0,4.2,4.2,-0,9.4,-0C14.7,-0,18.9,4.2,18.9,9.4z" fill="none"/></g></svg>