<svg width="564" height="808" xmlns="http://www.w3.org/2000/svg" xmlns:xlink="http://www.w3.org/1999/xlink" viewBox="0 0 564 808" xmlns:ev="http://www.w3.org/2001/xml-events"><style type="text/css"><![CDATA[
.st3 {fill:#000000;font-family:Times New Roman;font-size:10pt;font-weight:bold}
.st6 {fill:#404040;font-family:Times New Roman;font-size:10pt;font-weight:bold}
.st1 {fill:#404040;font-family:Times New Roman;font-size:10pt}
.st2 {fill:#404040;font-family:Times New Roman;font-size:11pt}
.st4 {fill:#ffffff;font-family:Times New Roman;font-size:16pt}
.st5 {font-size:18pt}
]]></style><defs><linearGradient x2="0%" x1="0%" y1="0%" id="lg1" y2="100%"><stop offset="0" stop-color="#338cca"/><stop offset="1" stop-color="#006fbd"/></linearGradient></defs><g transform="translate(5,5)" id="page1"><rect width="554" height="798" y="0" fill="#ffffff" stroke="#808080" x="0"/><path fill="#ffffff" d="M0,0L554,0L554,798L0,798L0,0z" id="shape1"/><g transform="translate(66.88,326.69)"><g transform="translate(162.52,0)" id="shape2"><path fill="#cfebf6" stroke="#696969" d="M0,0L34.6,0L34.6,33.3L0,33.3L0,0z"/><text class="st1"><tspan y="20.2" x="14.3">3</tspan></text></g><path fill="#cfebf6" stroke="#696969" transform="translate(197.1,0)" d="M0,0L34.6,0L34.6,33.3L0,33.3L0,0z" id="shape3"/><path fill="#cfebf6" stroke="#696969" transform="translate(231.67,0)" d="M0,0L34.6,0L34.6,33.3L0,33.3L0,0z" id="shape4"/><path fill="#cfebf6" stroke="#696969" transform="translate(266.25,0)" d="M0,0L34.6,0L34.6,33.3L0,33.3L0,0z" id="shape5"/><path fill="#cfebf6" stroke="#696969" transform="translate(300.82,0)" d="M0,0L34.6,0L34.6,33.3L0,33.3L0,0z" id="shape6"/><path fill="#cfebf6" stroke="#696969" transform="translate(335.4,0)" d="M0,0L34.6,0L34.6,33.3L0,33.3L0,0z" id="shape7"/><path fill="#cfebf6" stroke="#696969" transform="translate(369.97,0)" d="M0,0L34.6,0L34.6,33.3L0,33.3L0,0z" id="shape8"/><path fill="#cfebf6" stroke="#696969" transform="translate(404.55,0)" d="M0,0L34.6,0L34.6,33.3L0,33.3L0,0z" id="shape9"/><g id="shape10"><path fill="#cfebf6" stroke="#696969" d="M0,0L162.5,0L162.5,33.3L0,33.3L0,0z"/><text class="st1"><tspan y="20.2" x="8.3">Free Loops</tspan></text></g></g><g transform="translate(66.88,360.01)"><g transform="translate(162.52,0)" id="shape11"><path fill="#cfebf6" stroke="#696969" d="M0,0L34.6,0L34.6,33.3L0,33.3L0,0z"/><text class="st1"><tspan y="20.2" x="14.3">5</tspan></text></g><path fill="#cfebf6" stroke="#696969" transform="translate(197.1,0)" d="M0,0L34.6,0L34.6,33.3L0,33.3L0,0z" id="shape12"/><path fill="#cfebf6" stroke="#696969" transform="translate(231.67,0)" d="M0,0L34.6,0L34.6,33.3L0,33.3L0,0z" id="shape13"/><path fill="#cfebf6" stroke="#696969" transform="translate(266.25,0)" d="M0,0L34.6,0L34.6,33.3L0,33.3L0,0z" id="shape14"/><path fill="#cfebf6" stroke="#696969" transform="translate(300.82,0)" d="M0,0L34.6,0L34.6,33.3L0,33.3L0,0z" id="shape15"/><path fill="#cfebf6" stroke="#696969" transform="translate(335.4,0)" d="M0,0L34.6,0L34.6,33.3L0,33.3L0,0z" id="shape16"/><path fill="#cfebf6" stroke="#696969" transform="translate(369.97,0)" d="M0,0L34.6,0L34.6,33.3L0,33.3L0,0z" id="shape17"/><path fill="#cfebf6" stroke="#696969" transform="translate(404.55,0)" d="M0,0L34.6,0L34.6,33.3L0,33.3L0,0z" id="shape18"/><g id="shape19"><path fill="#cfebf6" stroke="#696969" d="M0,0L162.5,0L162.5,33.3L0,33.3L0,0z"/><text class="st1"><tspan y="20.2" x="8.3">Scalability</tspan></text></g></g><g transform="translate(66.88,393.32)"><g transform="translate(162.52,0)" id="shape20"><path fill="#cfebf6" stroke="#696969" d="M0,0L34.6,0L34.6,33.3L0,33.3L0,0z"/><text class="st1"><tspan y="20.2" x="14.3">5</tspan></text></g><path fill="#cfebf6" stroke="#696969" transform="translate(197.1,0)" d="M0,0L34.6,0L34.6,33.3L0,33.3L0,0z" id="shape21"/><path fill="#cfebf6" stroke="#696969" transform="translate(231.67,0)" d="M0,0L34.6,0L34.6,33.3L0,33.3L0,0z" id="shape22"/><path fill="#cfebf6" stroke="#696969" transform="translate(266.25,0)" d="M0,0L34.6,0L34.6,33.3L0,33.3L0,0z" id="shape23"/><path fill="#cfebf6" stroke="#696969" transform="translate(300.82,0)" d="M0,0L34.6,0L34.6,33.3L0,33.3L0,0z" id="shape24"/><path fill="#cfebf6" stroke="#696969" transform="translate(335.4,0)" d="M0,0L34.6,0L34.6,33.3L0,33.3L0,0z" id="shape25"/><path fill="#cfebf6" stroke="#696969" transform="translate(369.97,0)" d="M0,0L34.6,0L34.6,33.3L0,33.3L0,0z" id="shape26"/><path fill="#cfebf6" stroke="#696969" transform="translate(404.55,0)" d="M0,0L34.6,0L34.6,33.3L0,33.3L0,0z" id="shape27"/><g id="shape28"><path fill="#cfebf6" stroke="#696969" d="M0,0L162.5,0L162.5,33.3L0,33.3L0,0z"/><text class="st1"><tspan y="20.2" x="8.3">Realibility</tspan></text></g></g><g transform="translate(66.88,426.64)"><g transform="translate(162.52,0)" id="shape29"><path fill="#cfebf6" stroke="#696969" d="M0,0L34.6,0L34.6,33.3L0,33.3L0,0z"/><text class="st1"><tspan y="20.2" x="14.3">4</tspan></text></g><path fill="#cfebf6" stroke="#696969" transform="translate(197.1,0)" d="M0,0L34.6,0L34.6,33.3L0,33.3L0,0z" id="shape30"/><path fill="#cfebf6" stroke="#696969" transform="translate(231.67,0)" d="M0,0L34.6,0L34.6,33.3L0,33.3L0,0z" id="shape31"/><path fill="#cfebf6" stroke="#696969" transform="translate(266.25,0)" d="M0,0L34.6,0L34.6,33.3L0,33.3L0,0z" id="shape32"/><path fill="#cfebf6" stroke="#696969" transform="translate(300.82,0)" d="M0,0L34.6,0L34.6,33.3L0,33.3L0,0z" id="shape33"/><path fill="#cfebf6" stroke="#696969" transform="translate(335.4,0)" d="M0,0L34.6,0L34.6,33.3L0,33.3L0,0z" id="shape34"/><path fill="#cfebf6" stroke="#696969" transform="translate(369.97,0)" d="M0,0L34.6,0L34.6,33.3L0,33.3L0,0z" id="shape35"/><path fill="#cfebf6" stroke="#696969" transform="translate(404.55,0)" d="M0,0L34.6,0L34.6,33.3L0,33.3L0,0z" id="shape36"/><g id="shape37"><path fill="#cfebf6" stroke="#696969" d="M0,0L162.5,0L162.5,33.3L0,33.3L0,0z"/><text class="st1"><tspan y="20.2" x="8.3">Control Overhead</tspan></text></g></g><g transform="translate(66.88,459.96)"><g transform="translate(162.52,0)" id="shape38"><path fill="#cfebf6" stroke="#696969" d="M0,0L34.6,0L34.6,33.3L0,33.3L0,0z"/><text class="st1"><tspan y="20.2" x="14.3">3</tspan></text></g><path fill="#cfebf6" stroke="#696969" transform="translate(197.1,0)" d="M0,0L34.6,0L34.6,33.3L0,33.3L0,0z" id="shape39"/><path fill="#cfebf6" stroke="#696969" transform="translate(231.67,0)" d="M0,0L34.6,0L34.6,33.3L0,33.3L0,0z" id="shape40"/><path fill="#cfebf6" stroke="#696969" transform="translate(266.25,0)" d="M0,0L34.6,0L34.6,33.3L0,33.3L0,0z" id="shape41"/><path fill="#cfebf6" stroke="#696969" transform="translate(300.82,0)" d="M0,0L34.6,0L34.6,33.3L0,33.3L0,0z" id="shape42"/><path fill="#cfebf6" stroke="#696969" transform="translate(335.4,0)" d="M0,0L34.6,0L34.6,33.3L0,33.3L0,0z" id="shape43"/><path fill="#cfebf6" stroke="#696969" transform="translate(369.97,0)" d="M0,0L34.6,0L34.6,33.3L0,33.3L0,0z" id="shape44"/><path fill="#cfebf6" stroke="#696969" transform="translate(404.55,0)" d="M0,0L34.6,0L34.6,33.3L0,33.3L0,0z" id="shape45"/><g id="shape46"><path fill="#cfebf6" stroke="#696969" d="M0,0L162.5,0L162.5,33.3L0,33.3L0,0z"/><text class="st1"><tspan y="20.2" x="8.3"> energy efficiency</tspan></text></g></g><g transform="translate(66.88,493.28)"><g transform="translate(162.52,0)" id="shape47"><path fill="#cfebf6" stroke="#696969" d="M0,0L34.6,0L34.6,33.3L0,33.3L0,0z"/><text class="st1"><tspan y="20.2" x="14.3">3</tspan></text></g><path fill="#cfebf6" stroke="#696969" transform="translate(197.1,0)" d="M0,0L34.6,0L34.6,33.3L0,33.3L0,0z" id="shape48"/><path fill="#cfebf6" stroke="#696969" transform="translate(231.67,0)" d="M0,0L34.6,0L34.6,33.3L0,33.3L0,0z" id="shape49"/><path fill="#cfebf6" stroke="#696969" transform="translate(266.25,0)" d="M0,0L34.6,0L34.6,33.3L0,33.3L0,0z" id="shape50"/><path fill="#cfebf6" stroke="#696969" transform="translate(300.82,0)" d="M0,0L34.6,0L34.6,33.3L0,33.3L0,0z" id="shape51"/><path fill="#cfebf6" stroke="#696969" transform="translate(335.4,0)" d="M0,0L34.6,0L34.6,33.3L0,33.3L0,0z" id="shape52"/><path fill="#cfebf6" stroke="#696969" transform="translate(369.97,0)" d="M0,0L34.6,0L34.6,33.3L0,33.3L0,0z" id="shape53"/><path fill="#cfebf6" stroke="#696969" transform="translate(404.55,0)" d="M0,0L34.6,0L34.6,33.3L0,33.3L0,0z" id="shape54"/><g id="shape55"><path fill="#cfebf6" stroke="#696969" d="M0,0L162.5,0L162.5,33.3L0,33.3L0,0z"/><text class="st1"><tspan y="15" x="8.3">easy to implement</tspan></text></g></g><g transform="translate(66.88,526.6)"><g transform="translate(162.52,0)" id="shape56"><path fill="#cfebf6" stroke="#696969" d="M0,0L34.6,0L34.6,33.3L0,33.3L0,0z"/><text class="st1"><tspan y="20.2" x="14.3">4</tspan></text></g><path fill="#cfebf6" stroke="#696969" transform="translate(197.1,0)" d="M0,0L34.6,0L34.6,33.3L0,33.3L0,0z" id="shape57"/><path fill="#cfebf6" stroke="#696969" transform="translate(231.67,0)" d="M0,0L34.6,0L34.6,33.3L0,33.3L0,0z" id="shape58"/><path fill="#cfebf6" stroke="#696969" transform="translate(266.25,0)" d="M0,0L34.6,0L34.6,33.3L0,33.3L0,0z" id="shape59"/><path fill="#cfebf6" stroke="#696969" transform="translate(300.82,0)" d="M0,0L34.6,0L34.6,33.3L0,33.3L0,0z" id="shape60"/><path fill="#cfebf6" stroke="#696969" transform="translate(335.4,0)" d="M0,0L34.6,0L34.6,33.3L0,33.3L0,0z" id="shape61"/><path fill="#cfebf6" stroke="#696969" transform="translate(369.97,0)" d="M0,0L34.6,0L34.6,33.3L0,33.3L0,0z" id="shape62"/><path fill="#cfebf6" stroke="#696969" transform="translate(404.55,0)" d="M0,0L34.6,0L34.6,33.3L0,33.3L0,0z" id="shape63"/><g id="shape64"><path fill="#cfebf6" stroke="#696969" d="M0,0L162.5,0L162.5,33.3L0,33.3L0,0z"/><text class="st2"><tspan y="17" x="8.3">reduce failures</tspan></text></g></g><g transform="translate(66.88,559.92)"><g transform="translate(162.52,0)" id="shape65"><path fill="#cfebf6" stroke="#696969" d="M0,0L34.6,0L34.6,33.3L0,33.3L0,0z"/><text class="st1"><tspan y="20.2" x="14.3">5</tspan></text></g><path fill="#cfebf6" stroke="#696969" transform="translate(197.1,0)" d="M0,0L34.6,0L34.6,33.3L0,33.3L0,0z" id="shape66"/><path fill="#cfebf6" stroke="#696969" transform="translate(231.67,0)" d="M0,0L34.6,0L34.6,33.3L0,33.3L0,0z" id="shape67"/><path fill="#cfebf6" stroke="#696969" transform="translate(266.25,0)" d="M0,0L34.6,0L34.6,33.3L0,33.3L0,0z" id="shape68"/><path fill="#cfebf6" stroke="#696969" transform="translate(300.82,0)" d="M0,0L34.6,0L34.6,33.3L0,33.3L0,0z" id="shape69"/><path fill="#cfebf6" stroke="#696969" transform="translate(335.4,0)" d="M0,0L34.6,0L34.6,33.3L0,33.3L0,0z" id="shape70"/><path fill="#cfebf6" stroke="#696969" transform="translate(369.97,0)" d="M0,0L34.6,0L34.6,33.3L0,33.3L0,0z" id="shape71"/><path fill="#cfebf6" stroke="#696969" transform="translate(404.55,0)" d="M0,0L34.6,0L34.6,33.3L0,33.3L0,0z" id="shape72"/><g id="shape73"><path fill="#cfebf6" stroke="#696969" d="M0,0L162.5,0L162.5,33.3L0,33.3L0,0z"/><text class="st1"><tspan y="20.2" x="8.3">Optimal Routes</tspan></text></g></g><g transform="translate(66.88,157.55)"><g transform="translate(162.52,0)" id="shape74"><path fill="#cfebf6" stroke="#696969" d="M0,0L34.6,0L34.6,169.1L0,169.1L0,0z"/><text transform="matrix(0,-1,1,0,-67.3,101.9)" class="st1"><tspan y="88.1" x="-59.2">Importancia del cliente</tspan></text></g><g transform="translate(197.1,0)" id="shape75"><path fill="#cfebf6" stroke="#696969" d="M0,0L34.6,0L34.6,169.1L0,169.1L0,0z"/><text transform="matrix(0,-1,1,0,-67.3,101.9)" class="st1"><tspan y="88.1" x="-59.2">AODVv2</tspan></text></g><g transform="translate(231.67,0)" id="shape76"><path fill="#cfebf6" stroke="#696969" d="M0,0L34.6,0L34.6,169.1L0,169.1L0,0z"/><text transform="matrix(0,-1,1,0,-67.3,101.9)" class="st1"><tspan y="88.1" x="-59.2">OLSR</tspan></text></g><g transform="translate(266.25,0)" id="shape77"><path fill="#cfebf6" stroke="#696969" d="M0,0L34.6,0L34.6,169.1L0,169.1L0,0z"/><text transform="matrix(0,-1,1,0,-67.3,101.9)" class="st1"><tspan y="88.1" x="-59.2">DSDV</tspan></text></g><g transform="translate(300.82,0)" id="shape78"><path fill="#cfebf6" stroke="#696969" d="M0,0L34.6,0L34.6,169.1L0,169.1L0,0z"/><text transform="matrix(0,-1,1,0,-67.3,101.9)" class="st1"><tspan y="88.1" x="-59.2">BATMAN</tspan></text></g><g transform="translate(335.4,0)" id="shape79"><path fill="#cfebf6" stroke="#696969" d="M0,0L34.6,0L34.6,169.1L0,169.1L0,0z"/><text transform="matrix(0,-1,1,0,-67.3,101.9)" class="st1"><tspan y="88.1" x="-59.2">TORA</tspan></text></g><g transform="translate(369.97,0)" id="shape80"><path fill="#cfebf6" stroke="#696969" d="M0,0L34.6,0L34.6,169.1L0,169.1L0,0z"/><text transform="matrix(0,-1,1,0,-67.3,101.9)" class="st1"><tspan y="88.1" x="-59.2">Mesh Topology</tspan></text></g><g transform="translate(404.55,0)" id="shape81"><path fill="#cfebf6" stroke="#696969" d="M0,0L34.6,0L34.6,169.1L0,169.1L0,0z"/><text transform="matrix(0,-1,1,0,-67.3,101.9)" class="st1"><tspan y="88.1" x="-59.2">Star Topology</tspan></text></g></g><g transform="matrix(0,-1,1,0,40.7,694)" id="shape82"><path fill="#968c74" stroke="#5a5a5a" d="M368,26.5L368,0L0,0L0,26.5L368,26.5z"/><text class="st1"><tspan y="16.7" x="121">Customer Requirements</tspan></text></g><g transform="translate(226,131.1)" id="shape83"><path fill="#d7bfb5" stroke="#5a5a5a" d="M279,26.5L279,0L0,0L0,26.5L279,26.5z"/><text class="st1"><tspan y="16.7" x="81">Voice of the Company</tspan></text></g><g transform="translate(41.17,171.8)"><g><g transform="translate(41.57,0)" id="shape84"><path fill="#ffffff" stroke="#5a5a5a" d="M0,0L145.1,0L145.1,52.5L0,52.5L0,0z"/><text class="st1"><tspan y="22.2" x="69.1">5</tspan><tspan y="37.2" x="21.1">Strong Relationship</tspan></text></g><path fill="#ffffff" stroke="#5a5a5a" d="M0,0L41.6,0L41.6,52.5L0,52.5L0,0z" id="shape85"/></g><g transform="translate(0,52.45)"><g transform="translate(41.57,0)" id="shape86"><path fill="#ffffff" stroke="#5a5a5a" d="M0,0L145.1,0L145.1,52.5L0,52.5L0,0z"/><text class="st1"><tspan y="22.2" x="69.1">3</tspan><tspan y="37.2" x="13.1">Moderate Relationship</tspan></text></g><path fill="#ffffff" stroke="#5a5a5a" d="M0,0L41.6,0L41.6,52.5L0,52.5L0,0z" id="shape87"/></g><g transform="translate(0,104.9)"><g transform="translate(41.57,0)" id="shape88"><path fill="#ffffff" stroke="#5a5a5a" d="M0,0L145.1,0L145.1,52.5L0,52.5L0,0z"/><text class="st1"><tspan y="22.2" x="69.1">1</tspan><tspan y="37.2" x="23.1">Weak Relationship</tspan></text></g><path fill="#ffffff" stroke="#5a5a5a" d="M0,0L41.6,0L41.6,52.5L0,52.5L0,0z" id="shape89"/></g><g transform="translate(0,-40.91)" id="shape90"><path fill="#b67d5b" stroke="#5a5a5a" d="M0,0L186.7,0L186.7,40.9L0,40.9L0,0z"/><text class="st3"><tspan y="24" x="55.3">Relationships</tspan></text></g></g><path fill="url(#lg1)" stroke="url(#lg1)" transform="translate(271.81,333.9)" d="M0,0M18.9,9.4C18.9,14.7,14.7,18.9,9.4,18.9C4.2,18.9,-0,14.7,-0,9.4C-0,4.2,4.2,-0,9.4,-0C14.7,-0,18.9,4.2,18.9,9.4z" stroke-width="3" id="shape91"/><g transform="translate(52.51,241.03)" id="shape92"><path fill="url(#lg1)" d="M0,0M15.1,9.4C15.1,12.6,12.6,15.1,9.4,15.1C6.3,15.1,3.8,12.6,3.8,9.4C3.8,6.3,6.3,3.8,9.4,3.8C12.6,3.8,15.1,6.3,15.1,9.4z"/><path fill="none" stroke="url(#lg1)" d="M0,0M18.9,9.4C18.9,14.7,14.7,18.9,9.4,18.9C4.2,18.9,-0,14.7,-0,9.4C-0,4.2,4.2,-0,9.4,-0C14.7,-0,18.9,4.2,18.9,9.4z" stroke-width="3"/></g><path fill="none" stroke="url(#lg1)" transform="translate(52.51,293.48)" d="M0,0M18.9,9.4C18.9,14.7,14.7,18.9,9.4,18.9C4.2,18.9,-0,14.7,-0,9.4C-0,4.2,4.2,-0,9.4,-0C14.7,-0,18.9,4.2,18.9,9.4z" stroke-width="3" id="shape93"/><path fill="url(#lg1)" stroke="url(#lg1)" transform="translate(52.51,188.58)" d="M0,0M18.9,9.4C18.9,14.7,14.7,18.9,9.4,18.9C4.2,18.9,-0,14.7,-0,9.4C-0,4.2,4.2,-0,9.4,-0C14.7,-0,18.9,4.2,18.9,9.4z" stroke-width="3" id="shape94"/><path fill="url(#lg1)" stroke="url(#lg1)" transform="translate(444.69,367.22)" d="M0,0M18.9,9.4C18.9,14.7,14.7,18.9,9.4,18.9C4.2,18.9,-0,14.7,-0,9.4C-0,4.2,4.2,-0,9.4,-0C14.7,-0,18.9,4.2,18.9,9.4z" stroke-width="3" id="shape95"/><g transform="translate(66.7,57.67)"><path fill="#2ca9e0" stroke="#1d7ba4" d="M0,0L354,0L354,54L0,54L0,0z" id="shape96"/><path fill="#81bee7" stroke="#1d7ba4" transform="translate(-21.6,-7.56)" d="M0,0L43.2,0L43.2,43.2L0,43.2L0,0z" id="shape97"/><path fill="#2ca9e0" stroke="#2594c5" transform="translate(0,-17.55)" d="M0,0L35.1,0L35.1,35.1L0,35.1L0,0z" id="shape98"/><path fill="#acd1ed" stroke="#1d7ba4" transform="translate(340.54,40.5)" d="M0,0L27,0L27,27L0,27L0,0z" id="shape99"/><text class="st4"><tspan y="20" x="84.6" class="st5">Roting Protocol QFD </tspan><tspan y="48" x="145.6" class="st5">Analysis</tspan></text></g><path fill="url(#lg1)" stroke="url(#lg1)" transform="translate(340.96,433.85)" d="M0,0M18.9,9.4C18.9,14.7,14.7,18.9,9.4,18.9C4.2,18.9,-0,14.7,-0,9.4C-0,4.2,4.2,-0,9.4,-0C14.7,-0,18.9,4.2,18.9,9.4z" stroke-width="3" id="shape100"/><path fill="url(#lg1)" stroke="url(#lg1)" transform="translate(375.54,333.9)" d="M0,0M18.9,9.4C18.9,14.7,14.7,18.9,9.4,18.9C4.2,18.9,-0,14.7,-0,9.4C-0,4.2,4.2,-0,9.4,-0C14.7,-0,18.9,4.2,18.9,9.4z" stroke-width="3" id="shape101"/><g transform="translate(76.88,569.92)"/><g transform="translate(66.7,593)"><g transform="translate(162.52,0)" id="shape102"><path fill="#cfebf6" stroke="#696969" d="M0,0L34.6,0L34.6,33.3L0,33.3L0,0z"/><text class="st1"><tspan y="20.2" x="14.3">5</tspan></text></g><path fill="#cfebf6" stroke="#696969" transform="translate(197.1,0)" d="M0,0L34.6,0L34.6,33.3L0,33.3L0,0z" id="shape103"/><path fill="#cfebf6" stroke="#696969" transform="translate(231.67,0)" d="M0,0L34.6,0L34.6,33.3L0,33.3L0,0z" id="shape104"/><path fill="#cfebf6" stroke="#696969" transform="translate(266.25,0)" d="M0,0L34.6,0L34.6,33.3L0,33.3L0,0z" id="shape105"/><path fill="#cfebf6" stroke="#696969" transform="translate(300.82,0)" d="M0,0L34.6,0L34.6,33.3L0,33.3L0,0z" id="shape106"/><path fill="#cfebf6" stroke="#696969" transform="translate(335.4,0)" d="M0,0L34.6,0L34.6,33.3L0,33.3L0,0z" id="shape107"/><path fill="#cfebf6" stroke="#696969" transform="translate(369.97,0)" d="M0,0L34.6,0L34.6,33.3L0,33.3L0,0z" id="shape108"/><path fill="#cfebf6" stroke="#696969" transform="translate(404.55,0)" d="M0,0L34.6,0L34.6,33.3L0,33.3L0,0z" id="shape109"/><g transform="translate(-0,0)" id="shape110"><path fill="#cfebf6" stroke="#696969" d="M0,0L162.5,0L162.5,33.3L0,33.3L0,0z"/><text class="st1"><tspan y="20.2" x="8.3">Without infrastructure</tspan></text></g></g><g transform="translate(66.7,625.7)"><g transform="translate(162.52,0)" id="shape111"><path fill="#cfebf6" stroke="#696969" d="M0,0L34.6,0L34.6,33.3L0,33.3L0,0z"/><text class="st1"><tspan y="20.2" x="14.3">5</tspan></text></g><path fill="#cfebf6" stroke="#696969" transform="translate(197.1,0)" d="M0,0L34.6,0L34.6,33.3L0,33.3L0,0z" id="shape112"/><path fill="#cfebf6" stroke="#696969" transform="translate(231.67,0)" d="M0,0L34.6,0L34.6,33.3L0,33.3L0,0z" id="shape113"/><path fill="#cfebf6" stroke="#696969" transform="translate(266.25,0)" d="M0,0L34.6,0L34.6,33.3L0,33.3L0,0z" id="shape114"/><path fill="#cfebf6" stroke="#696969" transform="translate(300.82,0)" d="M0,0L34.6,0L34.6,33.3L0,33.3L0,0z" id="shape115"/><path fill="#cfebf6" stroke="#696969" transform="translate(335.4,0)" d="M0,0L34.6,0L34.6,33.3L0,33.3L0,0z" id="shape116"/><path fill="#cfebf6" stroke="#696969" transform="translate(369.97,0)" d="M0,0L34.6,0L34.6,33.3L0,33.3L0,0z" id="shape117"/><path fill="#cfebf6" stroke="#696969" transform="translate(404.55,0)" d="M0,0L34.6,0L34.6,33.3L0,33.3L0,0z" id="shape118"/><g transform="translate(-0,0)" id="shape119"><path fill="#cfebf6" stroke="#696969" d="M0,0L162.5,0L162.5,33.3L0,33.3L0,0z"/><text class="st1"><tspan y="12.7" x="8.3">Update routes by events </tspan><tspan y="27.7" x="8.3">from user</tspan></text></g></g><g transform="translate(66.7,659.41)"><g transform="translate(162.52,0)" id="shape120"><path fill="#cfebf6" stroke="#696969" d="M0,0L34.6,0L34.6,33.3L0,33.3L0,0z"/><text class="st1"><tspan y="20.2" x="14.3">5</tspan></text></g><path fill="#cfebf6" stroke="#696969" transform="translate(197.1,0)" d="M0,0L34.6,0L34.6,33.3L0,33.3L0,0z" id="shape121"/><path fill="#cfebf6" stroke="#696969" transform="translate(231.67,0)" d="M0,0L34.6,0L34.6,33.3L0,33.3L0,0z" id="shape122"/><path fill="#cfebf6" stroke="#696969" transform="translate(266.25,0)" d="M0,0L34.6,0L34.6,33.3L0,33.3L0,0z" id="shape123"/><path fill="#cfebf6" stroke="#696969" transform="translate(300.82,0)" d="M0,0L34.6,0L34.6,33.3L0,33.3L0,0z" id="shape124"/><path fill="#cfebf6" stroke="#696969" transform="translate(335.4,0)" d="M0,0L34.6,0L34.6,33.3L0,33.3L0,0z" id="shape125"/><path fill="#cfebf6" stroke="#696969" transform="translate(369.97,0)" d="M0,0L34.6,0L34.6,33.3L0,33.3L0,0z" id="shape126"/><path fill="#cfebf6" stroke="#696969" transform="translate(404.55,0)" d="M0,0L34.6,0L34.6,33.3L0,33.3L0,0z" id="shape127"/><g transform="translate(-0,0)" id="shape128"><path fill="#cfebf6" stroke="#696969" d="M0,0L162.5,0L162.5,33.3L0,33.3L0,0z"/><text class="st1"><tspan y="20.2" x="8.3">low computational cost</tspan></text></g></g><g transform="translate(479.26,367.22)" id="shape129"><path fill="url(#lg1)" d="M0,0M15.1,9.4C15.1,12.6,12.6,15.1,9.4,15.1C6.3,15.1,3.8,12.6,3.8,9.4C3.8,6.3,6.3,3.8,9.4,3.8C12.6,3.8,15.1,6.3,15.1,9.4z"/><path fill="none" stroke="url(#lg1)" d="M0,0M18.9,9.4C18.9,14.7,14.7,18.9,9.4,18.9C4.2,18.9,-0,14.7,-0,9.4C-0,4.2,4.2,-0,9.4,-0C14.7,-0,18.9,4.2,18.9,9.4z" stroke-width="3"/></g><g transform="translate(375.36,666.62)" id="shape130"><path fill="url(#lg1)" d="M0,0M15.1,9.4C15.1,12.6,12.6,15.1,9.4,15.1C6.3,15.1,3.8,12.6,3.8,9.4C3.8,6.3,6.3,3.8,9.4,3.8C12.6,3.8,15.1,6.3,15.1,9.4z"/><path fill="none" stroke="url(#lg1)" d="M0,0M18.9,9.4C18.9,14.7,14.7,18.9,9.4,18.9C4.2,18.9,-0,14.7,-0,9.4C-0,4.2,4.2,-0,9.4,-0C14.7,-0,18.9,4.2,18.9,9.4z" stroke-width="3"/></g><path fill="url(#lg1)" stroke="url(#lg1)" transform="translate(410.11,333.9)" d="M0,0M18.9,9.4C18.9,14.7,14.7,18.9,9.4,18.9C4.2,18.9,-0,14.7,-0,9.4C-0,4.2,4.2,-0,9.4,-0C14.7,-0,18.9,4.2,18.9,9.4z" stroke-width="3" id="shape131"/><g transform="translate(66.88,693.11)"><g transform="translate(162.52,0)" id="shape132"><path fill="#cfebf6" stroke="#696969" d="M0,0L34.6,0L34.6,33.3L0,33.3L0,0z"/><text class="st1"><tspan y="20.2" x="14.3">5</tspan></text></g><path fill="#cfebf6" stroke="#696969" transform="translate(197.1,0)" d="M0,0L34.6,0L34.6,33.3L0,33.3L0,0z" id="shape133"/><path fill="#cfebf6" stroke="#696969" transform="translate(231.67,0)" d="M0,0L34.6,0L34.6,33.3L0,33.3L0,0z" id="shape134"/><path fill="#cfebf6" stroke="#696969" transform="translate(266.25,0)" d="M0,0L34.6,0L34.6,33.3L0,33.3L0,0z" id="shape135"/><path fill="#cfebf6" stroke="#696969" transform="translate(300.82,0)" d="M0,0L34.6,0L34.6,33.3L0,33.3L0,0z" id="shape136"/><path fill="#cfebf6" stroke="#696969" transform="translate(335.4,0)" d="M0,0L34.6,0L34.6,33.3L0,33.3L0,0z" id="shape137"/><path fill="#cfebf6" stroke="#696969" transform="translate(369.97,0)" d="M0,0L34.6,0L34.6,33.3L0,33.3L0,0z" id="shape138"/><path fill="#cfebf6" stroke="#696969" transform="translate(404.55,0)" d="M0,0L34.6,0L34.6,33.3L0,33.3L0,0z" id="shape139"/><g transform="translate(-0,0)" id="shape140"><path fill="#cfebf6" stroke="#696969" d="M0,0L162.5,0L162.5,33.3L0,33.3L0,0z"/><text class="st1"><tspan y="20.2" x="8.3">Movilidad</tspan></text></g></g><path fill="url(#lg1)" stroke="url(#lg1)" transform="translate(271.81,500.49)" d="M0,0M18.9,9.4C18.9,14.7,14.7,18.9,9.4,18.9C4.2,18.9,-0,14.7,-0,9.4C-0,4.2,4.2,-0,9.4,-0C14.7,-0,18.9,4.2,18.9,9.4z" stroke-width="3" id="shape141"/><path fill="none" stroke="url(#lg1)" transform="translate(306.39,333.9)" d="M0,0M18.9,9.4C18.9,14.7,14.7,18.9,9.4,18.9C4.2,18.9,-0,14.7,-0,9.4C-0,4.2,4.2,-0,9.4,-0C14.7,-0,18.9,4.2,18.9,9.4z" stroke-width="3" id="shape142"/><path fill="none" stroke="url(#lg1)" transform="translate(444.69,500.49)" d="M0,0M18.9,9.4C18.9,14.7,14.7,18.9,9.4,18.9C4.2,18.9,-0,14.7,-0,9.4C-0,4.2,4.2,-0,9.4,-0C14.7,-0,18.9,4.2,18.9,9.4z" stroke-width="3" id="shape143"/><path fill="none" stroke="url(#lg1)" transform="translate(479.26,500.49)" d="M0,0M18.9,9.4C18.9,14.7,14.7,18.9,9.4,18.9C4.2,18.9,-0,14.7,-0,9.4C-0,4.2,4.2,-0,9.4,-0C14.7,-0,18.9,4.2,18.9,9.4z" stroke-width="3" id="shape144"/><path fill="url(#lg1)" stroke="url(#lg1)" transform="translate(271.81,567.13)" d="M0,0M18.9,9.4C18.9,14.7,14.7,18.9,9.4,18.9C4.2,18.9,-0,14.7,-0,9.4C-0,4.2,4.2,-0,9.4,-0C14.7,-0,18.9,4.2,18.9,9.4z" stroke-width="3" id="shape145"/><path fill="url(#lg1)" stroke="url(#lg1)" transform="translate(271.63,666.62)" d="M0,0M18.9,9.4C18.9,14.7,14.7,18.9,9.4,18.9C4.2,18.9,-0,14.7,-0,9.4C-0,4.2,4.2,-0,9.4,-0C14.7,-0,18.9,4.2,18.9,9.4z" stroke-width="3" id="shape146"/><path fill="url(#lg1)" stroke="url(#lg1)" transform="translate(444.69,533.81)" d="M0,0M18.9,9.4C18.9,14.7,14.7,18.9,9.4,18.9C4.2,18.9,-0,14.7,-0,9.4C-0,4.2,4.2,-0,9.4,-0C14.7,-0,18.9,4.2,18.9,9.4z" stroke-width="3" id="shape147"/><g transform="translate(479.26,533.81)" id="shape148"><path fill="url(#lg1)" d="M0,0M15.1,9.4C15.1,12.6,12.6,15.1,9.4,15.1C6.3,15.1,3.8,12.6,3.8,9.4C3.8,6.3,6.3,3.8,9.4,3.8C12.6,3.8,15.1,6.3,15.1,9.4z"/><path fill="none" stroke="url(#lg1)" d="M0,0M18.9,9.4C18.9,14.7,14.7,18.9,9.4,18.9C4.2,18.9,-0,14.7,-0,9.4C-0,4.2,4.2,-0,9.4,-0C14.7,-0,18.9,4.2,18.9,9.4z" stroke-width="3"/></g><path fill="url(#lg1)" stroke="url(#lg1)" transform="translate(410.11,400.54)" d="M0,0M18.9,9.4C18.9,14.7,14.7,18.9,9.4,18.9C4.2,18.9,-0,14.7,-0,9.4C-0,4.2,4.2,-0,9.4,-0C14.7,-0,18.9,4.2,18.9,9.4z" stroke-width="3" id="shape149"/><path fill="url(#lg1)" stroke="url(#lg1)" transform="translate(410.11,367.22)" d="M0,0M18.9,9.4C18.9,14.7,14.7,18.9,9.4,18.9C4.2,18.9,-0,14.7,-0,9.4C-0,4.2,4.2,-0,9.4,-0C14.7,-0,18.9,4.2,18.9,9.4z" stroke-width="3" id="shape150"/><g transform="translate(410.11,433.85)" id="shape151"><path fill="url(#lg1)" d="M0,0M15.1,9.4C15.1,12.6,12.6,15.1,9.4,15.1C6.3,15.1,3.8,12.6,3.8,9.4C3.8,6.3,6.3,3.8,9.4,3.8C12.6,3.8,15.1,6.3,15.1,9.4z"/><path fill="none" stroke="url(#lg1)" d="M0,0M18.9,9.4C18.9,14.7,14.7,18.9,9.4,18.9C4.2,18.9,-0,14.7,-0,9.4C-0,4.2,4.2,-0,9.4,-0C14.7,-0,18.9,4.2,18.9,9.4z" stroke-width="3"/></g><path fill="url(#lg1)" stroke="url(#lg1)" transform="translate(271.81,467.17)" d="M0,0M18.9,9.4C18.9,14.7,14.7,18.9,9.4,18.9C4.2,18.9,-0,14.7,-0,9.4C-0,4.2,4.2,-0,9.4,-0C14.7,-0,18.9,4.2,18.9,9.4z" stroke-width="3" id="shape152"/><path fill="url(#lg1)" stroke="url(#lg1)" transform="translate(271.81,433.85)" d="M0,0M18.9,9.4C18.9,14.7,14.7,18.9,9.4,18.9C4.2,18.9,-0,14.7,-0,9.4C-0,4.2,4.2,-0,9.4,-0C14.7,-0,18.9,4.2,18.9,9.4z" stroke-width="3" id="shape153"/><path fill="url(#lg1)" stroke="url(#lg1)" transform="translate(271.81,400.54)" d="M0,0M18.9,9.4C18.9,14.7,14.7,18.9,9.4,18.9C4.2,18.9,-0,14.7,-0,9.4C-0,4.2,4.2,-0,9.4,-0C14.7,-0,18.9,4.2,18.9,9.4z" stroke-width="3" id="shape154"/><path fill="url(#lg1)" stroke="url(#lg1)" transform="translate(271.81,700.33)" d="M0,0M18.9,9.4C18.9,14.7,14.7,18.9,9.4,18.9C4.2,18.9,-0,14.7,-0,9.4C-0,4.2,4.2,-0,9.4,-0C14.7,-0,18.9,4.2,18.9,9.4z" stroke-width="3" id="shape155"/><path fill="url(#lg1)" stroke="url(#lg1)" transform="translate(271.63,600.21)" d="M0,0M18.9,9.4C18.9,14.7,14.7,18.9,9.4,18.9C4.2,18.9,-0,14.7,-0,9.4C-0,4.2,4.2,-0,9.4,-0C14.7,-0,18.9,4.2,18.9,9.4z" stroke-width="3" id="shape156"/><path fill="url(#lg1)" stroke="url(#lg1)" transform="translate(409.93,600.21)" d="M0,0M18.9,9.4C18.9,14.7,14.7,18.9,9.4,18.9C4.2,18.9,-0,14.7,-0,9.4C-0,4.2,4.2,-0,9.4,-0C14.7,-0,18.9,4.2,18.9,9.4z" stroke-width="3" id="shape157"/><path fill="url(#lg1)" stroke="url(#lg1)" transform="translate(271.63,632.92)" d="M0,0M18.9,9.4C18.9,14.7,14.7,18.9,9.4,18.9C4.2,18.9,-0,14.7,-0,9.4C-0,4.2,4.2,-0,9.4,-0C14.7,-0,18.9,4.2,18.9,9.4z" stroke-width="3" id="shape158"/><path fill="url(#lg1)" stroke="url(#lg1)" transform="translate(410.11,467.17)" d="M0,0M18.9,9.4C18.9,14.7,14.7,18.9,9.4,18.9C4.2,18.9,-0,14.7,-0,9.4C-0,4.2,4.2,-0,9.4,-0C14.7,-0,18.9,4.2,18.9,9.4z" stroke-width="3" id="shape159"/><g transform="translate(340.96,400.54)" id="shape160"><path fill="url(#lg1)" d="M0,0M15.1,9.4C15.1,12.6,12.6,15.1,9.4,15.1C6.3,15.1,3.8,12.6,3.8,9.4C3.8,6.3,6.3,3.8,9.4,3.8C12.6,3.8,15.1,6.3,15.1,9.4z"/><path fill="none" stroke="url(#lg1)" d="M0,0M18.9,9.4C18.9,14.7,14.7,18.9,9.4,18.9C4.2,18.9,-0,14.7,-0,9.4C-0,4.2,4.2,-0,9.4,-0C14.7,-0,18.9,4.2,18.9,9.4z" stroke-width="3"/></g><g transform="translate(340.96,467.17)" id="shape161"><path fill="url(#lg1)" d="M0,0M15.1,9.4C15.1,12.6,12.6,15.1,9.4,15.1C6.3,15.1,3.8,12.6,3.8,9.4C3.8,6.3,6.3,3.8,9.4,3.8C12.6,3.8,15.1,6.3,15.1,9.4z"/><path fill="none" stroke="url(#lg1)" d="M0,0M18.9,9.4C18.9,14.7,14.7,18.9,9.4,18.9C4.2,18.9,-0,14.7,-0,9.4C-0,4.2,4.2,-0,9.4,-0C14.7,-0,18.9,4.2,18.9,9.4z" stroke-width="3"/></g><g transform="translate(306.39,567.13)" id="shape162"><path fill="url(#lg1)" d="M0,0M15.1,9.4C15.1,12.6,12.6,15.1,9.4,15.1C6.3,15.1,3.8,12.6,3.8,9.4C3.8,6.3,6.3,3.8,9.4,3.8C12.6,3.8,15.1,6.3,15.1,9.4z"/><path fill="none" stroke="url(#lg1)" d="M0,0M18.9,9.4C18.9,14.7,14.7,18.9,9.4,18.9C4.2,18.9,-0,14.7,-0,9.4C-0,4.2,4.2,-0,9.4,-0C14.7,-0,18.9,4.2,18.9,9.4z" stroke-width="3"/></g><path fill="none" stroke="url(#lg1)" transform="translate(340.96,567.13)" d="M0,0M18.9,9.4C18.9,14.7,14.7,18.9,9.4,18.9C4.2,18.9,-0,14.7,-0,9.4C-0,4.2,4.2,-0,9.4,-0C14.7,-0,18.9,4.2,18.9,9.4z" stroke-width="3" id="shape163"/><path fill="url(#lg1)" stroke="url(#lg1)" transform="translate(409.93,666.62)" d="M0,0M18.9,9.4C18.9,14.7,14.7,18.9,9.4,18.9C4.2,18.9,-0,14.7,-0,9.4C-0,4.2,4.2,-0,9.4,-0C14.7,-0,18.9,4.2,18.9,9.4z" stroke-width="3" id="shape164"/><path fill="none" stroke="url(#lg1)" transform="translate(306.21,632.92)" d="M0,0M18.9,9.4C18.9,14.7,14.7,18.9,9.4,18.9C4.2,18.9,-0,14.7,-0,9.4C-0,4.2,4.2,-0,9.4,-0C14.7,-0,18.9,4.2,18.9,9.4z" stroke-width="3" id="shape165"/><path fill="none" stroke="url(#lg1)" transform="translate(306.39,467.17)" d="M0,0M18.9,9.4C18.9,14.7,14.7,18.9,9.4,18.9C4.2,18.9,-0,14.7,-0,9.4C-0,4.2,4.2,-0,9.4,-0C14.7,-0,18.9,4.2,18.9,9.4z" stroke-width="3" id="shape166"/><path fill="none" stroke="url(#lg1)" transform="translate(306.39,433.85)" d="M0,0M18.9,9.4C18.9,14.7,14.7,18.9,9.4,18.9C4.2,18.9,-0,14.7,-0,9.4C-0,4.2,4.2,-0,9.4,-0C14.7,-0,18.9,4.2,18.9,9.4z" stroke-width="3" id="shape167"/><path fill="url(#lg1)" stroke="url(#lg1)" transform="translate(306.39,700.33)" d="M0,0M18.9,9.4C18.9,14.7,14.7,18.9,9.4,18.9C4.2,18.9,-0,14.7,-0,9.4C-0,4.2,4.2,-0,9.4,-0C14.7,-0,18.9,4.2,18.9,9.4z" stroke-width="3" id="shape168"/><path fill="url(#lg1)" stroke="url(#lg1)" transform="translate(340.96,700.33)" d="M0,0M18.9,9.4C18.9,14.7,14.7,18.9,9.4,18.9C4.2,18.9,-0,14.7,-0,9.4C-0,4.2,4.2,-0,9.4,-0C14.7,-0,18.9,4.2,18.9,9.4z" stroke-width="3" id="shape169"/><path fill="none" stroke="url(#lg1)" transform="translate(271.81,533.81)" d="M0,0M18.9,9.4C18.9,14.7,14.7,18.9,9.4,18.9C4.2,18.9,-0,14.7,-0,9.4C-0,4.2,4.2,-0,9.4,-0C14.7,-0,18.9,4.2,18.9,9.4z" stroke-width="3" id="shape170"/><path fill="none" stroke="url(#lg1)" transform="translate(306.39,533.81)" d="M0,0M18.9,9.4C18.9,14.7,14.7,18.9,9.4,18.9C4.2,18.9,-0,14.7,-0,9.4C-0,4.2,4.2,-0,9.4,-0C14.7,-0,18.9,4.2,18.9,9.4z" stroke-width="3" id="shape171"/><path fill="none" stroke="url(#lg1)" transform="translate(340.96,533.81)" d="M0,0M18.9,9.4C18.9,14.7,14.7,18.9,9.4,18.9C4.2,18.9,-0,14.7,-0,9.4C-0,4.2,4.2,-0,9.4,-0C14.7,-0,18.9,4.2,18.9,9.4z" stroke-width="3" id="shape172"/><path fill="none" stroke="url(#lg1)" transform="translate(375.54,533.81)" d="M0,0M18.9,9.4C18.9,14.7,14.7,18.9,9.4,18.9C4.2,18.9,-0,14.7,-0,9.4C-0,4.2,4.2,-0,9.4,-0C14.7,-0,18.9,4.2,18.9,9.4z" stroke-width="3" id="shape173"/><path fill="none" stroke="url(#lg1)" transform="translate(410.11,533.81)" d="M0,0M18.9,9.4C18.9,14.7,14.7,18.9,9.4,18.9C4.2,18.9,-0,14.7,-0,9.4C-0,4.2,4.2,-0,9.4,-0C14.7,-0,18.9,4.2,18.9,9.4z" stroke-width="3" id="shape174"/><path fill="url(#lg1)" stroke="url(#lg1)" transform="translate(375.54,700.33)" d="M0,0M18.9,9.4C18.9,14.7,14.7,18.9,9.4,18.9C4.2,18.9,-0,14.7,-0,9.4C-0,4.2,4.2,-0,9.4,-0C14.7,-0,18.9,4.2,18.9,9.4z" stroke-width="3" id="shape175"/><path fill="url(#lg1)" stroke="url(#lg1)" transform="translate(410.11,700.33)" d="M0,0M18.9,9.4C18.9,14.7,14.7,18.9,9.4,18.9C4.2,18.9,-0,14.7,-0,9.4C-0,4.2,4.2,-0,9.4,-0C14.7,-0,18.9,4.2,18.9,9.4z" stroke-width="3" id="shape176"/><path fill="url(#lg1)" stroke="url(#lg1)" transform="translate(444.69,700.33)" d="M0,0M18.9,9.4C18.9,14.7,14.7,18.9,9.4,18.9C4.2,18.9,-0,14.7,-0,9.4C-0,4.2,4.2,-0,9.4,-0C14.7,-0,18.9,4.2,18.9,9.4z" stroke-width="3" id="shape177"/><path fill="none" stroke="url(#lg1)" transform="translate(479.26,700.33)" d="M0,0M18.9,9.4C18.9,14.7,14.7,18.9,9.4,18.9C4.2,18.9,-0,14.7,-0,9.4C-0,4.2,4.2,-0,9.4,-0C14.7,-0,18.9,4.2,18.9,9.4z" stroke-width="3" id="shape178"/><path fill="none" stroke="url(#lg1)" transform="translate(444.69,333.9)" d="M0,0M18.9,9.4C18.9,14.7,14.7,18.9,9.4,18.9C4.2,18.9,-0,14.7,-0,9.4C-0,4.2,4.2,-0,9.4,-0C14.7,-0,18.9,4.2,18.9,9.4z" stroke-width="3" id="shape179"/><path fill="none" stroke="url(#lg1)" transform="translate(479.26,333.9)" d="M0,0M18.9,9.4C18.9,14.7,14.7,18.9,9.4,18.9C4.2,18.9,-0,14.7,-0,9.4C-0,4.2,4.2,-0,9.4,-0C14.7,-0,18.9,4.2,18.9,9.4z" stroke-width="3" id="shape180"/><g transform="translate(375.54,367.22)" id="shape181"><path fill="url(#lg1)" d="M0,0M15.1,9.4C15.1,12.6,12.6,15.1,9.4,15.1C6.3,15.1,3.8,12.6,3.8,9.4C3.8,6.3,6.3,3.8,9.4,3.8C12.6,3.8,15.1,6.3,15.1,9.4z"/><path fill="none" stroke="url(#lg1)" d="M0,0M18.9,9.4C18.9,14.7,14.7,18.9,9.4,18.9C4.2,18.9,-0,14.7,-0,9.4C-0,4.2,4.2,-0,9.4,-0C14.7,-0,18.9,4.2,18.9,9.4z" stroke-width="3"/></g><path fill="none" stroke="url(#lg1)" transform="translate(271.81,367.22)" d="M0,0M18.9,9.4C18.9,14.7,14.7,18.9,9.4,18.9C4.2,18.9,-0,14.7,-0,9.4C-0,4.2,4.2,-0,9.4,-0C14.7,-0,18.9,4.2,18.9,9.4z" stroke-width="3" id="shape182"/><path fill="none" stroke="url(#lg1)" transform="translate(306.39,367.22)" d="M0,0M18.9,9.4C18.9,14.7,14.7,18.9,9.4,18.9C4.2,18.9,-0,14.7,-0,9.4C-0,4.2,4.2,-0,9.4,-0C14.7,-0,18.9,4.2,18.9,9.4z" stroke-width="3" id="shape183"/><path fill="none" stroke="url(#lg1)" transform="translate(340.96,367.22)" d="M0,0M18.9,9.4C18.9,14.7,14.7,18.9,9.4,18.9C4.2,18.9,-0,14.7,-0,9.4C-0,4.2,4.2,-0,9.4,-0C14.7,-0,18.9,4.2,18.9,9.4z" stroke-width="3" id="shape184"/><path fill="url(#lg1)" stroke="url(#lg1)" transform="translate(375.54,400.54)" d="M0,0M18.9,9.4C18.9,14.7,14.7,18.9,9.4,18.9C4.2,18.9,-0,14.7,-0,9.4C-0,4.2,4.2,-0,9.4,-0C14.7,-0,18.9,4.2,18.9,9.4z" stroke-width="3" id="shape185"/><g transform="translate(306.39,400.54)" id="shape186"><path fill="url(#lg1)" d="M0,0M15.1,9.4C15.1,12.6,12.6,15.1,9.4,15.1C6.3,15.1,3.8,12.6,3.8,9.4C3.8,6.3,6.3,3.8,9.4,3.8C12.6,3.8,15.1,6.3,15.1,9.4z"/><path fill="none" stroke="url(#lg1)" d="M0,0M18.9,9.4C18.9,14.7,14.7,18.9,9.4,18.9C4.2,18.9,-0,14.7,-0,9.4C-0,4.2,4.2,-0,9.4,-0C14.7,-0,18.9,4.2,18.9,9.4z" stroke-width="3"/></g><path fill="url(#lg1)" stroke="url(#lg1)" transform="translate(410.11,567.13)" d="M0,0M18.9,9.4C18.9,14.7,14.7,18.9,9.4,18.9C4.2,18.9,-0,14.7,-0,9.4C-0,4.2,4.2,-0,9.4,-0C14.7,-0,18.9,4.2,18.9,9.4z" stroke-width="3" id="shape187"/><path fill="none" stroke="url(#lg1)" transform="translate(306.21,600.21)" d="M0,0M18.9,9.4C18.9,14.7,14.7,18.9,9.4,18.9C4.2,18.9,-0,14.7,-0,9.4C-0,4.2,4.2,-0,9.4,-0C14.7,-0,18.9,4.2,18.9,9.4z" stroke-width="3" id="shape188"/><g transform="translate(306.21,666.62)" id="shape189"><path fill="url(#lg1)" d="M0,0M15.1,9.4C15.1,12.6,12.6,15.1,9.4,15.1C6.3,15.1,3.8,12.6,3.8,9.4C3.8,6.3,6.3,3.8,9.4,3.8C12.6,3.8,15.1,6.3,15.1,9.4z"/><path fill="none" stroke="url(#lg1)" d="M0,0M18.9,9.4C18.9,14.7,14.7,18.9,9.4,18.9C4.2,18.9,-0,14.7,-0,9.4C-0,4.2,4.2,-0,9.4,-0C14.7,-0,18.9,4.2,18.9,9.4z" stroke-width="3"/></g><path fill="none" stroke="url(#lg1)" transform="translate(444.51,666.62)" d="M0,0M18.9,9.4C18.9,14.7,14.7,18.9,9.4,18.9C4.2,18.9,-0,14.7,-0,9.4C-0,4.2,4.2,-0,9.4,-0C14.7,-0,18.9,4.2,18.9,9.4z" stroke-width="3" id="shape190"/><path fill="none" stroke="url(#lg1)" transform="translate(479.08,666.62)" d="M0,0M18.9,9.4C18.9,14.7,14.7,18.9,9.4,18.9C4.2,18.9,-0,14.7,-0,9.4C-0,4.2,4.2,-0,9.4,-0C14.7,-0,18.9,4.2,18.9,9.4z" stroke-width="3" id="shape191"/><path fill="none" stroke="url(#lg1)" transform="translate(479.08,632.92)" d="M0,0M18.9,9.4C18.9,14.7,14.7,18.9,9.4,18.9C4.2,18.9,-0,14.7,-0,9.4C-0,4.2,4.2,-0,9.4,-0C14.7,-0,18.9,4.2,18.9,9.4z" stroke-width="3" id="shape192"/><path fill="none" stroke="url(#lg1)" transform="translate(340.96,333.9)" d="M0,0M18.9,9.4C18.9,14.7,14.7,18.9,9.4,18.9C4.2,18.9,-0,14.7,-0,9.4C-0,4.2,4.2,-0,9.4,-0C14.7,-0,18.9,4.2,18.9,9.4z" stroke-width="3" id="shape193"/><path fill="none" stroke="url(#lg1)" transform="translate(479.08,600.21)" d="M0,0M18.9,9.4C18.9,14.7,14.7,18.9,9.4,18.9C4.2,18.9,-0,14.7,-0,9.4C-0,4.2,4.2,-0,9.4,-0C14.7,-0,18.9,4.2,18.9,9.4z" stroke-width="3" id="shape194"/><g transform="translate(375.54,433.85)" id="shape195"><path fill="url(#lg1)" d="M0,0M15.1,9.4C15.1,12.6,12.6,15.1,9.4,15.1C6.3,15.1,3.8,12.6,3.8,9.4C3.8,6.3,6.3,3.8,9.4,3.8C12.6,3.8,15.1,6.3,15.1,9.4z"/><path fill="none" stroke="url(#lg1)" d="M0,0M18.9,9.4C18.9,14.7,14.7,18.9,9.4,18.9C4.2,18.9,-0,14.7,-0,9.4C-0,4.2,4.2,-0,9.4,-0C14.7,-0,18.9,4.2,18.9,9.4z" stroke-width="3"/></g><path fill="none" stroke="url(#lg1)" transform="translate(444.69,433.85)" d="M0,0M18.9,9.4C18.9,14.7,14.7,18.9,9.4,18.9C4.2,18.9,-0,14.7,-0,9.4C-0,4.2,4.2,-0,9.4,-0C14.7,-0,18.9,4.2,18.9,9.4z" stroke-width="3" id="shape196"/><path fill="none" stroke="url(#lg1)" transform="translate(479.26,433.85)" d="M0,0M18.9,9.4C18.9,14.7,14.7,18.9,9.4,18.9C4.2,18.9,-0,14.7,-0,9.4C-0,4.2,4.2,-0,9.4,-0C14.7,-0,18.9,4.2,18.9,9.4z" stroke-width="3" id="shape197"/><path fill="none" stroke="url(#lg1)" transform="translate(479.26,400.54)" d="M0,0M18.9,9.4C18.9,14.7,14.7,18.9,9.4,18.9C4.2,18.9,-0,14.7,-0,9.4C-0,4.2,4.2,-0,9.4,-0C14.7,-0,18.9,4.2,18.9,9.4z" stroke-width="3" id="shape198"/><path fill="url(#lg1)" stroke="url(#lg1)" transform="translate(444.69,400.54)" d="M0,0M18.9,9.4C18.9,14.7,14.7,18.9,9.4,18.9C4.2,18.9,-0,14.7,-0,9.4C-0,4.2,4.2,-0,9.4,-0C14.7,-0,18.9,4.2,18.9,9.4z" stroke-width="3" id="shape199"/><path fill="none" stroke="url(#lg1)" transform="translate(479.26,467.17)" d="M0,0M18.9,9.4C18.9,14.7,14.7,18.9,9.4,18.9C4.2,18.9,-0,14.7,-0,9.4C-0,4.2,4.2,-0,9.4,-0C14.7,-0,18.9,4.2,18.9,9.4z" stroke-width="3" id="shape200"/><path fill="none" stroke="url(#lg1)" transform="translate(444.69,467.17)" d="M0,0M18.9,9.4C18.9,14.7,14.7,18.9,9.4,18.9C4.2,18.9,-0,14.7,-0,9.4C-0,4.2,4.2,-0,9.4,-0C14.7,-0,18.9,4.2,18.9,9.4z" stroke-width="3" id="shape201"/><path fill="url(#lg1)" stroke="url(#lg1)" transform="translate(306.39,500.49)" d="M0,0M18.9,9.4C18.9,14.7,14.7,18.9,9.4,18.9C4.2,18.9,-0,14.7,-0,9.4C-0,4.2,4.2,-0,9.4,-0C14.7,-0,18.9,4.2,18.9,9.4z" stroke-width="3" id="shape202"/><path fill="url(#lg1)" stroke="url(#lg1)" transform="translate(340.78,600.21)" d="M0,0M18.9,9.4C18.9,14.7,14.7,18.9,9.4,18.9C4.2,18.9,-0,14.7,-0,9.4C-0,4.2,4.2,-0,9.4,-0C14.7,-0,18.9,4.2,18.9,9.4z" stroke-width="3" id="shape203"/><path fill="url(#lg1)" stroke="url(#lg1)" transform="translate(375.36,600.21)" d="M0,0M18.9,9.4C18.9,14.7,14.7,18.9,9.4,18.9C4.2,18.9,-0,14.7,-0,9.4C-0,4.2,4.2,-0,9.4,-0C14.7,-0,18.9,4.2,18.9,9.4z" stroke-width="3" id="shape204"/><path fill="none" stroke="url(#lg1)" transform="translate(375.36,632.92)" d="M0,0M18.9,9.4C18.9,14.7,14.7,18.9,9.4,18.9C4.2,18.9,-0,14.7,-0,9.4C-0,4.2,4.2,-0,9.4,-0C14.7,-0,18.9,4.2,18.9,9.4z" stroke-width="3" id="shape205"/><path fill="none" stroke="url(#lg1)" transform="translate(444.69,567.13)" d="M0,0M18.9,9.4C18.9,14.7,14.7,18.9,9.4,18.9C4.2,18.9,-0,14.7,-0,9.4C-0,4.2,4.2,-0,9.4,-0C14.7,-0,18.9,4.2,18.9,9.4z" stroke-width="3" id="shape206"/><path fill="none" stroke="url(#lg1)" transform="translate(340.78,632.92)" d="M0,0M18.9,9.4C18.9,14.7,14.7,18.9,9.4,18.9C4.2,18.9,-0,14.7,-0,9.4C-0,4.2,4.2,-0,9.4,-0C14.7,-0,18.9,4.2,18.9,9.4z" stroke-width="3" id="shape207"/><path fill="url(#lg1)" stroke="url(#lg1)" transform="translate(409.93,632.92)" d="M0,0M18.9,9.4C18.9,14.7,14.7,18.9,9.4,18.9C4.2,18.9,-0,14.7,-0,9.4C-0,4.2,4.2,-0,9.4,-0C14.7,-0,18.9,4.2,18.9,9.4z" stroke-width="3" id="shape208"/><path fill="url(#lg1)" stroke="url(#lg1)" transform="translate(340.96,500.49)" d="M0,0M18.9,9.4C18.9,14.7,14.7,18.9,9.4,18.9C4.2,18.9,-0,14.7,-0,9.4C-0,4.2,4.2,-0,9.4,-0C14.7,-0,18.9,4.2,18.9,9.4z" stroke-width="3" id="shape209"/><g transform="translate(375.54,500.49)" id="shape210"><path fill="url(#lg1)" d="M0,0M15.1,9.4C15.1,12.6,12.6,15.1,9.4,15.1C6.3,15.1,3.8,12.6,3.8,9.4C3.8,6.3,6.3,3.8,9.4,3.8C12.6,3.8,15.1,6.3,15.1,9.4z"/><path fill="none" stroke="url(#lg1)" d="M0,0M18.9,9.4C18.9,14.7,14.7,18.9,9.4,18.9C4.2,18.9,-0,14.7,-0,9.4C-0,4.2,4.2,-0,9.4,-0C14.7,-0,18.9,4.2,18.9,9.4z" stroke-width="3"/></g><g transform="translate(410.11,500.49)" id="shape211"><path fill="url(#lg1)" d="M0,0M15.1,9.4C15.1,12.6,12.6,15.1,9.4,15.1C6.3,15.1,3.8,12.6,3.8,9.4C3.8,6.3,6.3,3.8,9.4,3.8C12.6,3.8,15.1,6.3,15.1,9.4z"/><path fill="none" stroke="url(#lg1)" d="M0,0M18.9,9.4C18.9,14.7,14.7,18.9,9.4,18.9C4.2,18.9,-0,14.7,-0,9.4C-0,4.2,4.2,-0,9.4,-0C14.7,-0,18.9,4.2,18.9,9.4z" stroke-width="3"/></g><g transform="translate(375.54,467.17)" id="shape212"><path fill="url(#lg1)" d="M0,0M15.1,9.4C15.1,12.6,12.6,15.1,9.4,15.1C6.3,15.1,3.8,12.6,3.8,9.4C3.8,6.3,6.3,3.8,9.4,3.8C12.6,3.8,15.1,6.3,15.1,9.4z"/><path fill="none" stroke="url(#lg1)" d="M0,0M18.9,9.4C18.9,14.7,14.7,18.9,9.4,18.9C4.2,18.9,-0,14.7,-0,9.4C-0,4.2,4.2,-0,9.4,-0C14.7,-0,18.9,4.2,18.9,9.4z" stroke-width="3"/></g><path fill="url(#lg1)" stroke="url(#lg1)" transform="translate(375.54,567.13)" d="M0,0M18.9,9.4C18.9,14.7,14.7,18.9,9.4,18.9C4.2,18.9,-0,14.7,-0,9.4C-0,4.2,4.2,-0,9.4,-0C14.7,-0,18.9,4.2,18.9,9.4z" stroke-width="3" id="shape213"/><path fill="none" stroke="url(#lg1)" transform="translate(479.26,567.13)" d="M0,0M18.9,9.4C18.9,14.7,14.7,18.9,9.4,18.9C4.2,18.9,-0,14.7,-0,9.4C-0,4.2,4.2,-0,9.4,-0C14.7,-0,18.9,4.2,18.9,9.4z" stroke-width="3" id="shape214"/><path fill="none" stroke="url(#lg1)" transform="translate(444.51,632.92)" d="M0,0M18.9,9.4C18.9,14.7,14.7,18.9,9.4,18.9C4.2,18.9,-0,14.7,-0,9.4C-0,4.2,4.2,-0,9.4,-0C14.7,-0,18.9,4.2,18.9,9.4z" stroke-width="3" id="shape215"/><g transform="translate(340.78,666.62)" id="shape216"><path fill="url(#lg1)" d="M0,0M15.1,9.4C15.1,12.6,12.6,15.1,9.4,15.1C6.3,15.1,3.8,12.6,3.8,9.4C3.8,6.3,6.3,3.8,9.4,3.8C12.6,3.8,15.1,6.3,15.1,9.4z"/><path fill="none" stroke="url(#lg1)" d="M0,0M18.9,9.4C18.9,14.7,14.7,18.9,9.4,18.9C4.2,18.9,-0,14.7,-0,9.4C-0,4.2,4.2,-0,9.4,-0C14.7,-0,18.9,4.2,18.9,9.4z" stroke-width="3"/></g><path fill="url(#lg1)" stroke="url(#lg1)" transform="translate(444.51,600.21)" d="M0,0M18.9,9.4C18.9,14.7,14.7,18.9,9.4,18.9C4.2,18.9,-0,14.7,-0,9.4C-0,4.2,4.2,-0,9.4,-0C14.7,-0,18.9,4.2,18.9,9.4z" stroke-width="3" id="shape217"/><g transform="translate(66.7,726.39)"><path fill="#cfebf6" stroke="#696969" transform="translate(162.52,0)" d="M0,0L34.6,0L34.6,33.3L0,33.3L0,0z" id="shape218"/><g transform="translate(197.1,0)" id="shape219"><path fill="#cfebf6" stroke="#696969" d="M0,0L34.6,0L34.6,33.3L0,33.3L0,0z"/><text class="st6"><tspan y="20.2" x="11.3">52</tspan></text></g><g transform="translate(231.67,0)" id="shape220"><path fill="#cfebf6" stroke="#696969" d="M0,0L34.6,0L34.6,33.3L0,33.3L0,0z"/><text class="st6"><tspan y="20.2" x="11.3">26</tspan></text></g><g transform="translate(266.25,0)" id="shape221"><path fill="#cfebf6" stroke="#696969" d="M0,0L34.6,0L34.6,33.3L0,33.3L0,0z"/><text class="st6"><tspan y="20.2" x="11.3">34</tspan></text></g><g transform="translate(300.82,0)" id="shape222"><path fill="#cfebf6" stroke="#696969" d="M0,0L34.6,0L34.6,33.3L0,33.3L0,0z"/><text class="st6"><tspan y="20.2" x="11.3">42</tspan></text></g><g transform="translate(335.4,0)" id="shape223"><path fill="#cfebf6" stroke="#696969" d="M0,0L34.6,0L34.6,33.3L0,33.3L0,0z"/><text class="st6"><tspan y="20.2" x="11.3">52</tspan></text></g><g transform="translate(369.97,0)" id="shape224"><path fill="#cfebf6" stroke="#696969" d="M0,0L34.6,0L34.6,33.3L0,33.3L0,0z"/><text class="st6"><tspan y="20.2" x="11.3">32</tspan></text></g><g transform="translate(404.55,0)" id="shape225"><path fill="#cfebf6" stroke="#696969" d="M0,0L34.6,0L34.6,33.3L0,33.3L0,0z"/><text class="st6"><tspan y="20.2" x="11.3">16</tspan></text></g><g transform="translate(-0,0)" id="shape226"><path fill="#cfebf6" stroke="#696969" d="M0,0L162.5,0L162.5,33.3L0,33.3L0,0z"/><text class="st1"><tspan y="20.2" x="8.3">summary</tspan></text></g></g></g></svg>