<?xml version="1.0" encoding="utf-8"?>
<!-- Generator: Adobe Illustrator 19.0.0, SVG Export Plug-In . SVG Version: 6.00 Build 0)  -->
<svg version="1.1" id="Layer_1" xmlns="http://www.w3.org/2000/svg" xmlns:xlink="http://www.w3.org/1999/xlink" x="0px" y="0px"
	 viewBox="0 0 1024 768" style="enable-background:new 0 0 1024 768;" xml:space="preserve">
<style type="text/css">
	.st0{fill:#FFFFFF;}
	.st1{fill:#333132;}
	.st2{fill:#414042;}
	.st3{fill:#231F20;}
	.st4{fill:#231F20;stroke:#231F20;stroke-width:0.11;stroke-miterlimit:10;}
	.st5{fill:#A35225;}
	.st6{fill:#F38920;}
	.st7{fill:#231F20;stroke:#231F20;stroke-width:2.2008;stroke-miterlimit:10;}
	.st8{fill:#C3D4DE;}
	.st9{fill:#FFFFFF;stroke:#231F20;stroke-width:2.2008;stroke-miterlimit:10;}
	.st10{fill:#EECB1F;}
	.st11{fill:#FFFFFF;stroke:#231F20;stroke-width:1.1004;stroke-miterlimit:10;}
</style>
<g id="LochaMesh_x5F_Logotipo">
	<polygon id="XMLID_1_" class="st0" points="420.6,129 393,145.2 393,178 420.8,193.8 449,177.6 449,145 	"/>
	<polygon id="XMLID_65_" class="st1" points="83.4,523.1 226.9,522.8 319.8,414.3 158.3,305.7 	"/>
	<polygon id="XMLID_32_" class="st2" points="319.8,305.7 319.8,414.3 467.3,305.7 	"/>
	<polygon id="XMLID_31_" class="st3" points="209.9,197.8 158.3,305.7 319.8,414.3 319.8,305.7 	"/>
	<polygon id="XMLID_30_" class="st4" points="554.5,434.1 319.8,414.3 226.9,522.8 	"/>
	<polygon id="XMLID_29_" class="st3" points="467.3,305.7 583.6,343.6 554.5,434.1 	"/>
	<polygon id="XMLID_28_" class="st5" points="614.7,522.8 554.5,434.1 226.9,522.8 	"/>
	<polygon id="XMLID_27_" class="st6" points="633.9,414.6 614.7,522.8 554.5,434.1 	"/>
	<polygon id="XMLID_26_" class="st2" points="800.4,414.3 583.6,343.6 633.9,414.6 	"/>
	<polygon id="XMLID_25_" class="st3" points="948.1,522.8 800.4,414.3 614.7,522.8 	"/>
	<polygon id="XMLID_24_" class="st7" points="422.6,141.1 436.1,148.9 436.1,164.4 422.6,172.2 409.1,164.4 409.1,148.9 	"/>
	<polygon id="XMLID_23_" class="st7" points="540.2,179 467.3,137 467.3,187.6 407.8,222.1 329.6,187.6 275.1,192.2 319.8,305.7 	
		"/>
	<polygon id="XMLID_22_" class="st2" points="579.1,156.7 562.2,105.9 467.3,51.1 413.3,105.9 540.2,179 	"/>
	<polygon id="XMLID_21_" class="st8" points="614.7,136.2 562.2,105.9 579.1,156.7 	"/>
	<polygon id="XMLID_20_" class="st3" points="591.4,96.9 614.7,136.2 467.3,51.1 	"/>
	<polygon id="XMLID_19_" class="st8" points="614.7,222.1 540.2,179 467.3,305.7 	"/>
	<polygon id="XMLID_18_" class="st2" points="614.7,235.6 614.7,222.1 467.3,305.7 562.2,336.6 	"/>
	<polygon id="XMLID_17_" class="st1" points="844.8,222.1 614.7,222.1 614.7,235.6 	"/>
	<polygon id="XMLID_16_" class="st3" points="614.7,136.2 844.8,222.1 614.7,222.1 540.2,179 	"/>
	<polygon id="XMLID_15_" class="st9" points="614.7,166.1 565.2,179.1 615.9,149.9 775.7,209.6 	"/>
	<polygon id="XMLID_14_" class="st8" points="275.1,192.2 287.2,171.3 371.2,127.7 371.2,172.2 378.1,193.8 409.1,208.5 430,209.2 
		407.8,222.1 329.6,187.6 	"/>
	<polygon id="XMLID_13_" class="st1" points="540.2,179 319.8,305.7 467.3,305.7 	"/>
	<polygon id="XMLID_12_" class="st1" points="467.3,305.7 319.8,414.3 554.5,434.1 	"/>
	<polygon id="XMLID_11_" class="st10" points="583.6,343.6 554.5,434.1 633.9,414.6 	"/>
	<polygon id="XMLID_10_" class="st1" points="800.4,414.3 633.9,414.6 614.7,522.8 	"/>
	<polygon id="XMLID_9_" class="st11" points="422.6,141.1 422.6,156.7 436.1,148.9 	"/>
	<path id="XMLID_6_" class="st1" d="M413.3,105.9l-42.1,21.9l0,44.5l6.9,21.6l31,14.7l20.9,0.7l37.3-21.6V137L413.3,105.9z
		 M449.2,177.6l-28.1,16.2l-28.1-16.2v-32.4l28.1-16.2l28.1,16.2V177.6z"/>
	<polygon id="XMLID_5_" class="st1" points="209.9,197.8 275.1,192.2 319.8,305.7 	"/>
	<polygon id="XMLID_4_" class="st3" points="239,137 356.6,51.1 467.3,51.1 413.3,105.9 371.2,127.7 287.2,171.3 275.1,192.2 
		209.9,197.8 	"/>
	<g id="XMLID_3_">
		<path id="XMLID_66_" d="M82.7,708.6V548.4c0-1.6,0.8-2.4,2.4-2.4h2.4c1.6,0,2.4,0.8,2.4,2.4v154.9c0,0.6,0.3,0.9,0.9,0.9H147
			c1.6,0,2.4,0.8,2.4,2.4v1.9c0,1.6-0.8,2.4-2.4,2.4H85.1C83.5,710.9,82.7,710.1,82.7,708.6z"/>
		<path id="XMLID_68_" d="M174.4,703.3c-6-6.4-9.1-14.6-9.1-24.6v-53.5c0-9.9,3-18.1,9.1-24.5c6-6.4,13.9-9.7,23.4-9.7
			c9.6,0,17.4,3.2,23.4,9.7c6,6.4,9.1,14.6,9.1,24.5v53.5c0,10-3,18.2-9.1,24.6c-6,6.4-13.9,9.5-23.4,9.5
			C188.3,712.8,180.5,709.6,174.4,703.3z M216.2,698.5c4.7-5.1,7.1-11.7,7.1-19.9v-53.5c0-8.2-2.4-14.8-7.1-19.9
			c-4.7-5.1-10.8-7.7-18.4-7.7c-7.5,0-13.7,2.6-18.4,7.7c-4.7,5.1-7.1,11.7-7.1,19.9v53.5c0,8.2,2.4,14.8,7.1,19.9
			c4.7,5.1,10.8,7.7,18.4,7.7C205.4,706.2,211.5,703.7,216.2,698.5z"/>
		<path id="XMLID_71_" d="M268.2,703.3c-6-6.4-9.1-14.6-9.1-24.6v-53.5c0-9.9,3-18.1,9.1-24.5c6-6.4,13.9-9.7,23.4-9.7
			c6.3,0,11.9,1.4,16.8,4.1c4.9,2.7,8.8,6.4,11.5,11c2.7,4.6,4.1,9.4,4.1,14.6v0.7c0,1.6-0.8,2.4-2.4,2.4h-2.4
			c-1.6,0-2.4-0.5-2.4-1.6v-1.4c0-6.1-2.4-11.5-7.2-16.1c-4.8-4.6-10.9-6.9-18.3-6.9c-7.5,0-13.7,2.6-18.4,7.7
			c-4.7,5.1-7.1,11.7-7.1,19.9v53.5c0,8.2,2.4,14.8,7.1,19.9c4.7,5.1,10.8,7.7,18.4,7.7c7.4,0,13.5-2.3,18.3-6.9
			c4.8-4.6,7.2-10,7.2-16.1v-0.7c0-1.6,0.8-2.4,2.4-2.4h2.4c1.6,0,2.4,0.5,2.4,1.4v1.6c0,5.2-1.4,10-4.1,14.6
			c-2.7,4.6-6.6,8.2-11.5,11s-10.6,4.1-16.8,4.1C282,712.8,274.2,709.6,268.2,703.3z"/>
		<path id="XMLID_73_" d="M408.2,600.7c5.2,6.3,7.8,15,7.8,26.1v81.7c0,1.6-0.8,2.4-2.4,2.4h-2.4c-1.6,0-2.4-0.8-2.4-2.4v-80.8
			c0-9.4-2.1-16.8-6.4-22c-4.2-5.3-10.1-7.9-17.7-7.9c-7.9,0-14,2.8-18.5,8.5s-6.7,13.4-6.7,23.3v78.9c0,1.6-0.8,2.4-2.4,2.4h-2.4
			c-1.6,0-2.4-0.8-2.4-2.4V548.4c0-1.6,0.8-2.4,2.4-2.4h2.4c1.6,0,2.4,0.8,2.4,2.4v57.9c0,0.5,0.1,0.7,0.4,0.7
			c0.2,0,0.5-0.2,0.8-0.5c2.5-4.9,6-8.6,10.4-11.3c4.4-2.7,9.4-4,15.1-4C395.7,591.3,403,594.4,408.2,600.7z"/>
		<path id="XMLID_75_" d="M501.6,601.6c5.5,7.1,8.2,16.6,8.2,28.5v78.4c0,1.6-0.8,2.4-2.4,2.4h-2.4c-1.6,0-2.4-0.8-2.4-2.4V698
			c0-0.5-0.2-0.7-0.5-0.8c-0.3-0.1-0.6,0.1-0.7,0.6c-3,5-7,8.8-12,11.3c-5,2.5-10.7,3.8-17,3.8c-8.2,0-15-2.4-20.6-7.2
			c-5.6-4.8-8.4-13.1-8.4-24.8c0-12.6,3.4-21.9,10.1-28c6.7-6.1,15.8-9.2,27.1-9.2h21c0.6,0,0.9-0.3,0.9-0.9v-13
			c0-9.7-2.1-17.5-6.4-23.3c-4.2-5.8-10.4-8.7-18.4-8.7c-6.3,0-11.8,1.9-16.5,5.8c-4.7,3.8-7.4,8.8-8,15c0,1.4-0.8,2.1-2.4,2.1
			l-2.6-0.2c-0.8,0-1.4-0.2-1.8-0.7c-0.4-0.5-0.5-1-0.4-1.6c0.8-8,4.2-14.5,10.2-19.4c6-4.9,13.2-7.4,21.5-7.4
			C488.4,591.1,496.1,594.6,501.6,601.6z M494.2,698.7c5.7-5,8.6-12.2,8.6-21.7v-26.1c0-0.6-0.3-0.9-0.9-0.9h-20.7
			c-9.3,0-16.6,2.6-22.1,7.8c-5.5,5.2-8.2,12.8-8.2,22.8c0,8.8,2.1,15.3,6.4,19.4c4.2,4.2,9.8,6.2,16.7,6.2
			C481.7,706.2,488.5,703.7,494.2,698.7z"/>
		<path id="XMLID_78_" d="M592.1,708.6V548.4c0-1.6,0.8-2.4,2.4-2.4h2.8c1.3,0,2.1,0.6,2.6,1.9l29.9,74.9c0.2,0.5,0.4,0.7,0.7,0.6
			c0.3-0.1,0.5-0.3,0.7-0.6l30.6-74.9c0.5-1.3,1.3-1.9,2.6-1.9h2.8c1.6,0,2.4,0.8,2.4,2.4v160.1c0,1.6-0.8,2.4-2.4,2.4h-2.4
			c-1.6,0-2.4-0.8-2.4-2.4V564.9c0-0.5-0.2-0.7-0.5-0.8c-0.3-0.1-0.6,0.1-0.7,0.6l-27.6,68.5c-0.5,1.3-1.3,1.9-2.6,1.9h-0.2
			c-1.3,0-2.1-0.6-2.6-1.9l-28-68.5c-0.2-0.3-0.4-0.5-0.7-0.5c-0.3,0-0.5,0.2-0.5,0.7v143.6c0,1.6-0.8,2.4-2.4,2.4h-2.4
			C592.8,710.9,592.1,710.1,592.1,708.6z"/>
		<path id="XMLID_80_" d="M767.3,653.5h-54.6c-0.6,0-0.9,0.3-0.9,0.9v24.3c0,8.2,2.4,14.8,7.1,19.9c4.7,5.1,10.8,7.7,18.4,7.7
			c6.1,0,11.4-1.8,15.8-5.3c4.4-3.5,7.3-8.3,8.7-14.2c0.5-1.4,1.3-2.1,2.6-2.1h2.4c0.8,0,1.4,0.2,1.8,0.7c0.4,0.5,0.5,1.1,0.4,1.9
			c-1.6,7.7-5.2,13.9-10.8,18.6c-5.7,4.7-12.6,7.1-20.7,7.1c-9.6,0-17.4-3.2-23.4-9.5c-6-6.4-9.1-14.6-9.1-24.6v-53.5
			c0-9.9,3-18.1,9.1-24.5c6-6.4,13.9-9.7,23.4-9.7c9.6,0,17.4,3.2,23.4,9.7c6,6.4,9.1,14.6,9.1,24.5v25.9
			C769.6,652.7,768.8,653.5,767.3,653.5z M718.8,605.3c-4.7,5.1-7.1,11.7-7.1,19.9v21.2c0,0.6,0.3,0.9,0.9,0.9h49
			c0.6,0,0.9-0.3,0.9-0.9v-21.2c0-8.2-2.4-14.8-7.1-19.9c-4.7-5.1-10.8-7.7-18.4-7.7S723.5,600.2,718.8,605.3z"/>
		<path id="XMLID_83_" d="M803.3,703.7c-5.8-5.4-8.7-12.2-8.7-20.4v-1.2c0-1.6,0.8-2.4,2.4-2.4h2.1c1.6,0,2.4,0.6,2.4,1.6v1.6
			c0,6.4,2.2,11.8,6.7,16.1c4.5,4.3,10.5,6.5,18,6.5c7.1,0,12.8-2.2,17.1-6.6c4.3-4.4,6.5-10.2,6.5-17.4c0-5.2-1.2-9.4-3.5-12.7
			c-2.4-3.3-5.2-5.9-8.6-7.9c-3.4-2-8-4.2-14-6.7c-6.3-2.7-11.3-5.1-15.1-7.3c-3.8-2.2-6.9-5.3-9.5-9.4c-2.6-4.1-3.9-9.3-3.9-15.5
			c0-9.1,2.8-16.4,8.4-21.9c5.6-5.5,13-8.2,22.3-8.2c9.1,0,16.4,2.8,22,8.4c5.6,5.6,8.4,12.8,8.4,21.5v0.7c0,1.6-0.8,2.4-2.4,2.4
			h-1.9c-1.6,0-2.4-0.5-2.4-1.6v-1.4c0-6.7-2.2-12.4-6.7-16.8c-4.5-4.5-10.2-6.7-17.3-6.7s-12.7,2.2-17,6.6
			c-4.2,4.4-6.4,10.1-6.4,17.2c0,4.7,1.1,8.7,3.2,11.9c2.1,3.2,4.8,5.8,8,7.7c3.2,1.9,7.6,4,13.1,6.4c6.7,2.8,12.1,5.4,16,7.7
			c3.9,2.3,7.3,5.5,10.1,9.8c2.8,4.2,4.2,9.7,4.2,16.2c0,9.1-2.8,16.4-8.5,21.9c-5.7,5.5-13.1,8.2-22.4,8.2
			C816.6,711.9,809.1,709.1,803.3,703.7z"/>
		<path id="XMLID_85_" d="M938.2,600.7c5.2,6.3,7.8,15,7.8,26.1v81.7c0,1.6-0.8,2.4-2.4,2.4h-2.4c-1.6,0-2.4-0.8-2.4-2.4v-80.8
			c0-9.4-2.1-16.8-6.4-22c-4.2-5.3-10.1-7.9-17.7-7.9c-7.9,0-14,2.8-18.5,8.5c-4.5,5.7-6.7,13.4-6.7,23.3v78.9
			c0,1.6-0.8,2.4-2.4,2.4H885c-1.6,0-2.4-0.8-2.4-2.4V548.4c0-1.6,0.8-2.4,2.4-2.4h2.4c1.6,0,2.4,0.8,2.4,2.4v57.9
			c0,0.5,0.1,0.7,0.4,0.7s0.5-0.2,0.8-0.5c2.5-4.9,6-8.6,10.4-11.3c4.4-2.7,9.4-4,15.1-4C925.7,591.3,933,594.4,938.2,600.7z"/>
	</g>
</g>
</svg>